<svg xmlns="http://www.w3.org/2000/svg" width="9.128" height="19.648" viewBox="0 0 9.128 19.648">
  <defs>
    <style>
      .cls-1 {
        fill: #212121;
        fill-rule: evenodd;
      }
    </style>
  </defs>
  <g id="Group_3488" data-name="Group 3488" transform="translate(-664.204 -1347.952)">
    <path id="Path_3907" data-name="Path 3907" class="cls-1" d="M666.216,1357.853v9.5a.247.247,0,0,0,.247.247h3.528a.247.247,0,0,0,.247-.247V1357.7H672.8a.248.248,0,0,0,.246-.227l.246-2.909a.248.248,0,0,0-.246-.268h-2.8v-2.064a.876.876,0,0,1,.876-.875h1.971a.247.247,0,0,0,.247-.248V1348.2a.247.247,0,0,0-.247-.247h-3.331a3.538,3.538,0,0,0-3.538,3.539v2.8h-1.764a.248.248,0,0,0-.248.247v2.909a.248.248,0,0,0,.248.248h1.764Z"/>
  </g>
</svg>
