<svg xmlns="http://www.w3.org/2000/svg" width="18.334" height="18.334" viewBox="0 0 18.334 18.334">
  <defs>
    <style>
      .cls-1 {
        fill: #212121;
      }
    </style>
  </defs>
  <g id="Group_3490" data-name="Group 3490" transform="translate(-784.974 -1348.609)">
    <path id="Path_3909" data-name="Path 3909" class="cls-1" d="M798.964,1351.984a1.078,1.078,0,1,0,1.078,1.078A1.079,1.079,0,0,0,798.964,1351.984Zm-4.792,1.383a4.528,4.528,0,1,0,4.528,4.527A4.533,4.533,0,0,0,794.172,1353.367Zm0,7.428a2.9,2.9,0,1,1,2.9-2.9A2.9,2.9,0,0,1,794.172,1360.8Zm9.136-6.664a5.522,5.522,0,0,0-5.523-5.522H790.5a5.522,5.522,0,0,0-5.522,5.522v7.29a5.522,5.522,0,0,0,5.522,5.522h7.289a5.522,5.522,0,0,0,5.523-5.522Zm-1.73,7.29a3.793,3.793,0,0,1-3.793,3.793H790.5a3.794,3.794,0,0,1-3.793-3.793v-7.29a3.794,3.794,0,0,1,3.793-3.793h7.289a3.793,3.793,0,0,1,3.793,3.793Z"/>
  </g>
</svg>
