<svg xmlns="http://www.w3.org/2000/svg" width="16.85" height="13.879" viewBox="0 0 16.85 13.879">
  <defs>
    <style>
      .cls-1 {
        fill: #212121;
      }
    </style>
  </defs>
  <g id="Group_3489" data-name="Group 3489" transform="translate(-725.512 -1350.837)">
    <path id="Path_3908" data-name="Path 3908" class="cls-1" d="M742.3,1352.5a6.953,6.953,0,0,1-1.7.486c.275-.046.679-.542.84-.743a3.112,3.112,0,0,0,.567-1.032c.015-.03.026-.067,0-.089a.1.1,0,0,0-.09.008,8.705,8.705,0,0,1-2.022.773.135.135,0,0,1-.14-.037,1.6,1.6,0,0,0-.176-.18,3.582,3.582,0,0,0-.98-.6,3.4,3.4,0,0,0-1.5-.242,3.6,3.6,0,0,0-1.425.4,3.679,3.679,0,0,0-1.15.939,3.533,3.533,0,0,0-.686,1.375,3.735,3.735,0,0,0-.037,1.452c.011.081,0,.092-.069.081a10.8,10.8,0,0,1-6.948-3.536c-.081-.092-.125-.092-.191.007a3.524,3.524,0,0,0,.6,4.163c.136.129.276.258.427.375a3.523,3.523,0,0,1-1.34-.375c-.081-.052-.122-.022-.129.07a2.014,2.014,0,0,0,.022.4,3.563,3.563,0,0,0,2.2,2.84,2.093,2.093,0,0,0,.446.136,3.976,3.976,0,0,1-1.315.041c-.1-.019-.133.029-.1.121a3.7,3.7,0,0,0,2.763,2.314c.125.021.25.021.376.051-.008.011-.015.011-.023.022a4.371,4.371,0,0,1-1.886,1,6.764,6.764,0,0,1-2.866.367c-.154-.023-.186-.021-.228,0s-.005.063.044.1c.2.129.394.243.6.354a9.511,9.511,0,0,0,1.915.766,10.2,10.2,0,0,0,9.905-2.316,10.4,10.4,0,0,0,2.741-7.582c0-.109.128-.169.205-.227a6.688,6.688,0,0,0,1.342-1.4.41.41,0,0,0,.083-.268v-.015C742.362,1352.456,742.367,1352.469,742.3,1352.5Z"/>
  </g>
</svg>
