<svg xmlns="http://www.w3.org/2000/svg" width="71.267" height="71.267" viewBox="0 0 71.267 71.267">
  <defs>
    <style>
      .cls-1 {
        fill: #fff;
      }

      .cls-2 {
        fill: #44c868;
      }

      .cls-3 {
        fill: #4ce166;
      }

      .cls-4 {
        fill: #ffdb56;
      }

      .cls-5 {
        fill: #a8eefc;
      }

      .cls-6 {
        fill: #ffbb24;
      }

      .cls-7 {
        fill: #ff4a4a;
      }

      .cls-8 {
        fill: #e7343f;
      }

      .cls-9 {
        fill: #1ea4e9;
      }
    </style>
  </defs>
  <g id="Group_3146" data-name="Group 3146" transform="translate(-4943.423 -2535.427)">
    <circle id="Ellipse_504" data-name="Ellipse 504" class="cls-1" cx="35.633" cy="35.633" r="35.633" transform="translate(4943.423 2535.427)"/>
    <g id="Group_3145" data-name="Group 3145">
      <g id="Group_3141" data-name="Group 3141">
        <path id="Path_3459" data-name="Path 3459" class="cls-2" d="M5011.534,2600.908l-5.085-26.886a.912.912,0,0,0-.472-.633l-12.8-6.832a.984.984,0,0,0-.535-.11l2.328,28.826-.078.034,15.316,6.594a.984.984,0,0,0,.974-.113A.894.894,0,0,0,5011.534,2600.908Z"/>
        <path id="Path_3460" data-name="Path 3460" class="cls-2" d="M4979.19,2573.088l-13.089-6.543a.988.988,0,0,0-.5-.1.9.9,0,0,1,.136,0l-2.328,28.826,15.394,6.629a.994.994,0,0,0,.389.08h0Z"/>
      </g>
      <g id="Group_3142" data-name="Group 3142">
        <path id="Path_3461" data-name="Path 3461" class="cls-3" d="M4965.735,2566.447a.982.982,0,0,0-.535.11l-12.8,6.832a.911.911,0,0,0-.473.633l-5.084,26.886a.892.892,0,0,0,.349.88.975.975,0,0,0,.585.194.992.992,0,0,0,.389-.08l15.233-6.559Z"/>
        <path id="Path_3462" data-name="Path 3462" class="cls-3" d="M4992.644,2566.446a1,1,0,0,0-.366.1l-13.088,6.542v28.894h0a.994.994,0,0,0,.389-.08l15.393-6.628Z"/>
      </g>
      <path id="Path_3463" data-name="Path 3463" class="cls-4" d="M4950.389,2582.17l-1.033,5.462,15.294-7.753.355-4.4.059-.729Z"/>
      <path id="Path_3464" data-name="Path 3464" class="cls-5" d="M4964.788,2578.174l-.138,1.7-15.294,7.753-2.51,13.276a.892.892,0,0,0,.349.88.975.975,0,0,0,.585.194.992.992,0,0,0,.389-.08l15.233-6.559,1.386-17.169Z"/>
      <g id="Group_3143" data-name="Group 3143">
        <path id="Path_3465" data-name="Path 3465" class="cls-6" d="M4979.193,2576.692l-14.129-1.939-.414,5.126,14.539,21.192v-7.706l-8.676-13.112,8.68,1Z"/>
        <path id="Path_3466" data-name="Path 3466" class="cls-6" d="M5004.969,2572.851l-6.148-3.282-5.82,1.305.073.9.288,3.559Z"/>
      </g>
      <path id="Path_3467" data-name="Path 3467" class="cls-4" d="M4993.878,2581.726l-.551-6.824h0l-.325-4.028-13.808,5.818v4.557l9.02-3.764Z"/>
      <path id="Path_3468" data-name="Path 3468" class="cls-6" d="M5011.534,2600.908l-1.277-6.753-16.9-18.82.516,6.391,17.326,20.045A.892.892,0,0,0,5011.534,2600.908Z"/>
      <path id="Path_3469" data-name="Path 3469" class="cls-7" d="M4979.25,2546.53c-7.326,0-13.287,5.716-13.287,12.743,0,4.346,2.15,9.013,6.39,13.869a44.7,44.7,0,0,0,6.316,5.958.985.985,0,0,0,1.163,0,44.7,44.7,0,0,0,6.316-5.958c4.24-4.856,6.39-9.523,6.39-13.869C4992.538,2552.246,4986.577,2546.53,4979.25,2546.53Zm4.921,12.743a4.925,4.925,0,1,1-4.921-4.719A4.823,4.823,0,0,1,4984.171,2559.273Z"/>
      <path id="Path_3470" data-name="Path 3470" class="cls-8" d="M4979.25,2546.53a13.819,13.819,0,0,0-1.713.106,12.957,12.957,0,0,1,11.573,12.637c0,4.346-2.15,9.013-6.39,13.869a46.713,46.713,0,0,1-5.183,5.056c.664.552,1.086.868,1.132.9a.985.985,0,0,0,1.163,0,44.7,44.7,0,0,0,6.316-5.958c4.24-4.856,6.39-9.523,6.39-13.869C4992.538,2552.246,4986.577,2546.53,4979.25,2546.53Z"/>
      <path id="Path_3471" data-name="Path 3471" class="cls-4" d="M4979.579,2601.9l5.724-2.465-6.113-6.072v8.617h0A1,1,0,0,0,4979.579,2601.9Z"/>
      <g id="Group_3144" data-name="Group 3144">
        <path id="Path_3472" data-name="Path 3472" class="cls-9" d="M5006.449,2574.022a.913.913,0,0,0-.473-.633l-1.007-.538-11.607,2.484h0l16.894,18.82Z"/>
        <path id="Path_3473" data-name="Path 3473" class="cls-9" d="M4979.19,2601.982h0v-.911l-14.54-21.192-1.243,15.4,15.393,6.628A1,1,0,0,0,4979.19,2601.982Z"/>
      </g>
    </g>
  </g>
</svg>
