<svg xmlns="http://www.w3.org/2000/svg" xmlns:xlink="http://www.w3.org/1999/xlink" width="444.978" height="206.203" viewBox="0 0 444.978 206.203">
  <defs>
    <style>
      .cls-1, .cls-40, .cls-43, .cls-47, .cls-53, .cls-70, .cls-78, .cls-79, .cls-81 {
        fill: none;
      }

      .cls-2 {
        fill: #006674;
      }

      .cls-3 {
        fill: #00a3bc;
      }

      .cls-4 {
        fill: #008693;
      }

      .cls-5 {
        fill: #846c3f;
      }

      .cls-6 {
        fill: #424242;
      }

      .cls-7 {
        fill: #b4dffe;
      }

      .cls-8 {
        fill: #757575;
      }

      .cls-9 {
        fill: #616161;
      }

      .cls-10 {
        clip-path: url(#clip-path);
      }

      .cls-11 {
        fill: #c5c6c6;
      }

      .cls-12 {
        fill: #e8e8e8;
      }

      .cls-13 {
        fill: #cbcbcb;
      }

      .cls-14 {
        fill: #580003;
      }

      .cls-15 {
        fill: #890601;
      }

      .cls-16 {
        fill: #000b1d;
      }

      .cls-17 {
        fill: #e1e1e1;
      }

      .cls-18, .cls-27 {
        fill: #fff;
      }

      .cls-19 {
        fill: #000005;
      }

      .cls-20 {
        fill: #004164;
      }

      .cls-21 {
        fill: #00aeec;
      }

      .cls-22 {
        clip-path: url(#clip-path-2);
      }

      .cls-23 {
        fill: #b2b3b3;
      }

      .cls-24 {
        fill: url(#linear-gradient);
      }

      .cls-25 {
        fill: url(#linear-gradient-2);
      }

      .cls-26 {
        fill: #8c8d8d;
      }

      .cls-27 {
        opacity: 0.17;
      }

      .cls-28 {
        fill: #bdbbbb;
      }

      .cls-29 {
        fill: #eeb296;
      }

      .cls-30 {
        fill: #f6c1a8;
      }

      .cls-31 {
        fill: #440d04;
      }

      .cls-32 {
        fill: #2a2620;
      }

      .cls-33 {
        fill: #f0eeee;
      }

      .cls-34 {
        fill: #ece8e5;
      }

      .cls-35 {
        fill: #ffcd09;
      }

      .cls-36 {
        fill: #3a3d42;
      }

      .cls-37 {
        fill: #2c2d32;
      }

      .cls-38 {
        fill: #e0a082;
      }

      .cls-39 {
        fill: #ffe000;
      }

      .cls-40 {
        stroke: #ba6050;
        stroke-width: 0.547px;
      }

      .cls-40, .cls-43, .cls-47, .cls-53, .cls-70, .cls-78, .cls-79, .cls-81 {
        stroke-miterlimit: 10;
      }

      .cls-41 {
        fill: #610d04;
      }

      .cls-42 {
        fill: url(#linear-gradient-3);
      }

      .cls-43 {
        stroke: #532711;
        stroke-width: 0.911px;
      }

      .cls-44 {
        fill: url(#linear-gradient-4);
      }

      .cls-45 {
        fill: #ac0d41;
      }

      .cls-46 {
        fill: #ffc383;
      }

      .cls-47 {
        stroke: #fff;
        stroke-width: 1.067px;
      }

      .cls-48 {
        fill: url(#linear-gradient-5);
      }

      .cls-49 {
        fill: #cfeded;
      }

      .cls-50 {
        fill: #e05f00;
      }

      .cls-51 {
        fill: #d19f49;
      }

      .cls-52 {
        fill: #eaa07f;
      }

      .cls-53, .cls-81 {
        stroke: #616161;
      }

      .cls-53 {
        stroke-width: 0.33px;
      }

      .cls-54, .cls-55 {
        opacity: 0.59;
      }

      .cls-54 {
        fill: url(#linear-gradient-6);
      }

      .cls-55 {
        fill: url(#linear-gradient-7);
      }

      .cls-56 {
        fill: #212121;
      }

      .cls-57 {
        fill: #fbc743;
      }

      .cls-58 {
        fill: #ffcb8c;
      }

      .cls-59 {
        fill: #ffc47a;
      }

      .cls-60 {
        fill: #955226;
      }

      .cls-61 {
        fill: #d60042;
      }

      .cls-62 {
        fill: #6d0016;
      }

      .cls-63 {
        fill: #fb0050;
      }

      .cls-64 {
        fill: #ffb061;
      }

      .cls-65 {
        fill: #ffa253;
      }

      .cls-66 {
        fill: #b76532;
      }

      .cls-67 {
        fill: url(#linear-gradient-8);
      }

      .cls-68 {
        fill: #71330f;
      }

      .cls-69 {
        fill: #af4c11;
      }

      .cls-70 {
        stroke: #af4c11;
        stroke-width: 0.465px;
      }

      .cls-71 {
        fill: #009ff3;
      }

      .cls-72 {
        fill: #001f4c;
      }

      .cls-73 {
        fill: #004596;
      }

      .cls-74 {
        fill: #00a3f1;
      }

      .cls-75 {
        fill: #007bc7;
      }

      .cls-76 {
        fill: #00d3ff;
      }

      .cls-77 {
        fill: #ffad63;
      }

      .cls-78, .cls-79 {
        stroke: #424242;
      }

      .cls-78 {
        stroke-width: 0.314px;
      }

      .cls-79 {
        stroke-width: 0.403px;
      }

      .cls-80 {
        fill: url(#linear-gradient-9);
      }

      .cls-81 {
        stroke-width: 0.523px;
      }

      .cls-82 {
        fill: url(#linear-gradient-10);
      }

      .cls-83 {
        fill: #ff4248;
      }
    </style>
    <clipPath id="clip-path">
      <path id="Path_906" data-name="Path 906" class="cls-1" d="M11715.457,4996.7l66.308-6.554c4.523,0,8.19,4.211,8.19,9.4v145.794c-5.146-.317-78.157-4.8-82.687-5.141v-25.052s-12.15,5.608-11.8-11.745c.269-13.426-1.3-24.292-2.925-28.995-12.088-1.511-20.323,11.649-25.12,8.2-13.451-9.672-3.989-44.788,1.744-50.939,9.235-9.906,11.863,7.85,21.806,13.607s16.3,5.059,16.3,5.059v-44.942A8.454,8.454,0,0,1,11715.457,4996.7Z"/>
    </clipPath>
    <clipPath id="clip-path-2">
      <path id="Path_871" data-name="Path 871" class="cls-1" d="M11676.14,5057.227c-1.415,11.382-4.484,18.542-6.186,20.071-4.262.805-5.4-9.953-3.989-21.335s4.706-20.623,9.132-19.859C11676.249,5038.158,11677.555,5045.845,11676.14,5057.227Z"/>
    </clipPath>
    <linearGradient id="linear-gradient" x1="-4180.852" y1="248.348" x2="-4180.367" y2="248.901" gradientUnits="objectBoundingBox">
      <stop offset="0" stop-color="#fff"/>
      <stop offset="1" stop-color="#eee"/>
    </linearGradient>
    <linearGradient id="linear-gradient-2" x1="-5163.646" y1="283.085" x2="-5164.542" y2="283.229" gradientUnits="objectBoundingBox">
      <stop offset="0" stop-color="#c8c9c9"/>
      <stop offset="1" stop-color="#b6b7b7"/>
    </linearGradient>
    <linearGradient id="linear-gradient-3" x1="-5.891" y1="200.389" x2="-6.196" y2="201.096" gradientUnits="objectBoundingBox">
      <stop offset="0" stop-color="#db9368"/>
      <stop offset="1" stop-color="#db9368" stop-opacity="0"/>
    </linearGradient>
    <linearGradient id="linear-gradient-4" x1="-7.588" y1="213.399" x2="-7.446" y2="214.177" xlink:href="#linear-gradient-3"/>
    <linearGradient id="linear-gradient-5" x1="0.93" y1="0.47" x2="0.023" y2="0.516" gradientUnits="objectBoundingBox">
      <stop offset="0" stop-color="#fff" stop-opacity="0.302"/>
      <stop offset="0.413" stop-color="#846c3f" stop-opacity="0.302"/>
      <stop offset="1" stop-color="#fff" stop-opacity="0"/>
    </linearGradient>
    <linearGradient id="linear-gradient-6" x1="-1450.294" y1="335.771" x2="-1450.639" y2="336.559" xlink:href="#linear-gradient-3"/>
    <linearGradient id="linear-gradient-7" x1="-1853.963" y1="318.52" x2="-1853.767" y2="319.434" xlink:href="#linear-gradient-3"/>
    <linearGradient id="linear-gradient-8" x1="-160.105" y1="429.309" x2="-159.876" y2="430.116" gradientUnits="objectBoundingBox">
      <stop offset="0" stop-color="#ee9d65"/>
      <stop offset="1" stop-color="#ee9d65" stop-opacity="0"/>
    </linearGradient>
    <linearGradient id="linear-gradient-9" x1="-4997.047" y1="-778.492" x2="-4997.353" y2="-777.767" gradientUnits="objectBoundingBox">
      <stop offset="0" stop-color="#e17b4e"/>
      <stop offset="1" stop-color="#e17b4e" stop-opacity="0"/>
    </linearGradient>
    <linearGradient id="linear-gradient-10" x1="-6602.009" y1="-344.945" x2="-6601.864" y2="-344.123" xlink:href="#linear-gradient-9"/>
  </defs>
  <g id="Group_538" data-name="Group 538" transform="translate(-11392.803 -4959.658)">
    <g id="Group_512" data-name="Group 512">
      <g id="Group_483" data-name="Group 483">
        <path id="Path_820" data-name="Path 820" class="cls-2" d="M11766.865,5109.982l0,0a68.407,68.407,0,0,0,8.886-.073c2.617-.172,5.223-.427,7.834-.649a17.405,17.405,0,0,1-.307-2.206,11.773,11.773,0,0,1,.727-5.325c1.592-3.461,3.311-5.574,3.383-5.179.136.729-.232,6.956-1.418,9.189a27.656,27.656,0,0,1-2.011,3.49c.634-.053,1.267-.1,1.9-.151q1.438-.105,2.878-.187a20.683,20.683,0,0,1-.514-2.948,17.261,17.261,0,0,1,1.744-7.045c2.354-4.524,8.359-9.049,8.938-8.8.051.022.066.07.055.142-.087.5-1.591,2.182-2.54,4.474-.22.53-1.887,6.548-1.905,6.612-.2.711-.739,2.5-.773,2.58l-.009.023a19.591,19.591,0,0,1-1.782,2.626l-.057.061-.121.127a17.574,17.574,0,0,1-2.482,2.113q2.953-.16,5.912-.222a22.94,22.94,0,0,1-.068-2.916,18.745,18.745,0,0,1,2.268-6.413c2.456-4.042,7.867-7.862,8.3-7.593.146.089-.147.482-.624,1.117a44.146,44.146,0,0,0-2.3,3.807l-.021.051c-.082.2-1.144,2.966-1.292,3.357l-.056.148c-.447,1.181-1.526,3.908-1.563,3.982l-.135.253a9.647,9.647,0,0,1-1.638,2.089l-.052.052-.114.111a16.292,16.292,0,0,1-2.5,1.951c.24,0,.48-.011.72-.014q2.15-.034,4.3-.016a23.421,23.421,0,0,1,.45-2.412,19.859,19.859,0,0,1,2.747-5.29c2.46-3.214,6.981-5.888,7.244-5.6a.071.071,0,0,1,.013.022.117.117,0,0,1,0,.027.2.2,0,0,1-.021.071,1.354,1.354,0,0,1-.191.273c-.056.068-.122.144-.2.228-.15.167-3.687,5.351-3.772,5.507l-.854,1.573-.135.246-.066.123a29.826,29.826,0,0,1-2.823,3.861l-.046.039-.1.083a13.346,13.346,0,0,1-1.857,1.257q2.14.021,4.277.093a22.316,22.316,0,0,1,.829-2.118,18.1,18.1,0,0,1,3.267-4.179c2.669-2.427,7.032-4.1,7.213-3.816.127.2-4.777,4.878-4.86,4.98-.041.051-.721.89-.991,1.222l-.053.065c-.355.437-.709.867-1.038,1.262-.041.05-.224.253-.269.3l-.012.013c-.045.047-.092.093-.139.138a17.762,17.762,0,0,1-1.6,1.185l-.046.027-.1.057a12.146,12.146,0,0,1-1.965.874c.36.013.72.026,1.081.041q1.982.083,3.959.208a20.585,20.585,0,0,1,1.071-1.913,18.549,18.549,0,0,1,3.81-3.672c3.027-2.1,7.773-3.452,7.938-3.188.04.064-.539.436-.6.474-.032.018-3.716,2.707-4.7,3.62l-.175.163c-.819.764-1.721,1.6-2.507,2.318-.048.044-.156.136-.16.14l-.148.122-.015.011a20.009,20.009,0,0,1-1.953,1.135l-.053.023-.11.047a14.488,14.488,0,0,1-2.207.732c.332.022.665.043,1,.067,1.238.086,2.491.168,3.726.309.239-.3,1.022-1.257,1.395-1.609a21.085,21.085,0,0,1,4.24-2.955c3.154-1.595,7.587-2.3,7.66-2.034.02.07-.188.174-.549.329-.442.19-1.112.458-1.866.834-.269.134-3.274,2.051-3.6,2.273-.853.575-2.913,1.933-2.918,1.936l-.175.1a9.717,9.717,0,0,1-1.8.729l-.05.015-.109.031a13.67,13.67,0,0,1-1.877.4c.267.033.532.07.8.109l-.014-.013c.319-.058,2.84-.131,2.841-.131l.2.013.047,0,.071.006c.19.016,2.132.407,2.171.42s1.438.578,1.954.8c.344.146,7.222,2.756,7.929,2.892a9.1,9.1,0,0,1,1.411.312c.054.027.082.056.08.087a.048.048,0,0,1-.008.02c-.214.352-5.3.777-9.168-.263a21.848,21.848,0,0,1-5.481-2.452c-.447-.3-1.373-1.107-1.807-1.493a.139.139,0,0,1-.106.037c-.424-.016-.843-.043-1.266-.074l-.587-.041a10.221,10.221,0,0,1,1.478.792l0,0,.119.079.029.019.042.03c.115.079.562.426.6.454.011.009,1.853,2.252,2.011,2.471.12.165,1.557,2.125,1.583,2.16.108.144.409.524.437.556a13.546,13.546,0,0,0,1.366,1.34,6.287,6.287,0,0,1,.77.71c.023.037.029.065.015.084a.035.035,0,0,1-.013.011c-.278.147-3.678-1.422-5.714-3.485a15,15,0,0,1-2.489-3.547,17.52,17.52,0,0,1-.57-1.7q-1.648-.116-3.3-.222a11.177,11.177,0,0,1,1.527,1l.085.067.04.033.117.1h0a7.087,7.087,0,0,1,1.166,1.221l0,.006c.035.048.069.1.1.146l.01.013c.032.048.063.1.095.146l.008.014c.031.05.062.1.09.152.168.3.346.618.524.944.287.521.581,1.063.863,1.581l.1.193c.243.448,3.1,4.541,3.208,4.654.029.031.235.266.279.331.057.084.075.142.044.172-.24.223-4.1-1.985-6.135-4.594a14.938,14.938,0,0,1-2.218-4.275,16.77,16.77,0,0,1-.31-1.93q-1.771-.109-3.547-.19a11.433,11.433,0,0,1,1.629,1.3l.082.079.037.038a18.671,18.671,0,0,1,1.5,2.068c.061.135.3.665.328.738.063.145.565,1.3.63,1.449l.611,1.416.045.1.415.951c.1.231.2.441.28.625.021.046.041.09.062.132.1.212.18.38.239.491.181.329.77,1.238.829,1.324s.293.407.349.481c.11.148.4.53.443.585.273.362.429.587.355.653-.253.229-4-2.439-5.892-5.428a17.245,17.245,0,0,1-1.979-4.824,21.174,21.174,0,0,1-.2-2.195c-.625-.027-1.251-.051-1.878-.07q-1.57-.047-3.144-.066a12.584,12.584,0,0,1,2,1.488c.031.028.063.057.095.087l.044.041a18.778,18.778,0,0,1,1.419,1.7c.038.062.189.327.223.389l.009.017c.034.064.43.9.6,1.267l.709,1.537.087.191c.011.023,3.867,6.685,3.905,6.736s.21.314.226.356c0,.014.009.027.012.039a.2.2,0,0,1,0,.033.072.072,0,0,1-.019.048c-.283.272-4.6-2.618-6.827-5.948a19.334,19.334,0,0,1-2.364-5.419,24.9,24.9,0,0,1-.288-2.561q-2.558-.03-5.116.011c.518.3,4.147,3.411,5.2,5.525.047.093,1.063,2.417,1.09,2.477.043.1.924,2.112.961,2.2s.58,1.291.595,1.322c.028.062.314.658.336.7.042.081,3.177,4.01,2.881,4.213-.419.288-5.98-3.294-8.63-7.224a19.044,19.044,0,0,1-2.591-6.308,22.847,22.847,0,0,1-.091-2.9q-.8.013-1.6.034-2.1.055-4.189.158c.627.374,3.081,2.348,3.081,2.348a9.127,9.127,0,0,1,1.644,2.087s.218.434.252.515c0,.007,1.394,3.955,1.429,4.062.073.212.667,1.948.688,2,.176.508,1.253,3.176,1.379,3.4a38.992,38.992,0,0,0,2.323,3.335c.018.029.035.056.05.082a.809.809,0,0,1,.087.2c.016.071,0,.12-.048.145-.571.29-6.9-3.845-9.542-8.214a17.029,17.029,0,0,1-2.17-6.929,20.818,20.818,0,0,1,.353-3.009q-2.8.144-5.6.371l-.492.041a13.087,13.087,0,0,1,1.842,1.615c.029.031.059.062.087.094l.04.044a16.227,16.227,0,0,1,1.323,1.946l.008.017c.027.061.281.77.347.966.013.039.516,1.58.556,1.7s1.323,4,1.337,4.031c.026.068,2.231,3.467,1.976,3.609-.36.2-4.55-3.1-6.361-6.46a15.253,15.253,0,0,1-1.571-5.278,17.616,17.616,0,0,1,.155-2.266c-3.129.266-6.252.584-9.392.749a60.308,60.308,0,0,1-8.054-.029C11765.813,5109.927,11766.205,5109.829,11766.865,5109.982Z"/>
        <path id="Path_821" data-name="Path 821" class="cls-3" d="M11782.319,5094.6v0a68.293,68.293,0,0,0,4.776-7.493c1.28-2.288,2.486-4.614,3.722-6.924a17.176,17.176,0,0,1-2.018-.944,11.772,11.772,0,0,1-4.071-3.509c-2.035-3.22-2.872-5.811-2.5-5.657.685.283,5.707,3.982,6.936,6.192a27.692,27.692,0,0,1,1.832,3.587q.451-.84.91-1.677.694-1.264,1.408-2.516a20.732,20.732,0,0,1-2.751-1.175,17.263,17.263,0,0,1-4.96-5.3c-2.513-4.436-3.039-11.937-2.512-12.285.047-.031.1-.019.149.031.375.347.965,2.522,2.37,4.566.324.473,4.465,5.148,4.509,5.2.488.553,1.692,1.981,1.743,2.054l.014.019a19.58,19.58,0,0,1,1.233,2.926l.02.08.041.171a17.737,17.737,0,0,1,.421,3.232q1.474-2.565,3.032-5.079a23.007,23.007,0,0,1-2.483-1.531,18.722,18.722,0,0,1-4.144-5.394c-2.054-4.26-2.312-10.879-1.848-11.1.153-.073.323.387.6,1.132a44.268,44.268,0,0,0,1.939,4l.032.046c.124.178,1.864,2.574,2.112,2.912l.094.127c.747,1.018,2.447,3.408,2.489,3.479l.139.251a9.676,9.676,0,0,1,.86,2.511l.015.072c.011.053.021.1.031.156a16.211,16.211,0,0,1,.277,3.156c.127-.2.253-.408.381-.611q1.141-1.822,2.327-3.614a23.284,23.284,0,0,1-1.778-1.691,19.828,19.828,0,0,1-2.942-5.185c-1.356-3.813-1.139-9.06-.756-9.126a.056.056,0,0,1,.025,0,.06.06,0,0,1,.023.012.17.17,0,0,1,.049.056,1.43,1.43,0,0,1,.125.309c.026.084.055.181.083.289.06.217,2.481,6.007,2.566,6.162s.654,1.2.855,1.573l.133.247.066.123a29.755,29.755,0,0,1,1.7,4.47l.008.06c.006.044.01.087.015.13a13.274,13.274,0,0,1,.043,2.242q1.184-1.782,2.407-3.536a22.192,22.192,0,0,1-1.325-1.85,18.075,18.075,0,0,1-1.728-5.014c-.583-3.56.392-8.131.727-8.128.236,0,1.49,6.662,1.531,6.788.021.062.354,1.089.485,1.5l.025.079c.173.537.342,1.066.494,1.557.019.062.09.327.1.389l0,.017c.015.063.028.127.04.191a17.617,17.617,0,0,1,.121,1.992l0,.053c0,.039,0,.078-.007.117a12.171,12.171,0,0,1-.338,2.124q.311-.445.623-.885,1.147-1.617,2.33-3.208a20.249,20.249,0,0,1-1.021-1.939,18.617,18.617,0,0,1-1.006-5.195c-.115-3.684,1.337-8.4,1.647-8.394.076,0,.073.69.07.763,0,.037.247,4.59.479,5.91l.042.235c.193,1.1.408,2.318.58,3.365.01.064.028.205.029.21q.012.1.021.192l0,.018a19.88,19.88,0,0,1-.111,2.256l-.009.057c-.007.039-.014.079-.021.118a14.518,14.518,0,0,1-.588,2.25q.3-.4.6-.8c.747-.992,1.5-2,2.288-2.957-.118-.361-.5-1.541-.591-2.046a21.092,21.092,0,0,1-.171-5.165c.38-3.514,2.205-7.615,2.466-7.533.068.022.043.254-.023.64-.081.474-.221,1.182-.316,2.019-.033.3-.062,3.864-.055,4.259.02,1.028.036,3.5.035,3.5,0,.064-.013.2-.013.2a9.78,9.78,0,0,1-.372,1.909l-.015.051-.032.108a13.991,13.991,0,0,1-.691,1.791q.259-.309.526-.609l-.02.005c.125-.3,1.437-2.454,1.438-2.455.038-.052.076-.1.116-.156l.028-.038.044-.056c.118-.152,1.5-1.566,1.534-1.592s1.268-.892,1.733-1.206c.309-.209,6.242-4.557,6.741-5.076a9,9,0,0,1,1.03-1.013c.053-.031.091-.039.117-.02a.066.066,0,0,1,.013.018c.178.371-2.233,4.867-5.213,7.547a21.889,21.889,0,0,1-5.041,3.261c-.492.214-1.676.549-2.237.7a.132.132,0,0,1-.024.109c-.245.347-.5.683-.752,1.021-.118.157-.236.314-.355.47a10.3,10.3,0,0,1,1.471-.808h0l.131-.057.03-.013.049-.02c.129-.053.663-.239.706-.252.013,0,2.9-.327,3.168-.342l2.673-.151c.179-.013.662-.058.7-.064a13.742,13.742,0,0,0,1.867-.416,6.3,6.3,0,0,1,1.015-.259c.044,0,.071.011.079.033a.047.047,0,0,1,0,.017c-.028.313-3.2,2.311-6.035,2.9a14.916,14.916,0,0,1-4.33.155,17.384,17.384,0,0,1-1.737-.446q-.995,1.318-1.979,2.643a11.375,11.375,0,0,1,1.675-.734l.1-.034.049-.016.145-.046h0a7.03,7.03,0,0,1,1.659-.313h.007l.179-.006h.205c.061,0,.119,0,.178.008.343.021.706.047,1.076.074.595.043,1.209.091,1.8.137l.219.017c.508.04,5.5-.132,5.65-.157.042-.007.352-.052.43-.053.1,0,.16.014.168.056.057.323-3.9,2.356-7.193,2.645a14.917,14.917,0,0,1-4.793-.468,17.292,17.292,0,0,1-1.788-.791q-1.056,1.426-2.09,2.872a11.421,11.421,0,0,1,1.98-.657l.11-.025.052-.011a18.709,18.709,0,0,1,2.55-.128l.8.127c.155.025,1.4.233,1.559.26.081.013,1.373.233,1.521.258l.11.019,1.023.169c.25.04.477.076.677.1.05.008.1.015.145.021.23.033.416.056.542.066.374.028,1.457.03,1.562.026s.5-.025.594-.031c.185-.012.663-.048.732-.053.452-.033.725-.04.741.057.054.338-4.222,2.024-7.761,1.986a17.219,17.219,0,0,1-5.125-.966,21.443,21.443,0,0,1-1.951-1.024c-.362.51-.725,1.021-1.08,1.537q-.9,1.291-1.768,2.6a12.646,12.646,0,0,1,2.334-.864l.124-.031.06-.015a18.711,18.711,0,0,1,2.2-.266c.073,0,.378.018.448.025h.02c.071.007.985.129,1.39.186l1.675.242.208.031c.025,0,7.712.4,7.776.392s.377,0,.421.005a.276.276,0,0,1,.039.011.125.125,0,0,1,.03.015.073.073,0,0,1,.029.043c.074.385-4.7,2.434-8.706,2.487a19.353,19.353,0,0,1-5.833-.967,25,25,0,0,1-2.3-1.153q-1.418,2.129-2.777,4.3c.531-.273,5.12-1.622,7.469-1.356.1.012,2.605.424,2.67.435l2.364.39,1.434.221.769.1c.09.009,5.093-.482,5.1-.123.014.508-6.02,3.224-10.759,3.3a19.032,19.032,0,0,1-6.7-1.261,22.961,22.961,0,0,1-2.479-1.5q-.425.68-.844,1.364-1.1,1.788-2.149,3.6c.656-.322,3.647-1.306,3.647-1.306a9.155,9.155,0,0,1,2.646-.243s.483.054.569.069c.008,0,4.077.986,4.186,1.013l2.057.516c.521.129,3.345.678,3.6.694a39.1,39.1,0,0,0,4.063-.132c.033,0,.064,0,.095,0a.761.761,0,0,1,.212.034c.069.024.1.063.1.119-.066.636-6.982,3.695-12.085,3.531a17.042,17.042,0,0,1-6.992-1.952,20.675,20.675,0,0,1-2.332-1.935q-1.406,2.429-2.736,4.9-.117.218-.233.435a13.034,13.034,0,0,1,2.357-.665l.126-.023.059-.009a16.167,16.167,0,0,1,2.354-.05l.018,0c.066.01.8.183,1,.235l1.732.461c.116.032,4.073,1.067,4.108,1.074.072.015,4.123.016,4.1.307-.028.413-5.074,2.132-8.883,1.82a15.278,15.278,0,0,1-5.282-1.556,17.728,17.728,0,0,1-1.816-1.364c-1.48,2.769-2.915,5.562-4.484,8.285a60.546,60.546,0,0,1-4.41,6.739C11781.7,5095.453,11781.832,5095.07,11782.319,5094.6Z"/>
        <g id="Group_481" data-name="Group 481">
          <path id="Path_822" data-name="Path 822" class="cls-4" d="M11792.066,5101.392a15.57,15.57,0,0,0,5.8,3.031c4.8-.927,10.188-3.681,15.266-7.416a23.1,23.1,0,0,1-5.808-2.573,16.438,16.438,0,0,0,8.928.123c.227-.189.449-.382.673-.574a17.067,17.067,0,0,1-6.394-4.624,27.651,27.651,0,0,0,9.178,2.086c4.781-4.614,8.78-9.875,10.978-14.844-.1,0-.153,0-.153,0a20.9,20.9,0,0,1-7.783-2.112,14.563,14.563,0,0,0,8.886-.377c1.075-3.335,1.22-6.457.088-9.055-4.405-3.068-11-2.51-17.854.177a13.45,13.45,0,0,0-3.954,6.859,9.471,9.471,0,0,1-.331-4.926,60.7,60.7,0,0,0-9.348,5.934,15.537,15.537,0,0,0-.82,6.547,23.871,23.871,0,0,1-.88-5.193,59.117,59.117,0,0,0-4.78,4.392,12.75,12.75,0,0,0,.99,6.436,8.659,8.659,0,0,1-3.186-4.025c-6.079,7.119-9.006,14.83-4.95,20.159,2.2,2.546,5.276,3.515,8.8,3.311A24.175,24.175,0,0,1,11792.066,5101.392Z"/>
          <path id="Path_823" data-name="Path 823" class="cls-2" d="M11780.172,5107.982a109.79,109.79,0,0,1,11.6-12.272c4.115-3.819,8.394-7.444,12.765-10.946s8.83-6.891,13.366-10.171,9.146-6.456,13.873-9.446c-4.652,3.106-9.177,6.4-13.626,9.779s-8.814,6.878-13.086,10.478-8.442,7.316-12.434,11.208a108.425,108.425,0,0,0-11.131,12.371Z"/>
        </g>
        <g id="Group_482" data-name="Group 482">
          <path id="Path_824" data-name="Path 824" class="cls-3" d="M11788.216,5128.085a9.514,9.514,0,0,0-.21,4,24.6,24.6,0,0,0,8,6.6,14.1,14.1,0,0,1-.046-3.882,10.041,10.041,0,0,0,2.2,4.994c.163.077.326.152.49.228a10.424,10.424,0,0,1,.943-4.73,16.916,16.916,0,0,0,1.175,5.632,30.533,30.533,0,0,0,11.042,2.327c-.026-.051-.041-.084-.041-.084a12.788,12.788,0,0,1-.8-4.863,8.9,8.9,0,0,0,2.469,4.844,7.828,7.828,0,0,0,5.056-2.253c.585-3.23-1.4-6.751-4.638-9.881a8.227,8.227,0,0,0-4.818-.454,5.8,5.8,0,0,1,2.654-1.436,37.188,37.188,0,0,0-5.676-3.687,9.5,9.5,0,0,0-3.848,1.209,14.642,14.642,0,0,1,2.663-1.81,36.219,36.219,0,0,0-3.657-1.54,7.794,7.794,0,0,0-3.325,2.187,5.292,5.292,0,0,1,1.428-2.795c-5.5-1.569-10.533-1.234-12.464,2.375a6.271,6.271,0,0,0,.4,5.735A14.8,14.8,0,0,1,11788.216,5128.085Z"/>
          <path id="Path_825" data-name="Path 825" class="cls-4" d="M11781.528,5123.149a67.161,67.161,0,0,1,9.771,3.327c3.168,1.316,6.271,2.773,9.329,4.312s6.076,3.156,9.052,4.843,5.914,3.442,8.778,5.31c-2.91-1.8-5.889-3.475-8.9-5.088s-6.063-3.15-9.151-4.609-6.213-2.833-9.392-4.062a66.34,66.34,0,0,0-9.706-3.042Z"/>
        </g>
      </g>
      <g id="Group_486" data-name="Group 486">
        <path id="Path_826" data-name="Path 826" class="cls-3" d="M11732.877,5094.415v0a68.269,68.269,0,0,0-8.029,3.808c-2.3,1.258-4.558,2.586-6.832,3.887a17.353,17.353,0,0,1,1.207,1.872,11.769,11.769,0,0,1,1.582,5.135c.014,3.81-.654,6.45-.887,6.123-.429-.6-2.717-6.408-2.583-8.932a27.646,27.646,0,0,1,.355-4.012q-.831.472-1.662.937-1.261.7-2.531,1.382a20.539,20.539,0,0,1,1.705,2.457,17.234,17.234,0,0,1,1.385,7.125c-.229,5.094-3.771,11.727-4.4,11.742-.056,0-.091-.036-.109-.106-.133-.493.523-2.649.42-5.128-.024-.573-1.045-6.733-1.057-6.8-.118-.728-.381-2.578-.385-2.666v-.024a19.529,19.529,0,0,1,.511-3.133l.026-.079.056-.167a17.8,17.8,0,0,1,1.361-2.961q-2.61,1.389-5.268,2.691a23.13,23.13,0,0,1,1.289,2.616,18.733,18.733,0,0,1,.644,6.771c-.525,4.7-3.825,10.444-4.336,10.384-.169-.02-.068-.5.1-1.276a44.1,44.1,0,0,0,.485-4.422l0-.055c-.01-.217-.21-3.172-.241-3.59l-.011-.157c-.093-1.259-.262-4.187-.259-4.27,0-.007.015-.283.015-.286a9.693,9.693,0,0,1,.606-2.585l.025-.069c.02-.049.038-.1.058-.148a16.051,16.051,0,0,1,1.442-2.821c-.216.106-.432.212-.647.316q-1.935.936-3.893,1.824a23.07,23.07,0,0,1,.607,2.377,19.8,19.8,0,0,1-.265,5.956c-.878,3.95-3.852,8.279-4.211,8.132a.048.048,0,0,1-.02-.014.083.083,0,0,1-.015-.024.19.19,0,0,1-.012-.073,1.407,1.407,0,0,1,.059-.328c.022-.085.051-.182.083-.289.065-.215,1.092-6.407,1.1-6.583s.085-1.368.112-1.787l.018-.28.009-.14a29.884,29.884,0,0,1,.936-4.69l.026-.055c.018-.04.036-.079.056-.118a13.273,13.273,0,0,1,1.156-1.922q-1.951.88-3.919,1.716a22.582,22.582,0,0,1,.14,2.271,18.124,18.124,0,0,1-1.2,5.165c-1.4,3.326-4.653,6.679-4.936,6.5-.2-.128,2.278-6.436,2.311-6.564.016-.063.28-1.11.385-1.526l.021-.081c.138-.546.276-1.084.409-1.581.017-.062.1-.324.117-.384l.007-.017c.021-.062.044-.123.066-.184a17.711,17.711,0,0,1,.957-1.751l.031-.043c.021-.032.045-.064.066-.095a12.09,12.09,0,0,1,1.415-1.62c-.332.14-.663.28-1,.418q-1.834.76-3.68,1.479a20.327,20.327,0,0,1-.166,2.185,18.562,18.562,0,0,1-1.91,4.935c-1.859,3.182-5.6,6.4-5.857,6.234-.063-.041.306-.623.347-.683.021-.031,2.231-4.02,2.736-5.261l.089-.221c.423-1.039.886-2.181,1.3-3.158.025-.06.084-.19.086-.195.027-.058.057-.116.085-.173l.007-.016a20.047,20.047,0,0,1,1.294-1.852l.038-.043.081-.09a14.354,14.354,0,0,1,1.694-1.593l-.933.36c-1.16.442-2.331.9-3.511,1.288-.092.368-.4,1.57-.587,2.047a21.062,21.062,0,0,1-2.6,4.465c-2.189,2.775-5.915,5.278-6.092,5.07-.048-.055.1-.237.359-.529.32-.359.815-.884,1.341-1.542.188-.235,2.107-3.24,2.312-3.579.53-.88,1.828-2.98,1.831-2.984.037-.053.115-.159.117-.161a9.715,9.715,0,0,1,1.328-1.42l.04-.035.085-.074a13.761,13.761,0,0,1,1.537-1.15c-.256.082-.513.161-.769.236l.019.006c-.265.187-2.521,1.315-2.521,1.316l-.184.07-.044.017-.066.024c-.181.066-2.1.528-2.146.533s-1.549.081-2.108.1c-.373.013-7.71.542-8.409.716a8.931,8.931,0,0,1-1.411.311c-.061,0-.1-.016-.109-.046a.047.047,0,0,1,0-.021c.046-.41,4.479-2.936,8.428-3.622a21.853,21.853,0,0,1,6-.083c.53.08,1.712.426,2.269.593a.133.133,0,0,1,.08-.078c.391-.164.783-.316,1.179-.466l.552-.21a10.069,10.069,0,0,1-1.676-.1h0l-.141-.022-.034,0-.051-.009c-.137-.023-.689-.149-.732-.161-.013,0-2.627-1.263-2.864-1.395-.178-.1-2.306-1.272-2.345-1.293-.159-.084-.592-.3-.63-.32a13.828,13.828,0,0,0-1.8-.641,6.189,6.189,0,0,1-1-.319c-.037-.024-.054-.047-.05-.07a.035.035,0,0,1,.008-.015c.19-.25,3.934-.259,6.651.755a14.927,14.927,0,0,1,3.75,2.17,17.6,17.6,0,0,1,1.233,1.3q1.544-.588,3.082-1.186a11.353,11.353,0,0,1-1.809-.269l-.105-.025-.049-.013-.147-.038h0a7.091,7.091,0,0,1-1.571-.616l-.007,0c-.053-.029-.1-.059-.154-.089l-.014-.008c-.051-.031-.1-.061-.147-.093l-.013-.009c-.05-.032-.1-.066-.146-.1-.278-.2-.572-.415-.873-.635-.479-.353-.975-.72-1.447-1.071l-.178-.131c-.409-.3-4.728-2.812-4.87-2.871-.039-.016-.323-.142-.392-.183-.087-.052-.128-.1-.111-.137.123-.3,4.551.075,7.5,1.584a14.9,14.9,0,0,1,3.813,2.944,16.7,16.7,0,0,1,1.094,1.62q1.652-.647,3.3-1.321a11.544,11.544,0,0,1-2.025-.5l-.107-.037-.05-.018a18.77,18.77,0,0,1-2.227-1.247c-.112-.1-.549-.479-.607-.532-.119-.1-1.062-.94-1.184-1.048l-1.15-1.027-.084-.075-.777-.688c-.188-.166-.363-.318-.517-.449l-.111-.094c-.178-.151-.323-.269-.424-.344-.3-.223-1.219-.8-1.31-.852s-.437-.245-.519-.289c-.163-.089-.588-.312-.649-.345-.4-.213-.635-.351-.6-.442.133-.315,4.651.53,7.629,2.443a17.261,17.261,0,0,1,3.827,3.542,21.227,21.227,0,0,1,1.108,1.9q.867-.358,1.732-.727,1.444-.618,2.879-1.264a12.566,12.566,0,0,1-2.436-.509c-.041-.012-.082-.025-.123-.039l-.058-.019a18.575,18.575,0,0,1-2-.942c-.06-.039-.31-.216-.365-.259l-.016-.011c-.058-.044-.767-.633-1.079-.9l-1.29-1.1-.158-.136c-.021-.017-6.322-4.436-6.378-4.466s-.323-.2-.355-.228a.383.383,0,0,1-.027-.03.145.145,0,0,1-.017-.029.067.067,0,0,1,0-.051c.142-.366,5.276.437,8.7,2.52a19.434,19.434,0,0,1,4.426,3.92,24.762,24.762,0,0,1,1.339,2.2q2.332-1.05,4.637-2.165c-.595-.05-5.2-1.347-7.046-2.821-.08-.064-1.981-1.744-2.031-1.787-.078-.07-1.727-1.528-1.8-1.588s-1.068-.926-1.1-.949c-.052-.044-.563-.463-.6-.491-.072-.056-4.57-2.3-4.388-2.608.26-.438,6.813.468,10.869,2.919a18.991,18.991,0,0,1,5.006,4.63,22.743,22.743,0,0,1,1.3,2.588c.48-.234.961-.468,1.439-.706q1.878-.933,3.734-1.908c-.728-.075-3.784-.832-3.784-.832a9.148,9.148,0,0,1-2.37-1.2s-.38-.3-.445-.361l-3.007-3.082c-.155-.163-1.425-1.487-1.467-1.53-.373-.387-2.473-2.354-2.682-2.5a38.7,38.7,0,0,0-3.513-2.047l-.079-.054a.73.73,0,0,1-.16-.142c-.045-.057-.054-.107-.02-.152.4-.5,7.88.582,12.114,3.433a17.043,17.043,0,0,1,4.886,5.372,20.7,20.7,0,0,1,.946,2.878q2.481-1.311,4.921-2.694l.429-.244a13.047,13.047,0,0,1-2.35-.689l-.119-.049-.055-.023a16.172,16.172,0,0,1-2.021-1.208l-.014-.012c-.05-.044-.578-.58-.72-.73l-1.223-1.312c-.081-.087-2.883-3.068-2.91-3.093-.053-.051-3.483-2.2-3.312-2.442.243-.335,5.431.892,8.491,3.181a15.249,15.249,0,0,1,3.646,4.126,17.89,17.89,0,0,1,.813,2.12c2.726-1.558,5.425-3.162,8.2-4.634a60.523,60.523,0,0,1,7.317-3.364C11733.854,5094.021,11733.54,5094.276,11732.877,5094.415Z"/>
        <g id="Group_484" data-name="Group 484">
          <path id="Path_827" data-name="Path 827" class="cls-4" d="M11728.042,5104.387a15.572,15.572,0,0,0,2.352-6.11c-1.467-4.66-4.815-9.7-9.1-14.324a23.07,23.07,0,0,1-1.9,6.063,16.439,16.439,0,0,0-.892-8.884c-.214-.2-.43-.4-.646-.6a17.058,17.058,0,0,1-3.867,6.878,27.678,27.678,0,0,0,1.029-9.356c-5.129-4.226-10.809-7.6-16-9.219.015.094.021.152.021.152a20.921,20.921,0,0,1-1.214,7.973,14.566,14.566,0,0,0-1.384-8.787c-3.437-.688-6.555-.477-9.006.942-2.549,4.727-1.245,11.21,2.2,17.72a13.457,13.457,0,0,0,7.266,3.149,9.486,9.486,0,0,1-4.857.888,60.793,60.793,0,0,0,6.958,8.614,15.552,15.552,0,0,0,6.6.07,23.945,23.945,0,0,1-5.06,1.465,59.193,59.193,0,0,0,4.906,4.25,12.76,12.76,0,0,0,6.282-1.716,8.659,8.659,0,0,1-3.638,3.624c7.765,5.23,15.759,7.26,20.593,2.625,2.278-2.474,2.892-5.641,2.289-9.121A24.238,24.238,0,0,1,11728.042,5104.387Z"/>
          <path id="Path_828" data-name="Path 828" class="cls-2" d="M11735.941,5115.456a109.916,109.916,0,0,1-13.512-10.128c-4.261-3.655-8.349-7.493-12.326-11.438s-7.849-7.99-11.623-12.123-7.453-8.353-10.963-12.71c3.616,4.269,7.4,8.39,11.266,12.427s7.835,7.975,11.9,11.809,8.229,7.557,12.548,11.08a108.589,108.589,0,0,0,13.556,9.653Z"/>
        </g>
        <g id="Group_485" data-name="Group 485">
          <path id="Path_829" data-name="Path 829" class="cls-3" d="M11718.289,5121.486a9.514,9.514,0,0,0-2.663-2.988,24.608,24.608,0,0,0-10.331.941,14.09,14.09,0,0,1,2.764,2.727,10.044,10.044,0,0,0-5.076-2c-.171.059-.341.121-.51.182a10.43,10.43,0,0,1,2.656,4.026,16.9,16.9,0,0,0-4.8-3.176,30.539,30.539,0,0,0-9.485,6.114c.057.018.089.031.089.031a12.793,12.793,0,0,1,3.993,2.89,8.9,8.9,0,0,0-5.162-1.706,7.825,7.825,0,0,0-2.008,5.159c1.857,2.707,5.745,3.812,10.247,3.758a8.224,8.224,0,0,0,3.744-3.067,5.8,5.8,0,0,1-.876,2.888,37.233,37.233,0,0,0,6.627-1.372,9.5,9.5,0,0,0,1.884-3.567,14.58,14.58,0,0,1-.619,3.16,35.942,35.942,0,0,0,3.683-1.478,7.792,7.792,0,0,0,.825-3.894,5.3,5.3,0,0,1,.951,2.99c5.015-2.756,8.354-6.533,7.188-10.456a6.274,6.274,0,0,0-4.318-3.8A14.791,14.791,0,0,1,11718.289,5121.486Z"/>
          <path id="Path_830" data-name="Path 830" class="cls-4" d="M11726.514,5120.289a67.126,67.126,0,0,1-9.283,4.51c-3.179,1.294-6.408,2.442-9.664,3.5s-6.538,2.032-9.841,2.927-6.624,1.714-9.973,2.4c3.331-.771,6.629-1.674,9.9-2.646s6.525-2.028,9.746-3.163,6.408-2.358,9.531-3.72a66.448,66.448,0,0,0,9.038-4.667Z"/>
        </g>
      </g>
      <g id="Group_510" data-name="Group 510">
        <path id="Path_831" data-name="Path 831" class="cls-5" d="M11697.933,5155.541c-.173,2.4,23.74,6.25,53.4,8.594s53.844,2.293,54.012-.107-23.735-6.25-53.4-8.594S11698.1,5153.136,11697.933,5155.541Z"/>
        <g id="Group_488" data-name="Group 488">
          <path id="Path_832" data-name="Path 832" class="cls-6" d="M11721.393,5157.522l60.372,6.554h5.937c4.522,0,8.188-4.211,8.188-9.405V4999.547c0-5.194-3.666-9.4-8.188-9.4h-5.937l-60.372,6.554a8.454,8.454,0,0,0-8.189,8.7v143.434A8.454,8.454,0,0,0,11721.393,5157.522Z"/>
          <rect id="Rectangle_133" data-name="Rectangle 133" class="cls-6" width="20.77" height="5.291" transform="translate(11795.891 5010.999) rotate(180)"/>
          <rect id="Rectangle_134" data-name="Rectangle 134" class="cls-6" width="20.77" height="5.291" transform="translate(11795.891 5149.74) rotate(180)"/>
          <path id="Path_833" data-name="Path 833" class="cls-6" d="M11721.393,4996.7l60.372-6.554h5.937c4.522,0,8.188,4.211,8.188,9.4v1.767h-6.256l-76.288,2.491A8.339,8.339,0,0,1,11721.393,4996.7Z"/>
          <path id="Path_834" data-name="Path 834" class="cls-6" d="M11795.89,5154.671c0,5.194-3.666,9.405-8.188,9.405h-5.937l-60.372-6.554c-3.8,0-6.993-.381-7.914-4.114l82.411-.224Z"/>
          <g id="Group_487" data-name="Group 487">
            <path id="Path_835" data-name="Path 835" class="cls-7" d="M11715.457,5157.522l66.308,6.554c4.523,0,8.19-4.211,8.19-9.405V4999.547c0-5.194-3.667-9.4-8.19-9.4l-66.308,6.554a8.454,8.454,0,0,0-8.189,8.7v143.434A8.454,8.454,0,0,0,11715.457,5157.522Z"/>
            <path id="Path_836" data-name="Path 836" class="cls-8" d="M11707.268,5005.392a8.454,8.454,0,0,1,8.189-8.7l66.308-6.554c4.523,0,8.19,4.211,8.19,9.4v9.33l-82.687,5.142Z"/>
            <path id="Path_837" data-name="Path 837" class="cls-8" d="M11789.955,5154.671c0,5.194-3.667,9.405-8.19,9.405l-66.308-6.554a8.454,8.454,0,0,1-8.189-8.7V5140.2l82.688,5.141Z"/>
            <path id="Path_838" data-name="Path 838" class="cls-9" d="M11733.784,5005.436c.039,0,.077,0,.117-.006l25.107-2.393a1.209,1.209,0,0,0-.229-2.406l-25.109,2.393a1.209,1.209,0,0,0,.113,2.412Z"/>
            <path id="Path_839" data-name="Path 839" class="cls-9" d="M11729.418,5004.657a1.169,1.169,0,1,0,1.169-1.17A1.17,1.17,0,0,0,11729.418,5004.657Z"/>
          </g>
        </g>
        <g id="Group_509" data-name="Group 509">
          <g id="Group_508" data-name="Group 508" class="cls-10">
            <g id="Group_507" data-name="Group 507">
              <g id="Group_494" data-name="Group 494">
                <path id="Path_840" data-name="Path 840" class="cls-11" d="M11709.785,5070.121c.007,4.373-3.09,14.631-6.945,14.3-4.836-.414-4.4-1.555-2.475-2.877,1.446-.994,5.106-8.093,4.393-12.392C11705.906,5067.8,11709.785,5070.121,11709.785,5070.121Z"/>
                <path id="Path_841" data-name="Path 841" class="cls-12" d="M11710.512,5069.916c.008,4.373-3.441,14.66-7.31,14.564-5.034-.124-4.243-1.85-2.476-2.877,1.519-.881,5.412-7.642,4.8-12.325C11706.674,5067.924,11710.512,5069.916,11710.512,5069.916Z"/>
                <path id="Path_842" data-name="Path 842" class="cls-13" d="M11705.262,5072.994a10.786,10.786,0,0,0,.265-3.716c1.147-1.354,4.985.638,4.985.638a24,24,0,0,1-1.507,7.19A9.532,9.532,0,0,0,11705.262,5072.994Z"/>
                <g id="Group_489" data-name="Group 489">
                  <path id="Path_843" data-name="Path 843" class="cls-14" d="M11704.711,5073.257c.078.011.2.041.2.041s-.57,2.094-.945,3.111C11702.009,5076.143,11701.828,5076.1,11704.711,5073.257Z"/>
                  <path id="Path_844" data-name="Path 844" class="cls-15" d="M11704.909,5073.3a18.816,18.816,0,0,1-.945,3.111C11702.548,5076.142,11702.026,5076.145,11704.909,5073.3Z"/>
                </g>
                <path id="Path_845" data-name="Path 845" class="cls-16" d="M11719.765,5058.893a7.618,7.618,0,0,1,.8,4.526,8.741,8.741,0,0,1-2.8,6.1,6.285,6.285,0,0,0,4.108-5.142A5.615,5.615,0,0,0,11719.765,5058.893Z"/>
                <path id="Path_846" data-name="Path 846" class="cls-17" d="M11674.261,5075.67c2.187-1.619,8.4-6.235,16.666-5.964s21.443,1.477,22.787,1.455,6.2-1,6.852-7.742c.489-5.083-2.848-7.061-4.649-7.485-2.2-.519-15.276-3.573-19.76-4.691a28.517,28.517,0,0,1-16.728-11.208C11679.727,5048.116,11680.171,5063.029,11674.261,5075.67Z"/>
                <path id="Path_847" data-name="Path 847" class="cls-18" d="M11696.156,5051.243a28.517,28.517,0,0,1-16.728-11.208c.075,2.037.16,4.508.149,7.267a102.2,102.2,0,0,0,17.818,4.247C11696.934,5051.436,11696.517,5051.333,11696.156,5051.243Z"/>
                <g id="Group_490" data-name="Group 490">
                  <path id="Path_848" data-name="Path 848" class="cls-19" d="M11719.967,5059.542l.543.158.217.336s-.627-.164-.637-.165Z"/>
                  <path id="Path_849" data-name="Path 849" class="cls-19" d="M11720.229,5060.39l.886.263.191.421s-.945-.251-.956-.251Z"/>
                  <path id="Path_850" data-name="Path 850" class="cls-19" d="M11720.4,5061.423l1.03.306.151.481s-1.029-.283-1.04-.283Z"/>
                  <path id="Path_851" data-name="Path 851" class="cls-19" d="M11720.427,5062.678l1.251.262-.028.49s-1.282-.224-1.293-.224Z"/>
                  <path id="Path_852" data-name="Path 852" class="cls-19" d="M11720.344,5063.94l1.262.215-.075.527s-1.319-.2-1.33-.2Z"/>
                  <path id="Path_853" data-name="Path 853" class="cls-19" d="M11720.087,5065.215l1.294.183-.167.444s-1.287-.15-1.3-.15Z"/>
                </g>
                <g id="Group_491" data-name="Group 491">
                  <path id="Path_854" data-name="Path 854" class="cls-20" d="M11720.543,5059.988l.184.048-.217-.336-.543-.158.02.05.371.108Z"/>
                  <path id="Path_855" data-name="Path 855" class="cls-20" d="M11720.242,5060.439l.718.213.172.376.174.046-.191-.421-.886-.263Z"/>
                  <path id="Path_856" data-name="Path 856" class="cls-20" d="M11720.412,5061.472l.863.257.137.435.168.046-.151-.481-1.03-.306Z"/>
                  <path id="Path_857" data-name="Path 857" class="cls-20" d="M11720.427,5062.678l0,.031,1.1.23-.028.465.152.026.028-.49Z"/>
                  <path id="Path_858" data-name="Path 858" class="cls-20" d="M11720.338,5063.964l1.114.191-.072.5.15.023.075-.527-1.262-.215Z"/>
                  <path id="Path_859" data-name="Path 859" class="cls-20" d="M11720.08,5065.235l1.146.162-.159.428.146.017.167-.444-1.294-.183Z"/>
                </g>
                <path id="Path_860" data-name="Path 860" class="cls-16" d="M11705.942,5061.117c.36-5.162-1.362-7.264-3.026-8.244l-.411-.1c1.714.937,3.569,3,3.2,8.342-.388,5.543-3.332,8.185-5.832,9.069l.2.014C11702.582,5069.328,11705.553,5066.687,11705.942,5061.117Z"/>
                <path id="Path_861" data-name="Path 861" class="cls-20" d="M11717.329,5063.512c.594-4.912-1.741-7.011-3.2-8-2.593-.608-7.156-1.679-11.215-2.642,1.664.98,3.387,3.082,3.026,8.244-.39,5.57-3.36,8.211-5.868,9.083,4.6.309,9.063.669,11.6.848A8.794,8.794,0,0,0,11717.329,5063.512Z"/>
                <path id="Path_862" data-name="Path 862" class="cls-16" d="M11717.653,5063.513c.571-4.732-1.574-6.853-3.034-7.884l-.488-.114c1.457.986,3.792,3.085,3.2,8a8.794,8.794,0,0,1-5.652,7.536l.281.019A8.8,8.8,0,0,0,11717.653,5063.513Z"/>
                <path id="Path_863" data-name="Path 863" class="cls-20" d="M11715.916,5055.933l-1.3-.3c1.46,1.031,3.605,3.152,3.034,7.884a8.8,8.8,0,0,1-5.7,7.554c.9.062,1.516.1,1.756.094,1.343-.023,6.2-1,6.852-7.742C11721.055,5058.336,11717.718,5056.358,11715.916,5055.933Z"/>
                <path id="Path_864" data-name="Path 864" class="cls-13" d="M11678.208,5063.067a53.135,53.135,0,0,1-3.947,12.6c2.187-1.619,8.4-6.235,16.666-5.964s21.443,1.477,22.787,1.455a6.891,6.891,0,0,0,5.216-2.921C11709.683,5067.026,11687.982,5064.294,11678.208,5063.067Z"/>
                <ellipse id="Ellipse_198" data-name="Ellipse 198" class="cls-21" cx="25.414" cy="7.873" rx="25.414" ry="7.873" transform="translate(11660.595 5080.758) rotate(-82.915)"/>
                <path id="Path_865" data-name="Path 865" class="cls-17" d="M11676.14,5057.227c-1.415,11.382-4.484,18.542-6.186,20.071-4.262.805-5.4-9.953-3.989-21.335s4.706-20.623,9.132-19.859C11676.249,5038.158,11677.555,5045.845,11676.14,5057.227Z"/>
                <path id="Path_866" data-name="Path 866" class="cls-13" d="M11672,5037.287a3.5,3.5,0,0,1,3.1-1.183c1.152,2.054,2.458,9.741,1.043,21.123s-4.484,18.542-6.186,20.071c-1.837.347-3.094-1.455-3.816-4.529C11675.308,5069.258,11679.413,5047.111,11672,5037.287Z"/>
                <g id="Group_493" data-name="Group 493">
                  <g id="Group_492" data-name="Group 492" class="cls-22">
                    <path id="Path_867" data-name="Path 867" class="cls-23" d="M11675.526,5062.5s-3.034-.669-4.409-1.137-1.732-.859-1.879-1.607.046-4.637.527-5.533a2.207,2.207,0,0,1,1.963-1.16c.72-.057,4.024.089,4.981.167A22.717,22.717,0,0,1,11675.526,5062.5Z"/>
                    <path id="Path_868" data-name="Path 868" class="cls-24" d="M11670.93,5057.075c-.245,1.746-.907,3.1-1.48,3.015s-.839-1.56-.594-3.306.906-3.1,1.479-3.016S11671.174,5055.329,11670.93,5057.075Z"/>
                    <path id="Path_869" data-name="Path 869" class="cls-25" d="M11670.718,5057.045c-.215,1.533-.759,2.724-1.215,2.66s-.652-1.359-.437-2.891.759-2.724,1.215-2.66S11670.933,5055.512,11670.718,5057.045Z"/>
                    <path id="Path_870" data-name="Path 870" class="cls-26" d="M11669.829,5056.816a5.828,5.828,0,0,1,.761-2.361c-.082-.176-.186-.284-.309-.3-.456-.064-1,1.127-1.215,2.66s-.02,2.827.437,2.891c.147.02.3-.09.454-.3A5.357,5.357,0,0,1,11669.829,5056.816Z"/>
                  </g>
                </g>
                <path id="Path_872" data-name="Path 872" class="cls-27" d="M11702.916,5052.873c4.059.963,8.622,2.034,11.215,2.642a7.093,7.093,0,0,1,2.694,3.211l-11.225-2.154A5.85,5.85,0,0,0,11702.916,5052.873Z"/>
                <path id="Path_873" data-name="Path 873" class="cls-27" d="M11714.619,5055.629l1.3.3a6.16,6.16,0,0,1,4.068,3.4l-2.81-.539A7.013,7.013,0,0,0,11714.619,5055.629Z"/>
                <path id="Path_874" data-name="Path 874" class="cls-28" d="M11670.564,5076.6c-.351.462-1.635,2-2.7,2.174-1.256.2-.974-1.347,1.1-1.8C11669.659,5076.814,11670.564,5076.6,11670.564,5076.6Z"/>
                <path id="Path_875" data-name="Path 875" class="cls-20" d="M11674.676,5031.29l-.062-.007c.038.042.076.085.113.129,3.958,1.386,5.814,12.714,4.155,26.067s-6.233,23.883-10.411,24.257c4.3.42,9.16-10.4,10.882-24.256C11681.085,5043.552,11678.991,5031.826,11674.676,5031.29Z"/>
                <path id="Path_876" data-name="Path 876" class="cls-28" d="M11675.566,5037.234c-.182-.55-.893-2.426-1.844-2.936-1.122-.6-1.359.956.449,2.062C11674.781,5036.732,11675.566,5037.234,11675.566,5037.234Z"/>
              </g>
              <rect id="Rectangle_135" data-name="Rectangle 135" class="cls-29" width="6.365" height="3.081" rx="1.541" transform="matrix(-0.911, -0.413, 0.413, -0.911, 11707.462, 5076.115)"/>
              <rect id="Rectangle_136" data-name="Rectangle 136" class="cls-29" width="6.365" height="3.081" rx="1.541" transform="translate(11706.35 5078.651) rotate(-159.156)"/>
              <rect id="Rectangle_137" data-name="Rectangle 137" class="cls-29" width="6.365" height="3.081" rx="1.541" transform="translate(11704.99 5081.44) rotate(-157.513)"/>
              <rect id="Rectangle_138" data-name="Rectangle 138" class="cls-29" width="6.365" height="3.081" rx="1.541" transform="translate(11703.961 5084.012) rotate(-161.041)"/>
              <path id="Path_877" data-name="Path 877" class="cls-30" d="M11706.972,5087.007l.479-1.814s5.3-5.478,4.452-8.518-4.283-1.826-6.21-1.6-1.229,2.4,1.431,3.244c-2.874-.051-5.167,3.452-5.822,6.022a5.576,5.576,0,0,0,.5,3.528C11702.509,5089.671,11706.972,5087.007,11706.972,5087.007Z"/>
              <g id="Group_506" data-name="Group 506">
                <path id="Path_878" data-name="Path 878" class="cls-31" d="M11731.24,5068.3s-9-9.908-9.2-23.52c-.222-14.77,8.714-20.967,19.942-21.135,9.645-.145,14.551,1.492,17.722,7.466,2.438.61,3.354,2.6,4.2,4.329,3.488,7.126,2.3,14.406-.5,21.065C11759.049,5066.829,11749.484,5068.74,11731.24,5068.3Z"/>
                <g id="Group_496" data-name="Group 496">
                  <g id="Group_495" data-name="Group 495">
                    <path id="Path_879" data-name="Path 879" class="cls-32" d="M11719.951,5231.833s6.1-2.94,7.174-5.073a4.631,4.631,0,0,1,4.325,3.37s4.622.8,6.959-1.922l.564,8.733-27.722-.014C11712.014,5234.916,11712.623,5232.74,11719.951,5231.833Z"/>
                    <path id="Path_880" data-name="Path 880" class="cls-32" d="M11738.408,5228.2a4.411,4.411,0,0,1-1.6,1.243,27,27,0,0,1-3.984,7.493l6.154,0Z"/>
                    <path id="Path_881" data-name="Path 881" class="cls-33" d="M11738.974,5236.941l.146,2.012-28.012-.014a3.547,3.547,0,0,1,.145-2.012Z"/>
                  </g>
                </g>
                <g id="Group_499" data-name="Group 499">
                  <g id="Group_497" data-name="Group 497">
                    <path id="Path_882" data-name="Path 882" class="cls-32" d="M11752.972,5235.526l1.369-5.328a5.588,5.588,0,0,1,10.487,0l.977,5.954Z"/>
                  </g>
                  <g id="Group_498" data-name="Group 498">
                    <path id="Path_883" data-name="Path 883" class="cls-34" d="M11752.45,5237.007a2.573,2.573,0,0,0,.4,1.877h12.748a4.156,4.156,0,0,0,.415-1.908Z"/>
                    <path id="Path_884" data-name="Path 884" class="cls-32" d="M11766.01,5236.9c-.067-1.159-2.5-4.685-6.576-4.685-5.215,0-6.411,2.955-6.892,4.484a1.793,1.793,0,0,0-.092.345l13.563-.011C11766.013,5236.99,11766.013,5236.947,11766.01,5236.9Z"/>
                  </g>
                </g>
                <g id="Group_501" data-name="Group 501">
                  <g id="Group_500" data-name="Group 500">
                    <path id="Path_885" data-name="Path 885" class="cls-35" d="M11707.973,5100.307l.622-14.234-8.967-.305s-2,23.072,1.011,25.488c3.652,2.926,7.5,2.643,11.065-.153,7.86-6.165,17.323-17.781,20.283-25.747.953-2.565-3.553-7.776-5.723-6.111-3.281,2.519-5.556,6.294-9.295,10.72C11713.359,5094.238,11709.957,5098.094,11707.973,5100.307Z"/>
                  </g>
                </g>
                <path id="Path_886" data-name="Path 886" class="cls-36" d="M11725.136,5136.081l-.5,92.355s7.226,3.628,14.037.795l2.6-76.874,2.012-.095,9.836,76.978s5.2,2.339,12.881-.493l-7.795-92.666Z"/>
                <path id="Path_887" data-name="Path 887" class="cls-37" d="M11758.214,5136.081h-33.15v12.9a74.068,74.068,0,0,0,16.125,4.5l.074-1.11,2.021-.1.227,1.583a121.98,121.98,0,0,0,16.151,1.31Z"/>
                <g id="Group_502" data-name="Group 502">
                  <path id="Path_888" data-name="Path 888" class="cls-30" d="M11739.652,5074.125l-.168,6.129,10.152.279.22-7.973A19.966,19.966,0,0,1,11739.652,5074.125Z"/>
                  <path id="Path_889" data-name="Path 889" class="cls-38" d="M11749.856,5072.56l.169-6.142-10.153-.279-.22,7.986A19.966,19.966,0,0,0,11749.856,5072.56Z"/>
                </g>
                <path id="Path_890" data-name="Path 890" class="cls-30" d="M11743.839,5081.641c6.01,0,7.451-3.334,7.658-4.376a39.536,39.536,0,0,0-13.748-.5C11737.628,5077.98,11737.936,5081.641,11743.839,5081.641Z"/>
                <path id="Path_891" data-name="Path 891" class="cls-39" d="M11765.019,5081.756a54.049,54.049,0,0,0-12.827-4.693c-.306-.066-.606-.129-.905-.19-.208,1.043-1.333,4.232-7.344,4.232-5.9,0-6.092-3.393-5.972-4.6-.437.059-.881.122-1.34.195-3.206.5-7.171,1.056-10.366,2.548,0,0-4.3,19.329-2.408,63.341,0,0,14.3,5.144,37.265.765,0,0-2.16-30.824.822-42.878C11761.943,5100.473,11764.075,5089.332,11765.019,5081.756Z"/>
                <path id="Path_892" data-name="Path 892" class="cls-35" d="M11762.659,5097.136c-4.087,21.917-19.122,34.965-39.254,29.829.083,5.311.216,9.874.451,16.159,0,0,14.3,5.144,37.265.765,0,0-2.16-30.824.822-42.877C11761.943,5101.012,11762.239,5099.467,11762.659,5097.136Z"/>
                <path id="Path_893" data-name="Path 893" class="cls-30" d="M11724.159,5046c0,12.728-1.239,16.959.8,20.656,1.921,3.481,7.618,8.277,20.93,4.947,9.535-2.385,11.935-9.714,11.935-9.714a4.94,4.94,0,0,0,2.92.531,3.646,3.646,0,0,0,3.023-3.951c-.233-3.364-1.786-4.379-3.078-4.736-2.307-.638-3.86,1.55-3.86,1.55a67.95,67.95,0,0,0-.547-8.4c-.545-3.56-1.146-7.295-17.972-8.326-4.156-.255-9.785-.357-12.014.706C11724.236,5040.247,11724.159,5042.578,11724.159,5046Z"/>
                <g id="Group_503" data-name="Group 503">
                  <path id="Path_894" data-name="Path 894" class="cls-40" d="M11734.55,5055.73c-3.456-1.52-5.918.776-2,2.828"/>
                </g>
                <path id="Path_895" data-name="Path 895" class="cls-41" d="M11742.515,5062.012c2.238,2.651-.144,10.318-6.987,2.241C11741.067,5064.038,11742.515,5062.012,11742.515,5062.012Z"/>
                <g id="Group_504" data-name="Group 504">
                  <path id="Path_896" data-name="Path 896" class="cls-42" d="M11736.316,5048.147c-.394,1.5-1.8,5.864,2.439,6.754s3.869-4.42,3.869-4.42A56.227,56.227,0,0,0,11736.316,5048.147Z"/>
                  <path id="Path_897" data-name="Path 897" class="cls-31" d="M11737.275,5047.988c4.874.953,7.327,3.243,4.207,2.83S11734.061,5047.36,11737.275,5047.988Z"/>
                  <path id="Path_898" data-name="Path 898" class="cls-43" d="M11736.531,5054.775c.76-1.7,2.605-1.421,3.168.345"/>
                </g>
                <g id="Group_505" data-name="Group 505">
                  <path id="Path_899" data-name="Path 899" class="cls-44" d="M11731.113,5047.987c.409,1.153,1.788,5.33-1.493,6.312s-3.4-4.4-3.4-4.4S11729.62,5048.464,11731.113,5047.987Z"/>
                  <path id="Path_900" data-name="Path 900" class="cls-31" d="M11730.285,5047.872c-3.626.657-5.845,2.979-2.553,2.163S11732.177,5047.529,11730.285,5047.872Z"/>
                  <path id="Path_901" data-name="Path 901" class="cls-43" d="M11728.479,5054.145c.57-2.1,2.815-1.81,3.085-.169"/>
                </g>
                <path id="Path_902" data-name="Path 902" class="cls-31" d="M11757.075,5042.75c-1.843,1.816-6.707,2.774-10.542,2.774-17.626,0-21.237-4.946-21.8-5.517l2.666-6.6a25.683,25.683,0,0,1,29.681,9.344Z"/>
                <path id="Path_903" data-name="Path 903" class="cls-45" d="M11739.744,5067.653c2.536.882,3.733-1.4,3.569-3.495A3.849,3.849,0,0,0,11739.744,5067.653Z"/>
              </g>
              <path id="Path_904" data-name="Path 904" class="cls-46" d="M11767.294,5141.678c-.094.313-3.73,3.8-4.7,4.728a2.526,2.526,0,0,0-.406.507l-2.667,4.4a.524.524,0,0,0-.027.489h0a.521.521,0,0,0,.839.153l2.747-2.705a.27.27,0,0,1,.451.261l-.825,3.133-1.114,5.5a.589.589,0,0,0,.385.674l.039.014a.59.59,0,0,0,.749-.363l2.133-6.131s-1.269,5.848-1.343,6.16.564.156.66-.071l2.288-5.382s-1.9,4.735-1.965,4.9c-.114.28.439.212.439.212a.582.582,0,0,0,.376-.285l2.573-4.592s-1.464,3.429-1.654,3.856.452.25.452.25a.584.584,0,0,0,.339-.273l2.352-4.147a1.075,1.075,0,0,0,.139-.514l.13-9.947Z"/>
              <path id="Path_905" data-name="Path 905" class="cls-39" d="M11757.217,5089.044c-1.269-5.556,4.079-8.666,7.261-7.548,1.576.554,2.369,1.8,3.055,3.871a272.088,272.088,0,0,1,8.385,31.329c.884,4.428-4.7,27.573-4.7,27.573l-7.655-1.9s1.372-25.108,1.179-25.813C11762.831,5109.628,11758.294,5093.764,11757.217,5089.044Z"/>
            </g>
          </g>
        </g>
        <path id="Path_907" data-name="Path 907" class="cls-31" d="M11722.834,5024.5c-4.458,7.48-1.727,15.906,8.544,19s18.906.636,17.542-5.726-7.089-6.183-16.724-6.635A9.923,9.923,0,0,1,11722.834,5024.5Z"/>
        <path id="Path_908" data-name="Path 908" class="cls-31" d="M11759.031,5031.784s.427-5.792,2.56-7.194a21.631,21.631,0,0,0-1.829,5.67s2.562-2.073,4.877-2.195C11764.274,5029.467,11759.031,5031.784,11759.031,5031.784Z"/>
        <ellipse id="Ellipse_199" data-name="Ellipse 199" class="cls-9" cx="5.722" cy="6.387" rx="5.722" ry="6.387" transform="translate(11739.703 5144.932)"/>
      </g>
      <g id="Group_511" data-name="Group 511">
        <path id="Path_909" data-name="Path 909" class="cls-47" d="M11820.683,5028.837a3.66,3.66,0,1,1-3.659-3.66A3.66,3.66,0,0,1,11820.683,5028.837Z"/>
        <circle id="Ellipse_200" data-name="Ellipse 200" class="cls-47" cx="0.796" cy="0.796" r="0.796" transform="translate(11834.049 5025.018)"/>
        <path id="Path_910" data-name="Path 910" class="cls-47" d="M11837.247,5092.357a.86.86,0,1,1-.86-.861A.86.86,0,0,1,11837.247,5092.357Z"/>
        <path id="Path_911" data-name="Path 911" class="cls-47" d="M11693.269,5036.429a2.294,2.294,0,1,1-2.294-2.294A2.294,2.294,0,0,1,11693.269,5036.429Z"/>
        <path id="Path_912" data-name="Path 912" class="cls-47" d="M11667.17,5103.542a1.434,1.434,0,1,1-1.434-1.434A1.434,1.434,0,0,1,11667.17,5103.542Z"/>
        <circle id="Ellipse_201" data-name="Ellipse 201" class="cls-47" cx="4.098" cy="4.098" r="4.098" transform="translate(11468.746 4969.207)"/>
        <circle id="Ellipse_202" data-name="Ellipse 202" class="cls-47" cx="2.049" cy="2.049" r="2.049" transform="translate(11643.337 4960.191)"/>
        <circle id="Ellipse_203" data-name="Ellipse 203" class="cls-47" cx="2.459" cy="2.459" r="2.459" transform="translate(11393.336 5088.88)"/>
        <circle id="Ellipse_204" data-name="Ellipse 204" class="cls-47" cx="1.23" cy="1.23" r="1.23" transform="translate(11489.648 5045.027)"/>
        <circle id="Ellipse_205" data-name="Ellipse 205" class="cls-47" cx="1.23" cy="1.23" r="1.23" transform="translate(11576.943 5125.355)"/>
      </g>
    </g>
    <path id="Path_913" data-name="Path 913" class="cls-48" d="M11422.6,5083.536c16.717,4.236,33.144,12.33,50.421,14a69.718,69.718,0,0,0,37.484-6.921c13.366-6.644,25.812-17.921,40.706-16.959,14,.9,24.721,12.386,37.445,18.3,10.88,5.054,24.382,5.742,34.475-.741,8.614-5.532,13.507-15.2,20.479-22.7s12.934-11.3,25.842-8.42c0,0,.949.052,1.48-3.015s-.595-3.307-.595-3.307c-7.527-3.693-12.149-10.148-15.208-19.633-4.749-14.72-4.323-20.468-8.234-29.635-2.393-5.609-5.354-11.251-10.251-14.886-7.307-5.426-17.332-5.257-26.272-3.555-14.157,2.694-27.5,8.57-41.442,12.226s-29.327,4.925-42.3-1.351c-8.879-4.294-15.924-11.791-24.877-15.927-9.824-4.538-21.212-4.64-31.827-2.535s-20.684,6.282-30.812,10.088q-5.328,2-10.7,3.873C11420.44,4995.678,11406.876,5082.1,11422.6,5083.536Z"/>
    <g id="Group_519" data-name="Group 519">
      <path id="Path_914" data-name="Path 914" class="cls-30" d="M11453.261,5057.753c1.137.827.612,2.266-.055,3.34-1.711,2.755-13.087,12.866-13.087,12.866l-3.372-5.072s9.134-9.536,10.339-10.86C11448.2,5056.81,11451.533,5056.494,11453.261,5057.753Z"/>
      <g id="Group_513" data-name="Group 513">
        <path id="Path_915" data-name="Path 915" class="cls-30" d="M11433.213,5092.4c-.032.248,2.007,4.153,2.007,4.153l.027,3.918-.494.448-1.3-3.421-.446,2.761-.87,3.96-.732-.058.4-4.666-.869,4.276-.341-.132.084-4.137-.144,3.742-.44-.346-.311-3.63-.039,3.108-.452-.4-.313-3.468,2.4-6.408Z"/>
        <path id="Path_916" data-name="Path 916" class="cls-30" d="M11438.5,5068.73c1.6.789,2.481,3.1,1.941,5.284l-6.659,20.68-2.932.208s2.1-10.894,3.817-19.669C11435.755,5069.688,11436.562,5067.772,11438.5,5068.73Z"/>
      </g>
      <path id="Path_917" data-name="Path 917" class="cls-30" d="M11463.215,5061.591c1.234-.67,2.31.42,2.993,1.484,1.754,2.728,4.974,16.542,4.974,16.542l-5,1.668s-4.692-12.341-5.37-14C11460.189,5065.763,11461.336,5062.612,11463.215,5061.591Z"/>
      <g id="Group_514" data-name="Group 514">
        <path id="Path_918" data-name="Path 918" class="cls-30" d="M11476.67,5096.366c.138.209,4.231,1.84,4.231,1.84l2.575,2.952-.083.662-3.214-1.749,1.463,2.385,1.924,3.569-.594.434-2.74-3.8,2.13,3.81-.345.121-2.634-3.191,2.331,2.93-.559.025-2.6-2.549,2,2.382-.6-.011-2.5-2.423-2.358-6.425Z"/>
        <path id="Path_919" data-name="Path 919" class="cls-30" d="M11467.333,5078.013c1.7-1.068,2.881-.5,3.9,1.508l7.093,19.059-1.81,1.22s-3.872-6.209-8.295-13.979C11465.422,5080.91,11465.5,5079.166,11467.333,5078.013Z"/>
      </g>
      <path id="Path_920" data-name="Path 920" class="cls-49" d="M11463.259,5054.962c-.92-.452-6.477,8.621-5.948,10.265a125.872,125.872,0,0,0,5.345,12.007l8.062-3.4s-2.8-8.923-3.406-11.29C11466.617,5059.85,11465.511,5056.066,11463.259,5054.962Z"/>
      <path id="Path_921" data-name="Path 921" class="cls-50" d="M11412.016,5132.8a4.493,4.493,0,0,0-.781,1.5,2,2,0,0,0-.007,1.39c0,.018.421.044.423.062-2.187,3.068-6.628,10.262-7.6,11.772-.011.016-.006-.015.009-.073-.511.754-1.512,2.775-1.512,2.775s-1.163-.227-1.19-.557a51.588,51.588,0,0,1,2.456-9.278c2.151-4.859,4.23-9.258,4.23-9.258l1.775.746C11410.279,5131.975,11411.23,5132.491,11412.016,5132.8Z"/>
      <path id="Path_922" data-name="Path 922" class="cls-5" d="M11399.629,5161.264c.02,1.848,18.56,3.295,41.4,3.229s41.347-1.62,41.324-3.467-18.555-3.295-41.4-3.229S11399.608,5159.413,11399.629,5161.264Z"/>
      <path id="Path_923" data-name="Path 923" class="cls-50" d="M11468.637,5158.593a5.359,5.359,0,0,0,2.924-1.3,2.451,2.451,0,0,0,.553-.788c3.115-.2,10.541-1.64,12.077-1.9.019,0-.006.013-.053.04,1.955-.358,3.464-.642,3.464-.642s.754.9.479,1.032c-.434.207-4.1,2.57-4.5,2.712-4.567,1.556-13.6,4.749-13.6,4.749l-.856-1.862A5.7,5.7,0,0,1,11468.637,5158.593Z"/>
      <path id="Path_924" data-name="Path 924" class="cls-51" d="M11460.909,5130.649c-3.542-7.968-15.568-39.555-15.568-39.555-.126-4.982,14.188.893,14.188.893s5.755,27.7,7.044,34.377S11461.836,5132.736,11460.909,5130.649Z"/>
      <path id="Path_925" data-name="Path 925" class="cls-51" d="M11442.165,5125.6l12.04-25.488s3.109-10.628-7.529-11.779c-3.948.836-4.8,7.783-5.437,9.086l-6.85,26.144C11435.558,5125.362,11440.533,5126.452,11442.165,5125.6Z"/>
      <path id="Path_926" data-name="Path 926" class="cls-51" d="M11474.088,5155.938l-7.871-31.972c-1.517-4.517-3.774-5.865-6.574-3.822-1.772,1.294-.175,6.189,1.783,12.321,2.532,7.929,6.725,25.333,6.725,25.333C11470.7,5157.82,11472.944,5157.4,11474.088,5155.938Z"/>
      <path id="Path_927" data-name="Path 927" class="cls-51" d="M11410.155,5131.648l28.65-12.557c1.471.174,3.087.234,3.226.458.7,1.137,1.193,1.932,1.06,3.084-.444,3.84-1.529,3.745-3.955,4.751l-27.592,10.137C11411.361,5137.358,11408.517,5134.025,11410.155,5131.648Z"/>
      <path id="Path_928" data-name="Path 928" class="cls-18" d="M11453.04,5052.858c2.3-.642,5.043.218,7.369.641s3.044,1.523,4.1,3.214c.778,1.245,1.4,4.229.549,10.023s-2.548,26.35-3.095,28.837c-4.021,4.021-18.93,1.872-22.328-1.8,5.271-20.386,4.862-27.289,7.524-33.484C11449.158,5055.639,11450.091,5053.679,11453.04,5052.858Z"/>
      <path id="Path_929" data-name="Path 929" class="cls-49" d="M11454.359,5054.969c-1.908-2.438-5.06-1.754-8.059.912-3.544,3.15-8.674,9.944-8.674,9.944l5.12,6.695s8.179-7.265,9.946-9.032S11456.267,5057.406,11454.359,5054.969Z"/>
      <path id="Path_930" data-name="Path 930" class="cls-52" d="M11461.4,5054.926l.9-6.468-5.988-2.167-1.335,7.256C11456.006,5054.955,11459.452,5056.659,11461.4,5054.926Z"/>
      <g id="Group_518" data-name="Group 518">
        <path id="Path_931" data-name="Path 931" class="cls-9" d="M11472.476,5025.284c1.159,2.362-1.047,8.134-1.047,8.134s-8.542-1.357-11.292-1.265-4.774,6.979-7.035,12.8c-2.749,2.285-8.276-4.538-5.723-12.5-.757,1.3-1.521,1.307-1.521,1.307s-1.011-2.9,2.416-5.209a6.694,6.694,0,0,1-2.442.625,4.011,4.011,0,0,1,3.2-1.622c.516-3.365.969-4.361,2.186-5.284a10.307,10.307,0,0,1-.367,2.6s1.359-2.911,6.549-4.01,6.034-.263,6.034-.263a5.061,5.061,0,0,1-2.745.779C11465.426,5021.579,11469.022,5022.476,11472.476,5025.284Z"/>
        <path id="Path_932" data-name="Path 932" class="cls-30" d="M11471.882,5037.643c-1.523,7.5-1.3,10.136-2.946,12.069-1.547,1.82-5.487,3.985-12.918.407-3.584-1.725-3.786-6.747-3.786-6.747a2.969,2.969,0,0,1-1.784-.037,2.191,2.191,0,0,1-1.309-2.689c.541-1.953,1.577-2.365,2.381-2.421a2.312,2.312,0,0,1,2.088,1.375,41.124,41.124,0,0,1,1.328-4.882c.747-2.031,1.521-4.761,9.5-3.154,2.453.494,5.806.961,6.99,1.854C11472.526,5034.245,11472.292,5035.627,11471.882,5037.643Z"/>
        <path id="Path_933" data-name="Path 933" class="cls-9" d="M11475.572,5024.148a6.393,6.393,0,0,0-5.23-1.43,1.391,1.391,0,0,1,.235,1.969c-1.957,2.687-4.9,1.013-7.367.454a8.831,8.831,0,0,0-7.358,1.687,9.81,9.81,0,0,0-2.971,4.308c.31-.105.62-.2.938-.284,2.259-.584,4.429.311,7.942,2.533,3.778,2.39,8.723,3.346,12.738,1.059C11478.409,5032.217,11479.378,5027.389,11475.572,5024.148Z"/>
        <path id="Path_934" data-name="Path 934" class="cls-9" d="M11453.764,5037.453c-1.157,2.167-.829,4.73.077,5.76C11455.044,5041.091,11453.764,5037.453,11453.764,5037.453Z"/>
        <g id="Group_515" data-name="Group 515">
          <path id="Path_935" data-name="Path 935" class="cls-53" d="M11464.939,5041.429c2.247-.577,3.366,1.032.77,1.882"/>
        </g>
        <g id="Group_516" data-name="Group 516">
          <path id="Path_936" data-name="Path 936" class="cls-54" d="M11465.079,5036.216c.016.934.128,4.189-2.493,4.314s-1.531-3.519-1.531-3.519A34.477,34.477,0,0,1,11465.079,5036.216Z"/>
          <path id="Path_937" data-name="Path 937" class="cls-9" d="M11464.571,5036.039c-3,.1-4.771,1.236-2.877,1.288S11466.549,5035.972,11464.571,5036.039Z"/>
        </g>
        <g id="Group_517" data-name="Group 517">
          <path id="Path_938" data-name="Path 938" class="cls-55" d="M11467.967,5036.681c-.405.65-1.135,3.533.653,4.436s2.186-4.133,2.186-4.133A7.674,7.674,0,0,1,11467.967,5036.681Z"/>
          <path id="Path_939" data-name="Path 939" class="cls-9" d="M11468.314,5036.383c2.228-.129,3.773.922,1.729.91S11467.151,5036.45,11468.314,5036.383Z"/>
        </g>
        <path id="Path_940" data-name="Path 940" class="cls-56" d="M11459.334,5044.682c-.692,1.474.095,3.481,1.171,3.758,1.667.431,1.4-1.379,3.074-1.951A11.647,11.647,0,0,1,11459.334,5044.682Z"/>
        <path id="Path_941" data-name="Path 941" class="cls-56" d="M11469.591,5039.914c-.045.336-.193.6-.333.594s-.215-.287-.169-.622.194-.6.333-.594S11469.636,5039.578,11469.591,5039.914Z"/>
        <path id="Path_942" data-name="Path 942" class="cls-56" d="M11463.607,5039.619c-.012.336-.134.614-.273.62s-.244-.26-.234-.6.134-.614.273-.621S11463.618,5039.283,11463.607,5039.619Z"/>
      </g>
      <rect id="Rectangle_139" data-name="Rectangle 139" class="cls-57" width="8.296" height="3.92" rx="1.54" transform="translate(11475.585 5156.646) rotate(159.589)"/>
      <path id="Rectangle_140" data-name="Rectangle 140" class="cls-57" d="M1.541,0H6.756A1.541,1.541,0,0,1,8.3,1.541v.839a1.54,1.54,0,0,1-1.54,1.54H1.541A1.541,1.541,0,0,1,0,2.379V1.541A1.541,1.541,0,0,1,1.541,0Z" transform="translate(11410.374 5138.556) rotate(-101.019)"/>
    </g>
    <g id="Group_521" data-name="Group 521">
      <path id="Path_943" data-name="Path 943" class="cls-58" d="M11546.891,5072.068c-1.458,1.146-.925,4.082.022,6.39l7.128,16.432,1.823-2.759-4.822-16.769S11549.094,5070.336,11546.891,5072.068Z"/>
      <path id="Path_944" data-name="Path 944" class="cls-59" d="M11520.159,5088.39c-.015.25,2.3,4,2.3,4l.312,3.906-.462.482-1.539-3.319-.245,2.787-.581,4.012-.735,0,.062-4.683-.56,4.328-.348-.108-.216-4.132.128,3.743-.466-.313-.571-3.6.185,3.1-.479-.368-.564-3.436,1.934-6.566Z"/>
      <path id="Path_945" data-name="Path 945" class="cls-59" d="M11523.412,5069.262c1.705.52,2.278,1.792,1.287,4.073-4.37,10.071-4.659,16.675-4.659,16.675l-2.053,1.044a147.181,147.181,0,0,1,.518-14.831C11519.235,5070.62,11520.436,5068.353,11523.412,5069.262Z"/>
      <path id="Path_946" data-name="Path 946" class="cls-60" d="M11551.562,5038.111c.781,6.267-1.652,17.246-2.945,20.637-3.638-1.759-6.677-6.134-6.677-6.134l2.955-11.561Z"/>
      <path id="Path_947" data-name="Path 947" class="cls-61" d="M11550.633,5052.8c-.9-.489-4.271,1.8-4.118,3.515.1,1.151.754,17.345.754,17.345l4.37,2.241s1.969-14.118,2.105-16.558C11553.935,5055.964,11552.577,5053.86,11550.633,5052.8Z"/>
      <path id="Path_948" data-name="Path 948" class="cls-5" d="M11492.276,5161.264c.018,1.848,18.559,3.295,41.4,3.229s41.347-1.62,41.324-3.467-18.555-3.295-41.4-3.229S11492.254,5159.413,11492.276,5161.264Z"/>
      <path id="Path_949" data-name="Path 949" class="cls-58" d="M11499.263,5132.543a4.464,4.464,0,0,0-.78,1.5,2,2,0,0,0-.008,1.39c0,.018,0,.037,0,.056-2.185,3.067-5.045,6.791-6.019,8.3-.012.017-.007-.015.009-.073-.511.754-1.513,2.775-1.513,2.775s-1.162-.227-1.189-.557a17.083,17.083,0,0,1,1.291-5.8c2.151-4.858,4.231-9.257,4.231-9.257l1.773.746C11497.526,5131.721,11498.478,5132.238,11499.263,5132.543Z"/>
      <path id="Path_950" data-name="Path 950" class="cls-58" d="M11548.178,5128.877l-16.2-38.036c-.125-4.831,14.09.865,14.09.865l6.994,33.324C11553.9,5136.493,11550.413,5129.868,11548.178,5128.877Z"/>
      <path id="Path_951" data-name="Path 951" class="cls-58" d="M11528.292,5125.632l12.486-26.054s3.087-10.3-7.478-11.418c-3.92.81-4.767,7.544-5.4,8.808l-7.233,28.871C11521.83,5127.588,11526.672,5126.463,11528.292,5125.632Z"/>
      <path id="Path_952" data-name="Path 952" class="cls-58" d="M11546.295,5120.689c1.282-2.609,4.938-1.347,6.289,2.216l8.06,34.54-3.764.817s-8.55-22.962-9.6-27.414S11545.014,5123.3,11546.295,5120.689Z"/>
      <path id="Path_953" data-name="Path 953" class="cls-58" d="M11497.49,5135.171a4.924,4.924,0,0,1,.523-2.872l24.617-10.848c1.459.169,5.1-1.553,5.239-1.336.691,1.1,1.185,1.872,1.052,2.99-.441,3.722-1.518,3.63-3.927,4.6l-27.192,8.476A2.048,2.048,0,0,1,11497.49,5135.171Z"/>
      <path id="Path_954" data-name="Path 954" class="cls-58" d="M11556.5,5157a5.356,5.356,0,0,0,2.924-1.3,2.459,2.459,0,0,0,.552-.787c3.116-.2,7.439-.506,8.976-.764.018,0-.006.013-.053.04,1.954-.358,3.465-.642,3.465-.642s.753.9.479,1.032c-.435.207-4.1,2.57-4.5,2.712-4.566,1.556-10.5,3.614-10.5,3.614l-.854-1.862A5.7,5.7,0,0,1,11556.5,5157Z"/>
      <path id="Path_955" data-name="Path 955" class="cls-62" d="M11495.308,5130.862l1.775.746a2.232,2.232,0,0,1,.289.091,23.922,23.922,0,0,0-2.68,4.455c-1.462,2.544-2.767,5.048-2.329,7.744-.533.858-1.388,2.58-1.388,2.58s-1.162-.228-1.188-.558a17.061,17.061,0,0,1,1.29-5.8C11493.229,5135.261,11495.308,5130.862,11495.308,5130.862Z"/>
      <path id="Path_956" data-name="Path 956" class="cls-62" d="M11556.828,5158.638c1.808-.315,3.6-.74,5.372-1.221,2.483-.674,5.31-1.393,7.046-3.321,1.785-.329,3.119-.58,3.119-.58s.754.9.479,1.032c-.435.207-4.1,2.571-4.5,2.713-4.565,1.555-10.494,3.614-10.494,3.614l-.855-1.862A2.077,2.077,0,0,1,11556.828,5158.638Z"/>
      <path id="Path_957" data-name="Path 957" class="cls-63" d="M11534.731,5050.538l9.7-.542,6.449,2.954c.757,2.4,1.534,4.772,1.977,6.436s2.288,4.629,1.892,6.476a5.352,5.352,0,0,1-2.362,3.341c-.776,2.06-1.807,4.283-2.718,7.037-1.727,5.221-2.785,9.379-2.785,9.379l-9.464-.941c-.667.075-2.354.756-2.174-1.981.433-6.556-1.261-23.628-1.146-24.936C11534.568,5052.38,11533.944,5050.292,11534.731,5050.538Z"/>
      <path id="Path_958" data-name="Path 958" class="cls-64" d="M11543.647,5051.866a4.346,4.346,0,0,1-1.92-1.57l1.56-15.114,5.27.84-.14,16.042C11547.42,5053.192,11544.872,5052.425,11543.647,5051.866Z"/>
      <path id="Path_959" data-name="Path 959" class="cls-62" d="M11535.259,5079.1c5.709,3.783,12.9,1.985,12.9,1.985l5.6,38.3s-24.482.938-33.209-6.432c-.3-.257,2.774-17.3,9.288-27.919C11532.658,5080.435,11535.259,5079.1,11535.259,5079.1Z"/>
      <path id="Path_960" data-name="Path 960" class="cls-63" d="M11531.314,5053.361c-.574.78-8.771,11.047-11.7,15.5a7.815,7.815,0,0,0,6.359,2.68c2.709-2.877,8.877-8.58,11.972-11.547s2.263-8.974-.011-8.906C11535.895,5051.151,11533.7,5050.134,11531.314,5053.361Z"/>
      <path id="Path_961" data-name="Path 961" class="cls-64" d="M11549.8,5052.412a11.046,11.046,0,0,1-2.206,7.731c-4.035-2.144-8.258-9.945-8.258-9.945l5.408-.106Z"/>
      <path id="Path_962" data-name="Path 962" class="cls-65" d="M11543.14,5046.19c-.444-.622-.937-.72-1.259-1.388l2.561-12.569,5.132,1.527-1.791,12.785C11546.271,5047.424,11544.341,5047.865,11543.14,5046.19Z"/>
      <path id="Path_963" data-name="Path 963" class="cls-59" d="M11542.331,5047.5s10.665,2.746,12.437.131a5.329,5.329,0,0,0,.693-2.245c.065-.376.261-1.9.3-2.3.327-3.647.132-8.325-1.182-11.247-2.171-4.826-9.094-10.9-13.647-8.418S11527.878,5034.1,11542.331,5047.5Z"/>
      <path id="Path_964" data-name="Path 964" class="cls-59" d="M11553.2,5036.678l-.026-.01.153-.678a31.264,31.264,0,0,0,4.883,2.993c-2.487,3.345-5.892,1.239-5.756-2.366a1.944,1.944,0,0,1,.746.061C11553.383,5036.747,11553.352,5036.72,11553.2,5036.678Z"/>
      <path id="Path_965" data-name="Path 965" class="cls-66" d="M11549.746,5025.1s.7-2.084-3.689-2.681c-4.711-.641-9.055-.349-12.852,5.069-1.991,2.84-2.772,7.175-1.533,13.455.8,4.031-1.3,13.541-9.432,17.322-2.413,2.88,5.612,7.679,8.592,7.224.949-.145,5.295-2.027,8.486-10.827a24.046,24.046,0,0,1-3.194,10.261c-.348.577,3.411-.989,5.063-3.262,3.682-5.066,8.9-24.464,4.111-31.971C11543.61,5027.046,11549.746,5025.1,11549.746,5025.1Z"/>
      <path id="Path_966" data-name="Path 966" class="cls-66" d="M11542.8,5030.273c1.846,2.975,15.506,2.872,14.384-4.326-.968,4.118-3.635-2.3-9.884-3.265C11545.547,5022.412,11541.337,5027.921,11542.8,5030.273Z"/>
      <g id="Group_520" data-name="Group 520">
        <path id="Path_967" data-name="Path 967" class="cls-67" d="M11554.735,5034.429c.779,1.832.85,3.5-1.6,3.592s-1.438-3.031-1.438-3.031A20.606,20.606,0,0,1,11554.735,5034.429Z"/>
        <path id="Path_968" data-name="Path 968" class="cls-68" d="M11554.844,5037.016a.333.333,0,1,1-.219-.417A.333.333,0,0,1,11554.844,5037.016Z"/>
        <path id="Path_969" data-name="Path 969" class="cls-69" d="M11554.062,5034.385c-2.7.278-2.907.839-1.607.712C11554.225,5034.924,11555.9,5034.2,11554.062,5034.385Z"/>
      </g>
      <path id="Path_970" data-name="Path 970" class="cls-70" d="M11551.125,5042.789c-.112.392.331,2,2.13,1.018"/>
      <path id="Path_971" data-name="Path 971" class="cls-58" d="M11553.339,5092.01a35.608,35.608,0,0,1-.437,4.37l-.248,4.422.767.185,1.04-3.951,2.4,2.851,2.388,3.35.784-.416-2.219-4.254,3.073,3.653.311-.3-2.132-3.906,2.677,2.307.315-.547-2.024-2.55,1.35,1.323.163-.449-2.895-3.149-3.3-3.382Z"/>
    </g>
    <g id="Group_530" data-name="Group 530">
      <g id="Group_523" data-name="Group 523">
        <path id="Path_972" data-name="Path 972" class="cls-59" d="M11604.589,5055.513c1.147-1.586,3.155-.864,4.656.061,3.848,2.371,16.058,19.8,16.058,19.8l-5.112,3.1s-13.338-12.682-15.188-14.356C11603.3,5062.58,11602.842,5057.929,11604.589,5055.513Z"/>
        <path id="Path_973" data-name="Path 973" class="cls-71" d="M11611.243,5071.935c-2.229-2.125-5.863-6.6-6.485-7.161-1.861-1.684-2.361-6.77-.452-9.412a5.022,5.022,0,0,1,5.133-1.686c2.82,1.151,7.264,8.385,9.278,11.951A77.209,77.209,0,0,1,11611.243,5071.935Z"/>
        <g id="Group_522" data-name="Group 522">
          <path id="Path_974" data-name="Path 974" class="cls-59" d="M11637.758,5067.931c.243-.165,2.086-4.991,2.086-4.991l3.419-3.07.777.085-2,3.8,2.771-1.755,4.152-2.315.52.688-4.407,3.277,4.431-2.56.147.4-3.7,3.142,3.4-2.783.039.656-2.945,3.1,2.759-2.382,0,.709-2.8,2.972-7.251,2.95Z"/>
          <path id="Path_975" data-name="Path 975" class="cls-59" d="M11619.789,5077.795c-.383-1.952.956-4.523,3.293-5.747l17.244-6.09,1.46,2.1-13.821,9.512S11620.368,5080.745,11619.789,5077.795Z"/>
        </g>
      </g>
      <path id="Path_976" data-name="Path 976" class="cls-5" d="M11582.477,5160.145c.015,2.442,12.477,4.368,27.828,4.3s27.788-2.109,27.772-4.55-12.475-4.368-27.829-4.3S11582.461,5157.7,11582.477,5160.145Z"/>
      <path id="Path_977" data-name="Path 977" class="cls-72" d="M11624.332,5157.869s-8.242-3.477-10.216-4.362-4.919-1.711-5.92-.807-.763,3.6-.763,3.6,8.716,3.908,11.591,4.173c1.826.168,5.775-1.123,5.775-1.123Z"/>
      <path id="Path_978" data-name="Path 978" class="cls-73" d="M11615.476,5086.414l-2.221,66.567-5.093-.966-2.034-65.725C11607.255,5086.363,11614.8,5086.383,11615.476,5086.414Z"/>
      <path id="Path_979" data-name="Path 979" class="cls-74" d="M11614.354,5149.858s.022,1.8.011,3.352-6.939.043-6.939.043l-.462-3.282S11615.225,5149.465,11614.354,5149.858Z"/>
      <path id="Path_980" data-name="Path 980" class="cls-72" d="M11616.086,5161.842s-8.095-4.465-10.029-5.593-4.857-2.252-5.936-1.294-1.032,4.023-1.032,4.023,8.543,4.983,11.436,5.467c1.838.308,5.93-.9,5.93-.9Z"/>
      <path id="Path_981" data-name="Path 981" class="cls-75" d="M11610.214,5087.776l-4.915,66.175-5.073-1.068-3.26-64.117C11598.091,5088.862,11609.539,5087.732,11610.214,5087.776Z"/>
      <path id="Path_982" data-name="Path 982" class="cls-74" d="M11606.223,5152.2s-.018,2.043-.065,3.8-7.039-.092-7.039-.092l-.395-3.728S11607.116,5151.776,11606.223,5152.2Z"/>
      <path id="Path_983" data-name="Path 983" class="cls-76" d="M11603.511,5052a11.206,11.206,0,0,1,10.113,7.921c1.982,5.82,4.426,29.985,3.943,34.4a33.712,33.712,0,0,1-23.191-.016c1.989-21.67,1-26.534,1.13-35.056C11595.59,5053.771,11601.587,5051.883,11603.511,5052Z"/>
      <path id="Path_984" data-name="Path 984" class="cls-77" d="M11606.749,5051.66l.018,2.271a2.986,2.986,0,0,1-2.432,1.012,3.6,3.6,0,0,1-2.512-.78l-.127-2.592Z"/>
      <g id="Group_525" data-name="Group 525">
        <path id="Path_985" data-name="Path 985" class="cls-59" d="M11599.044,5058.147c1.377.281,1.5,1.808,1.337,3.062-.414,3.217-6.564,17.138-6.564,17.138l-5.174-3.215s4.352-12.467,4.9-14.172C11594.044,5059.393,11596.949,5057.719,11599.044,5058.147Z"/>
        <g id="Group_524" data-name="Group 524">
          <path id="Path_986" data-name="Path 986" class="cls-59" d="M11595.19,5097.993c.073.239,3.551,2.945,3.551,2.945l1.65,3.554-.264.612-2.6-2.574.739,2.7.854,3.964-.691.252-1.572-4.411.982,4.251-.364.021-1.641-3.8,1.423,3.464-.544-.132-1.79-3.173,1.254,2.844-.577-.179-1.726-3.024-.474-6.828Z"/>
          <path id="Path_987" data-name="Path 987" class="cls-59" d="M11590.175,5074.261c1.781.054,3.544,1.789,3.959,4l2.528,21.579-2.58,1.406s-2.61-10.784-4.693-19.48C11588.073,5076.273,11588.011,5074.195,11590.175,5074.261Z"/>
        </g>
        <path id="Path_988" data-name="Path 988" class="cls-71" d="M11598.887,5055.159c-2.747-1.426-5.33.5-6.952,4.174a98.445,98.445,0,0,0-3.688,10.6l8.253,4.4s3.536-8.4,4.41-10.737S11601.635,5056.584,11598.887,5055.159Z"/>
      </g>
      <g id="Group_529" data-name="Group 529">
        <path id="Path_989" data-name="Path 989" class="cls-6" d="M11612.7,5034.327c-3.263-.3-7.53-.619-10.114-.134s-3.5,7.285-4.791,13.109c-2.266,2.558-8.476-3.088-7.217-10.977-.526,1.34-1.247,1.455-1.247,1.455s-1.374-2.591,1.527-5.27a6.444,6.444,0,0,1-2.217.944,3.835,3.835,0,0,1,2.788-2c0-3.254.284-4.26,1.3-5.309a9.844,9.844,0,0,1,.028,2.51s1.733-5.559,8.786-4.725c7.363,1.338,12.521-.713,13.39-2.515-.31,3.977-1.987,5.344-1.987,5.344s5.157-2.486,4.971-8.015c2.112,9.133-.435,11-.435,11s2.733-2.175,3.293-3.666c.745,3.915-3.542,6.959-4.536,7.518a9.03,9.03,0,0,0,2.857-1.056S11618.744,5034.888,11612.7,5034.327Z"/>
        <path id="Path_990" data-name="Path 990" class="cls-59" d="M11614.477,5037.678c-.354,7.3.239,9.764-1.034,11.828-1.2,1.943-4.607,4.559-12.145,2.255-3.635-1.111-4.555-5.825-4.555-5.825a2.838,2.838,0,0,1-1.69.224,2.1,2.1,0,0,1-1.625-2.351c.229-1.923,1.147-2.462,1.9-2.631a2.209,2.209,0,0,1,2.172,1,39.073,39.073,0,0,1,.547-4.8c.412-2.027.748-4.717,8.521-4.355,2.389.111,5.623.067,6.871.739C11614.593,5034.375,11614.572,5035.715,11614.477,5037.678Z"/>
        <g id="Group_526" data-name="Group 526">
          <path id="Path_991" data-name="Path 991" class="cls-78" d="M11609.346,5041.7c2.024-.776,3.373.61,1.067,1.678"/>
        </g>
        <path id="Path_992" data-name="Path 992" class="cls-79" d="M11603.5,5046.353c-.241.516.54,2.72,3.947,1.48"/>
        <g id="Group_527" data-name="Group 527">
          <path id="Path_993" data-name="Path 993" class="cls-80" d="M11608.112,5037.251c.184.871.871,3.414-1.588,3.807s-2.1-2.643-2.1-2.643A32.434,32.434,0,0,1,11608.112,5037.251Z"/>
          <path id="Path_994" data-name="Path 994" class="cls-6" d="M11607.566,5037.134c-2.822.411-4.294,1.656-2.492,1.506S11609.428,5036.863,11607.566,5037.134Z"/>
          <path id="Path_995" data-name="Path 995" class="cls-81" d="M11607.8,5041.048c-.389-1-1.455-.888-1.827.109"/>
        </g>
        <g id="Group_528" data-name="Group 528">
          <path id="Path_996" data-name="Path 996" class="cls-82" d="M11611.371,5037.221c-.143.688-.6,3.172,1.34,3.476s1.595-2.77,1.595-2.77S11612.258,5037.376,11611.371,5037.221Z"/>
          <path id="Path_997" data-name="Path 997" class="cls-6" d="M11611.834,5037.091c2.114.092,3.558,1.241,1.621,1.033S11610.73,5037.042,11611.834,5037.091Z"/>
          <path id="Path_998" data-name="Path 998" class="cls-81" d="M11613.349,5040.52c-.487-1.153-1.742-.811-1.768.144"/>
        </g>
        <path id="Path_999" data-name="Path 999" class="cls-6" d="M11597.335,5040.123c-.781,2.214-.1,4.588.907,5.43C11599.071,5043.374,11597.335,5040.123,11597.335,5040.123Z"/>
      </g>
      <path id="Path_1000" data-name="Path 1000" class="cls-6" d="M11598.139,5034.763a8.971,8.971,0,0,1,7.864-.109c4.655,2.1,8.329,1.438,8.192-1.141C11614.055,5030.866,11601.547,5030.443,11598.139,5034.763Z"/>
    </g>
    <g id="Group_531" data-name="Group 531">
      <rect id="Rectangle_141" data-name="Rectangle 141" class="cls-83" width="36.088" height="23.644" rx="2.064" transform="translate(11542.189 4991.396)"/>
      <path id="Path_1001" data-name="Path 1001" class="cls-83" d="M11557.964,5014.865l.732,4.663a.458.458,0,0,0,.8.224l4.109-4.886Z"/>
      <path id="Path_1002" data-name="Path 1002" class="cls-18" d="M11563.785,4996.845a4.145,4.145,0,0,1-7.1,0,4.144,4.144,0,0,0-4.145,4.144c0,5.329,7.7,8.6,7.7,8.6s7.7-3.9,7.7-8.6A4.144,4.144,0,0,0,11563.785,4996.845Z"/>
    </g>
    <g id="Group_532" data-name="Group 532">
      <rect id="Rectangle_142" data-name="Rectangle 142" class="cls-83" width="24.779" height="16.235" rx="1.417" transform="translate(11466.048 4997.633)"/>
      <path id="Path_1003" data-name="Path 1003" class="cls-83" d="M11476.88,5013.748l.5,3.2a.315.315,0,0,0,.552.153l2.821-3.354Z"/>
      <path id="Path_1004" data-name="Path 1004" class="cls-18" d="M11480.876,5001.374a2.845,2.845,0,0,1-4.878,0,2.845,2.845,0,0,0-2.846,2.846c0,3.659,5.284,5.907,5.284,5.907s5.285-2.679,5.285-5.907A2.845,2.845,0,0,0,11480.876,5001.374Z"/>
    </g>
    <g id="Group_533" data-name="Group 533">
      <rect id="Rectangle_143" data-name="Rectangle 143" class="cls-83" width="9.414" height="6.168" rx="0.538" transform="translate(11586.613 4970.552)"/>
      <path id="Path_1005" data-name="Path 1005" class="cls-83" d="M11590.729,4976.674l.191,1.216a.119.119,0,0,0,.209.059l1.072-1.275Z"/>
      <path id="Path_1006" data-name="Path 1006" class="cls-18" d="M11592.247,4971.973a1.082,1.082,0,0,1-1.854,0,1.08,1.08,0,0,0-1.08,1.081c0,1.39,2.007,2.244,2.007,2.244s2.008-1.017,2.008-2.244A1.081,1.081,0,0,0,11592.247,4971.973Z"/>
    </g>
    <g id="Group_535" data-name="Group 535">
      <rect id="Rectangle_144" data-name="Rectangle 144" class="cls-83" width="23.473" height="15.379" rx="1.342" transform="translate(11614.434 5000.865)"/>
      <path id="Path_1007" data-name="Path 1007" class="cls-83" d="M11624.694,5016.13l.477,3.032a.3.3,0,0,0,.522.146l2.672-3.178Z"/>
      <g id="Group_534" data-name="Group 534">
        <path id="Path_1008" data-name="Path 1008" class="cls-18" d="M11624.777,5008.172a2.892,2.892,0,0,1,.947-1.857,3.437,3.437,0,0,0,.891-1.8c0-.511-.228-1.231.341-1.553s1.592.094,1.668,1.307-.095,1.648-.285,1.914,0,.265.209.265h2.122a.929.929,0,0,1,.947.909,1.133,1.133,0,0,1-.266.72,1.067,1.067,0,0,1,.38.91.772.772,0,0,1-.531.8,1.082,1.082,0,0,1-.53,1.326,1.016,1.016,0,0,1-.947,1.232h-3.354c-.966,0-1.611-.379-1.611-.91S11624.777,5008.646,11624.777,5008.172Z"/>
        <path id="Rectangle_145" data-name="Rectangle 145" class="cls-18" d="M.19,0H2.108A.412.412,0,0,1,2.52.412V5.121a.412.412,0,0,1-.412.412H.189A.189.189,0,0,1,0,5.343V.19A.19.19,0,0,1,.19,0Z" transform="translate(11621.537 5007.263)"/>
      </g>
    </g>
    <g id="Group_537" data-name="Group 537">
      <rect id="Rectangle_146" data-name="Rectangle 146" class="cls-83" width="17.559" height="11.504" rx="1.004" transform="translate(11514.394 4963.955)"/>
      <path id="Path_1009" data-name="Path 1009" class="cls-83" d="M11522.069,4975.374l.356,2.269a.223.223,0,0,0,.392.109l2-2.377Z"/>
      <g id="Group_536" data-name="Group 536">
        <path id="Path_1010" data-name="Path 1010" class="cls-18" d="M11522.132,4969.422a2.165,2.165,0,0,1,.708-1.39,2.567,2.567,0,0,0,.667-1.346c0-.383-.171-.921.255-1.162s1.19.071,1.247.978-.07,1.233-.213,1.431,0,.2.156.2h1.588a.7.7,0,0,1,.708.68.85.85,0,0,1-.2.539.8.8,0,0,1,.283.68.576.576,0,0,1-.4.6.81.81,0,0,1-.4.992.76.76,0,0,1-.709.922h-2.509c-.724,0-1.205-.284-1.205-.681S11522.132,4969.776,11522.132,4969.422Z"/>
        <path id="Rectangle_147" data-name="Rectangle 147" class="cls-18" d="M.189,0H1.473a.412.412,0,0,1,.412.412V3.727a.412.412,0,0,1-.412.412H.189A.189.189,0,0,1,0,3.949V.189A.189.189,0,0,1,.189,0Z" transform="translate(11519.708 4968.741)"/>
      </g>
    </g>
  </g>
</svg>
