<svg xmlns="http://www.w3.org/2000/svg" width="27.096" height="27.087" viewBox="0 0 27.096 27.087">
  <defs>
    <style>
      .cls-1 {
        fill: #757575;
      }
    </style>
  </defs>
  <g id="Group_3171" data-name="Group 3171" transform="translate(-5407.066 -3556.338)">
    <g id="Group_3170" data-name="Group 3170">
      <path id="Path_3482" data-name="Path 3482" class="cls-1" d="M5420.624,3583.424a13.543,13.543,0,1,1,13.538-13.443A13.564,13.564,0,0,1,5420.624,3583.424Zm11.879-17.468h-23.771l-.607,3.319h24.994Zm.641,4.524H5408.12l.62,3.36h23.085a.8.8,0,0,0,.311-.009c.13-.059.317-.149.343-.258C5432.713,3572.567,5432.917,3571.554,5433.144,3570.48Zm-1.174-5.717a11.515,11.515,0,0,0-2.119-3.207.759.759,0,0,0-.508-.151q-8.725-.012-17.451,0a.76.76,0,0,0-.509.151,11.278,11.278,0,0,0-2.11,3.207Zm.058,10.4-.166-.148h-22.5l-.148.147c.723,1.011,1.434,2.03,2.18,3.024a.783.783,0,0,0,.559.171q8.67.014,17.34,0a.785.785,0,0,0,.558-.171C5430.593,3577.193,5431.305,3576.174,5432.028,3575.163Zm-3.611,4.376h-15.585A12.319,12.319,0,0,0,5428.417,3579.539Zm-15.592-19.32h15.568A12.358,12.358,0,0,0,5412.825,3560.219Z"/>
    </g>
  </g>
</svg>
