<svg xmlns="http://www.w3.org/2000/svg" width="26.575" height="32.76" viewBox="0 0 26.575 32.76">
  <defs>
    <style>
      .cls-1 {
        fill: #ff4a4a;
      }

      .cls-2 {
        fill: #e7343f;
      }
    </style>
  </defs>
  <g id="Group_3192" data-name="Group 3192" transform="translate(-4715.227 -3447.883)">
    <path id="Path_3487" data-name="Path 3487" class="cls-1" d="M4728.514,3447.883c-7.327,0-13.287,5.716-13.287,12.743,0,4.346,2.15,9.012,6.39,13.869a44.74,44.74,0,0,0,6.316,5.958.984.984,0,0,0,1.163,0,44.734,44.734,0,0,0,6.315-5.958c4.241-4.857,6.391-9.523,6.391-13.869C4741.8,3453.6,4735.841,3447.883,4728.514,3447.883Zm4.921,12.743a4.925,4.925,0,1,1-4.921-4.72A4.823,4.823,0,0,1,4733.435,3460.626Z"/>
    <path id="Path_3488" data-name="Path 3488" class="cls-2" d="M4728.514,3447.883a13.831,13.831,0,0,0-1.714.106,12.957,12.957,0,0,1,11.574,12.637c0,4.346-2.15,9.012-6.39,13.869a46.507,46.507,0,0,1-5.184,5.055c.664.553,1.087.868,1.133.9a.984.984,0,0,0,1.163,0,44.734,44.734,0,0,0,6.315-5.958c4.241-4.857,6.391-9.523,6.391-13.869C4741.8,3453.6,4735.841,3447.883,4728.514,3447.883Z"/>
  </g>
</svg>
