<svg xmlns="http://www.w3.org/2000/svg" width="27.096" height="27.065" viewBox="0 0 27.096 27.065">
  <defs>
    <style>
      .cls-1 {
        fill: #757575;
      }
    </style>
  </defs>
  <g id="Group_3167" data-name="Group 3167" transform="translate(-5398.066 -3432.653)">
    <g id="Group_3166" data-name="Group 3166">
      <path id="Path_3480" data-name="Path 3480" class="cls-1" d="M5411.625,3459.717a13.532,13.532,0,1,1,13.537-13.357A13.569,13.569,0,0,1,5411.625,3459.717Zm-.772-1.251.166-.122V3434l-.174-.094a17.4,17.4,0,0,0-1.169,1.646,16.063,16.063,0,0,0-1.616,5.364,34.345,34.345,0,0,0-.109,9.808,16.953,16.953,0,0,0,1.756,6.161A15.178,15.178,0,0,0,5410.853,3458.466Zm1.54-24.553-.152.114v24.548a6.276,6.276,0,0,0,.985-1.164,22.277,22.277,0,0,0,1.456-3.571,32.19,32.19,0,0,0,.477-13.181,14.9,14.9,0,0,0-1.665-5.281A14.711,14.711,0,0,0,5412.393,3433.913Zm2.065.532a31.06,31.06,0,0,1,0,23.466,7.832,7.832,0,0,0,2.785-2.423,14.463,14.463,0,0,0,2.783-7.6,16.213,16.213,0,0,0-2-9.842A8.982,8.982,0,0,0,5414.458,3434.445Zm-5.659,23.472a31.009,31.009,0,0,1,.006-23.468,8.268,8.268,0,0,0-3.1,2.85,15.85,15.85,0,0,0-2.483,10.518,14.342,14.342,0,0,0,2.785,7.664A8.024,8.024,0,0,0,5408.8,3457.917Zm-2.814-.677c-5.221-5.568-5.247-16.487-.1-21.995-3.23.941-6.418,5.769-6.675,10.409A12.272,12.272,0,0,0,5405.985,3457.24Zm11.3-22.076c4.886,5.122,5.554,16.019.107,21.968,3.439-1.16,6.506-6.057,6.691-10.68C5424.261,3441.933,5421.223,3436.812,5417.282,3435.164Z"/>
    </g>
  </g>
</svg>
