<svg xmlns="http://www.w3.org/2000/svg" width="33.438" height="29.851" viewBox="0 0 33.438 29.851">
  <defs>
    <style>
      .cls-1 {
        fill: #46c568;
      }

      .cls-2 {
        fill: #4dde67;
      }

      .cls-3 {
        fill: #fcd856;
      }

      .cls-4 {
        fill: #a5ebf9;
      }

      .cls-5 {
        fill: #fdb725;
      }

      .cls-6 {
        fill: #fc4b4a;
      }

      .cls-7 {
        fill: #e4343f;
      }

      .cls-8 {
        fill: #22a1e6;
      }
    </style>
  </defs>
  <g id="Group_935" data-name="Group 935" transform="translate(-10116.692 -667.28)">
    <g id="Group_930" data-name="Group 930">
      <path id="Path_1563" data-name="Path 1563" class="cls-1" d="M10150.123,696.553l-2.627-14.473a.491.491,0,0,0-.245-.341l-6.612-3.678a.478.478,0,0,0-.275-.059l1.2,15.517-.04.019,7.913,3.549a.48.48,0,0,0,.2.044.492.492,0,0,0,.484-.578Z"/>
      <path id="Path_1564" data-name="Path 1564" class="cls-1" d="M10133.411,681.577l-6.762-3.522a.485.485,0,0,0-.26-.054.552.552,0,0,1,.07,0l-1.2,15.517,7.954,3.569a.5.5,0,0,0,.2.043h0Z"/>
    </g>
    <g id="Group_931" data-name="Group 931">
      <path id="Path_1565" data-name="Path 1565" class="cls-2" d="M10126.46,678a.481.481,0,0,0-.276.059l-6.611,3.678a.489.489,0,0,0-.245.341l-2.627,14.473a.492.492,0,0,0,.482.578.5.5,0,0,0,.2-.043l7.87-3.531Z"/>
      <path id="Path_1566" data-name="Path 1566" class="cls-2" d="M10140.363,678a.491.491,0,0,0-.189.054l-6.763,3.522v15.554h0a.509.509,0,0,0,.2-.043l7.953-3.568Z"/>
    </g>
    <path id="Path_1567" data-name="Path 1567" class="cls-3" d="M10118.531,686.466l-.533,2.94,7.9-4.174.184-2.367.03-.393Z"/>
    <path id="Path_1568" data-name="Path 1568" class="cls-4" d="M10125.971,684.315l-.07.917-7.9,4.174-1.3,7.147a.492.492,0,0,0,.482.578.5.5,0,0,0,.2-.043l7.87-3.531.717-9.242Z"/>
    <g id="Group_932" data-name="Group 932">
      <path id="Path_1569" data-name="Path 1569" class="cls-5" d="M10133.413,683.517l-7.3-1.044-.214,2.759,7.512,11.408v-4.148l-4.482-7.058,4.484.536Z"/>
      <path id="Path_1570" data-name="Path 1570" class="cls-5" d="M10146.73,681.449l-3.176-1.767-3.007.7.037.486.148,1.916Z"/>
    </g>
    <path id="Path_1571" data-name="Path 1571" class="cls-3" d="M10141,686.227l-.284-3.674h0l-.168-2.168-7.135,3.132v2.453l4.66-2.026Z"/>
    <path id="Path_1572" data-name="Path 1572" class="cls-5" d="M10150.123,696.553l-.66-3.636-8.729-10.13.267,3.44,8.951,10.79A.492.492,0,0,0,10150.123,696.553Z"/>
    <g id="Group_933" data-name="Group 933">
      <path id="Path_1573" data-name="Path 1573" class="cls-6" d="M10133.443,667.28a6.87,6.87,0,0,0-6.865,6.86c0,2.34,1.111,4.852,3.3,7.466a23.6,23.6,0,0,0,3.264,3.207.489.489,0,0,0,.6,0,23.535,23.535,0,0,0,3.264-3.207c2.19-2.614,3.3-5.126,3.3-7.466A6.87,6.87,0,0,0,10133.443,667.28Zm2.542,6.86a2.542,2.542,0,1,1-2.542-2.541A2.541,2.541,0,0,1,10135.985,674.14Z"/>
      <path id="Path_1574" data-name="Path 1574" class="cls-7" d="M10133.443,667.28a7.006,7.006,0,0,0-.887.057,6.873,6.873,0,0,1,5.98,6.8c0,2.34-1.111,4.852-3.3,7.466a24.325,24.325,0,0,1-2.679,2.721c.345.3.563.468.586.486a.489.489,0,0,0,.6,0,23.535,23.535,0,0,0,3.264-3.207c2.19-2.614,3.3-5.126,3.3-7.466A6.87,6.87,0,0,0,10133.443,667.28Z"/>
    </g>
    <path id="Path_1575" data-name="Path 1575" class="cls-3" d="M10133.613,697.088l2.957-1.327-3.159-3.269v4.639h0A.509.509,0,0,0,10133.613,697.088Z"/>
    <g id="Group_934" data-name="Group 934">
      <path id="Path_1576" data-name="Path 1576" class="cls-8" d="M10147.5,682.08a.487.487,0,0,0-.244-.341l-.52-.29-6,1.338h0l8.729,10.13Z"/>
      <path id="Path_1577" data-name="Path 1577" class="cls-8" d="M10133.411,697.131h0v-.491l-7.511-11.408-.644,8.288,7.953,3.568A.509.509,0,0,0,10133.411,697.131Z"/>
    </g>
  </g>
</svg>
