<svg xmlns="http://www.w3.org/2000/svg" width="32.986" height="25.917" viewBox="0 0 32.986 25.917">
  <defs>
    <style>
      .cls-1 {
        fill: #fce265;
      }

      .cls-2 {
        fill: #fbc02d;
      }

      .cls-3 {
        fill: #f9a825;
      }

      .cls-4 {
        fill: #fc9d03;
      }
    </style>
  </defs>
  <g id="Group_941" data-name="Group 941" transform="translate(-10117.367 -929.315)">
    <path id="Path_1592" data-name="Path 1592" class="cls-1" d="M10143.8,929.381l-24.946,6.573a2,2,0,0,0-1.423,2.44l4.044,15.35a2,2,0,0,0,2.44,1.422l24.947-6.573a2,2,0,0,0,1.422-2.44l-4.044-15.349a2,2,0,0,0-2.44-1.423Z"/>
    <path id="Path_1593" data-name="Path 1593" class="cls-2" d="M10143.8,929.381l-.5.131a1.985,1.985,0,0,1,.39.759l3.067,11.646a5.828,5.828,0,0,1-4.149,7.12l-20.747,5.466a2,2,0,0,0,2.051.663l24.947-6.573a2,2,0,0,0,1.422-2.44l-4.044-15.349a2,2,0,0,0-2.44-1.423Z"/>
    <path id="Path_1594" data-name="Path 1594" class="cls-3" d="M10137.414,936.9a.727.727,0,0,0-.518.889l1.3,4.919a.727.727,0,1,0,1.406-.371l-1.3-4.919A.728.728,0,0,0,10137.414,936.9Z"/>
    <path id="Path_1595" data-name="Path 1595" class="cls-3" d="M10141.875,935.727l-1.76.463a.727.727,0,0,0-.519.889l1.3,4.919a.728.728,0,1,0,1.407-.37l-.463-1.756,1.057-.279a2,2,0,1,0-1.019-3.866Zm.648,2.459-1.058.279-.276-1.053,1.057-.279a.544.544,0,0,1,.277,1.053Z"/>
    <path id="Path_1596" data-name="Path 1596" class="cls-3" d="M10135.092,937.546a.727.727,0,0,0-.752.7l-.1,2.916-1.546-2.488a.728.728,0,0,0-1.236.768l2.81,4.521a.728.728,0,0,0,.8.319h0a.73.73,0,0,0,.539-.678l.18-5.309A.727.727,0,0,0,10135.092,937.546Z"/>
    <g id="Group_940" data-name="Group 940">
      <path id="Path_1597" data-name="Path 1597" class="cls-3" d="M10128.394,940.251a.815.815,0,0,0-.477,1.229l-.532.575a1.018,1.018,0,0,1-1.346.133l-.829-.6a.8.8,0,0,0,.032-.505.815.815,0,0,0-1.577.415.8.8,0,0,0,.276.424l-.426.932a1.018,1.018,0,0,1-1.236.547l-.746-.238a.8.8,0,0,0-.025-.254.815.815,0,1,0-.649,1.011l1.2,2.672a.2.2,0,0,0,.238.113l6.7-1.765a.2.2,0,0,0,.151-.216l-.271-2.917a.815.815,0,0,0-.484-1.555Z"/>
      <ellipse id="Ellipse_397" data-name="Ellipse 397" class="cls-4" cx="3.464" cy="1.019" rx="3.464" ry="1.019" transform="translate(10121.985 945.522) rotate(-14.761)"/>
      <path id="Path_1598" data-name="Path 1598" class="cls-2" d="M10125.907,946.807c-1.764.465-3.654.529-3.858-.248s1.473-1.652,3.235-2.117,3.654-.528,3.858.248S10127.67,946.343,10125.907,946.807Zm-.52-1.97c-2.069.545-3.018,1.343-2.944,1.618s1.29.5,3.359-.042,3.019-1.343,2.945-1.619S10127.458,944.291,10125.388,944.837Z"/>
    </g>
  </g>
</svg>
