<svg xmlns="http://www.w3.org/2000/svg" width="28.507" height="19.279" viewBox="0 0 28.507 19.279">
  <defs>
    <style>
      .cls-1 {
        fill: #e0e0e0;
      }

      .cls-2 {
        fill: #bdbdbd;
      }

      .cls-3 {
        fill: #757575;
      }

      .cls-4 {
        fill: #616161;
      }

      .cls-5 {
        fill: #424242;
      }

      .cls-6 {
        fill: #bc6104;
      }

      .cls-7 {
        fill: #eee;
      }
    </style>
  </defs>
  <g id="Group_946" data-name="Group 946" transform="translate(-10119.318 -1018.193)">
    <path id="Path_1599" data-name="Path 1599" class="cls-1" d="M10147.825,1030.985l-2.969-3.2h-13.568a6.611,6.611,0,0,0-5.574-3.2,6.419,6.419,0,0,0,0,12.838,6.693,6.693,0,0,0,5.574-3.29h13.521Z"/>
    <path id="Path_1600" data-name="Path 1600" class="cls-2" d="M10119.318,1031.076a6.414,6.414,0,0,0,6.4,6.4,6.694,6.694,0,0,0,5.574-3.289h13.521l2.971-3.2-2.971-3.2h-13.521a6.611,6.611,0,0,0-5.574-3.2"/>
    <path id="Path_1601" data-name="Path 1601" class="cls-2" d="M10119.318,1031.076a6.376,6.376,0,0,0,6.4,6.351,6.653,6.653,0,0,0,5.574-3.244h13.521l2.971-3.2-2.971-3.2h-13.521"/>
    <g id="Group_942" data-name="Group 942">
      <path id="Path_1602" data-name="Path 1602" class="cls-3" d="M10119.318,1031.076a6.414,6.414,0,0,0,6.4,6.4,6.694,6.694,0,0,0,5.574-3.289h13.521l2.971-3.2"/>
      <path id="Path_1603" data-name="Path 1603" class="cls-4" d="M10125.714,1037.472a6.4,6.4,0,0,0,5.574-3.289"/>
    </g>
    <g id="Group_943" data-name="Group 943">
      <path id="Path_1604" data-name="Path 1604" class="cls-3" d="M10131.287,1034.183h13.568l2.97-3.2"/>
    </g>
    <ellipse id="Ellipse_398" data-name="Ellipse 398" class="cls-4" cx="1.096" cy="1.873" rx="1.096" ry="1.873" transform="translate(10120.643 1029.203)"/>
    <path id="Path_1605" data-name="Path 1605" class="cls-5" d="M10120.643,1031.076c0,1.051.5,1.873,1.1,1.873s1.1-.822,1.1-1.873"/>
    <g id="Group_944" data-name="Group 944">
      <path id="Path_1606" data-name="Path 1606" class="cls-6" d="M10131.288,1034.274Z"/>
      <path id="Path_1607" data-name="Path 1607" class="cls-4" d="M10144.855,1034.183h0l-1.233-1.279-.822.822-.776-.777-.776.777-.777-.777-.776.777-.776-.777-.822.777-.776-.777-.777.777-.776-.777-.776.777-.777-.777-.822.777-.776-.822-1.279,1.279Z"/>
    </g>
    <path id="Path_1608" data-name="Path 1608" class="cls-7" d="M10131.7,1028.244h12.745l-11.329.548Z"/>
    <path id="Path_1609" data-name="Path 1609" class="cls-7" d="M10144.855,1028.609l1.873,2.056-2.1-.822Z"/>
    <path id="Path_1610" data-name="Path 1610" class="cls-4" d="M10121.648,1033.269a4.715,4.715,0,0,0,4.065,2.6,4.777,4.777,0,0,0,4.066-2.6Z"/>
    <g id="Group_945" data-name="Group 945">
      <path id="Path_1611" data-name="Path 1611" class="cls-2" d="M10137.683,1024.589a.431.431,0,0,1-.456.457h0a.432.432,0,0,1-.457-.457v-5.939a.432.432,0,0,1,.457-.457h0a.431.431,0,0,1,.456.457Z"/>
      <path id="Path_1612" data-name="Path 1612" class="cls-2" d="M10141.292,1025.274a.5.5,0,0,1-.685,0h0a.5.5,0,0,1,0-.685l3.975-3.974a.5.5,0,0,1,.685,0h0a.5.5,0,0,1,0,.685Z"/>
      <path id="Path_1613" data-name="Path 1613" class="cls-2" d="M10133.161,1025.274a.5.5,0,0,0,.685,0h0a.5.5,0,0,0,0-.685l-3.975-3.974a.5.5,0,0,0-.686,0h0a.5.5,0,0,0,0,.685Z"/>
    </g>
  </g>
</svg>
