<svg xmlns="http://www.w3.org/2000/svg" xmlns:xlink="http://www.w3.org/1999/xlink" width="147.218" height="147.218" viewBox="0 0 147.218 147.218">
  <defs>
    <style>
      .cls-1 {
        fill: none;
      }

      .cls-2 {
        fill: #4db6ac;
      }

      .cls-3 {
        clip-path: url(#clip-path);
      }

      .cls-4 {
        fill: #141720;
      }

      .cls-5 {
        fill: #d6bcb0;
      }

      .cls-6 {
        fill: #efc7a1;
      }

      .cls-7 {
        fill: #543e36;
      }

      .cls-8 {
        fill: #1a1a1a;
      }
    </style>
    <clipPath id="clip-path">
      <circle id="Ellipse_528" data-name="Ellipse 528" class="cls-1" cx="63.181" cy="63.181" r="63.181" transform="translate(331.035 1456.388)"/>
    </clipPath>
  </defs>
  <g id="Group_3500" data-name="Group 3500" transform="translate(-320.607 -1435.533)">
    <g id="Group_3495" data-name="Group 3495">
      <g id="Group_3499" data-name="Group 3499">
        <g id="Group_3497" data-name="Group 3497">
          <g id="Group_3496" data-name="Group 3496">
            <g id="Group_3220" data-name="Group 3220">
              <circle id="SVGID" class="cls-2" cx="73.609" cy="73.609" r="73.609" transform="translate(320.607 1435.533)"/>
            </g>
          </g>
        </g>
      </g>
    </g>
    <g id="Group_3224" data-name="Group 3224">
      <g id="Group_3498" data-name="Group 3498">
        <g id="Group_3223" data-name="Group 3223" class="cls-3">
          <g id="Group_3222" data-name="Group 3222">
            <path id="Path_3501" data-name="Path 3501" class="cls-4" d="M433.087,1501.172c0,1.092-.048,2.169-.131,3.239a39.717,39.717,0,0,1-.814,5.324,38.887,38.887,0,0,1-5.538,12.94,39.029,39.029,0,0,1-3.3,4.281c-.3.331-.594.656-.9.973a36.678,36.678,0,0,1-3.155,2.97c-.283.241-.566.476-.856.7a37.776,37.776,0,0,1-4.35,3c-.47.283-.953.552-1.437.815a38.946,38.946,0,0,1-18.388,4.619,39.021,39.021,0,0,1-18.4-4.619c-.642-.352-1.278-.712-1.892-1.091a38.41,38.41,0,0,1-5.276-3.888c-.18-.152-.366-.311-.538-.476a38.453,38.453,0,0,1-3.467-3.57c-.2-.235-.4-.469-.593-.711a39.02,39.02,0,0,1-4.26-6.442c-.118-.221-.228-.442-.339-.663a39.2,39.2,0,0,1-2.369-5.862q-.186-.61-.352-1.223a37.9,37.9,0,0,1-1.2-6.5c-.034-.373-.069-.745-.1-1.126-.055-.891-.09-1.8-.09-2.7,0-.545.014-1.084.035-1.623.007-.269.021-.531.042-.8a37.706,37.706,0,0,1,.669-5.186c.076-.38.159-.759.242-1.133a37.751,37.751,0,0,1,1.14-3.956c.158-.47.331-.939.511-1.4a37.566,37.566,0,0,1,1.885-4.116q.84-1.584,1.823-3.079c.421-.649.863-1.278,1.326-1.9.5-.684,1.035-1.347,1.588-1.989a36.923,36.923,0,0,1,3.079-3.218c.373-.352.746-.69,1.133-1.021a37.566,37.566,0,0,1,4.64-3.446c.552-.352,1.111-.69,1.684-1.008.829-.469,1.678-.912,2.548-1.319q.809-.383,1.637-.725a38.76,38.76,0,0,1,5.041-1.7c.869-.228,1.753-.421,2.651-.586a38.815,38.815,0,0,1,4.129-.553q1.056-.083,2.134-.1c.311-.007.621-.014.939-.014q1.117,0,2.216.063c.47.027.939.061,1.4.1a37.813,37.813,0,0,1,5.711.967c.428.1.849.214,1.27.332a38.728,38.728,0,0,1,6.042,2.271c.552.263,1.092.532,1.63.822,1.008.532,1.981,1.112,2.934,1.734.166.111.339.221.5.332a37.931,37.931,0,0,1,3.805,2.935c.8.683,1.56,1.408,2.292,2.168a37.064,37.064,0,0,1,3.2,3.708c.2.255.394.511.573.773a38.139,38.139,0,0,1,2.631,4.192c.145.262.283.532.414.794a38.528,38.528,0,0,1,3.031,7.989,37.817,37.817,0,0,1,.85,4.35A38.807,38.807,0,0,1,433.087,1501.172Z"/>
            <path id="Path_3502" data-name="Path 3502" class="cls-4" d="M370.417,1527.446a.517.517,0,0,1-.007.1,3.4,3.4,0,0,1-1.761,2.893,2.228,2.228,0,0,1-.407.194,3.309,3.309,0,0,1-1.257.241,3.43,3.43,0,0,1-3.425-3.432,3.581,3.581,0,0,1,.131-.945,3.334,3.334,0,0,1,.359-.815,3.415,3.415,0,0,1,2.935-1.664,3.467,3.467,0,0,1,.891.117,3.205,3.205,0,0,1,1.188.58,3.565,3.565,0,0,1,.766.808A3.387,3.387,0,0,1,370.417,1527.446Z"/>
            <path id="Path_3503" data-name="Path 3503" class="cls-4" d="M361.019,1490.483a3.429,3.429,0,0,1-4.93,3.08,3.472,3.472,0,0,1-.684-.435,3.434,3.434,0,0,1,1.132-5.911,3.326,3.326,0,0,1,1.05-.165,2.487,2.487,0,0,1,.394.028,3.4,3.4,0,0,1,2.99,2.858A2.9,2.9,0,0,1,361.019,1490.483Z"/>
            <path id="Path_3504" data-name="Path 3504" class="cls-4" d="M380.229,1467.579a3.426,3.426,0,0,1-6.774.732,3.269,3.269,0,0,1,.035-1.6,3.425,3.425,0,0,1,6.739.87Z"/>
            <circle id="Ellipse_505" data-name="Ellipse 505" class="cls-4" cx="3.428" cy="3.428" r="3.428" transform="translate(409.078 1465.622)"/>
            <path id="Path_3505" data-name="Path 3505" class="cls-4" d="M360.314,1501.842a3.328,3.328,0,0,1-.235,1.236,3.43,3.43,0,0,1-3.2,2.2,3.38,3.38,0,0,1-1.354-.276,3.811,3.811,0,0,1-.787-.476,3.435,3.435,0,0,1,.187-5.5,3.048,3.048,0,0,1,.49-.276,3.336,3.336,0,0,1,1.464-.332,3.421,3.421,0,0,1,3.19,2.169A3.292,3.292,0,0,1,360.314,1501.842Z"/>
            <circle id="Ellipse_506" data-name="Ellipse 506" class="cls-4" cx="3.428" cy="3.428" r="3.428" transform="translate(417.033 1525.448)"/>
            <circle id="Ellipse_507" data-name="Ellipse 507" class="cls-4" cx="3.428" cy="3.428" r="3.428" transform="translate(420.559 1521.46)"/>
            <circle id="Ellipse_508" data-name="Ellipse 508" class="cls-4" cx="3.428" cy="3.428" r="3.428" transform="translate(412.503 1528.316)"/>
            <path id="Path_3506" data-name="Path 3506" class="cls-4" d="M397.913,1463.194a3.445,3.445,0,0,1-3.432,3.432,1.667,1.667,0,0,1-.263-.014,3.317,3.317,0,0,1-1.788-.676,3.412,3.412,0,0,1-1.374-2.742,3.123,3.123,0,0,1,.09-.773,3.355,3.355,0,0,1,1.284-1.961,3.308,3.308,0,0,1,1.788-.676,1.652,1.652,0,0,1,.263-.014,3.448,3.448,0,0,1,3.356,2.7A3.6,3.6,0,0,1,397.913,1463.194Z"/>
            <circle id="Ellipse_509" data-name="Ellipse 509" class="cls-4" cx="3.428" cy="3.428" r="3.428" transform="translate(423.987 1476.95)"/>
            <path id="Path_3507" data-name="Path 3507" class="cls-4" d="M368.649,1521.46a4.913,4.913,0,0,1-.262,1.6,4.761,4.761,0,0,1-.511,1.084,5.034,5.034,0,0,1-3.232,2.258,4.4,4.4,0,0,1-.953.1.393.393,0,0,1-.09.007,5.049,5.049,0,0,1-4.508-7.333,3.944,3.944,0,0,1,.359-.594,5.046,5.046,0,0,1,4.15-2.175q.218,0,.435.021a5.056,5.056,0,0,1,4.612,5.034Z"/>
            <path id="Path_3508" data-name="Path 3508" class="cls-4" d="M378.171,1529.353a5.038,5.038,0,0,1-3.432,4.778,4.467,4.467,0,0,1-.814.2,4.4,4.4,0,0,1-.808.069,5.026,5.026,0,0,1-4.875-3.763,3.537,3.537,0,0,1-.131-.669,4.466,4.466,0,0,1-.042-.615,5.041,5.041,0,0,1,1.471-3.563,3.281,3.281,0,0,1,.29-.262,4.957,4.957,0,0,1,3.287-1.229A5.055,5.055,0,0,1,378.171,1529.353Z"/>
            <path id="Path_3509" data-name="Path 3509" class="cls-4" d="M366.067,1484.884a5.051,5.051,0,0,1-5.048,5.054h-.048a5.026,5.026,0,0,1-3.5-1.464,4.8,4.8,0,0,1-.932-1.257,5.034,5.034,0,0,1,2.52-6.98,4.869,4.869,0,0,1,1.961-.4,4.25,4.25,0,0,1,.67.049,5.009,5.009,0,0,1,4.315,4.274A4.1,4.1,0,0,1,366.067,1484.884Z"/>
            <circle id="Ellipse_510" data-name="Ellipse 510" class="cls-4" cx="5.051" cy="5.051" r="5.051" transform="translate(402.403 1461.573)"/>
            <path id="Path_3510" data-name="Path 3510" class="cls-4" d="M387.769,1465.618a4.976,4.976,0,0,1-.352,1.844,5.042,5.042,0,0,1-7.831,2.119,4.97,4.97,0,0,1-1.9-3.6,3.111,3.111,0,0,1-.021-.366,4.826,4.826,0,0,1,.179-1.305,5.031,5.031,0,0,1,7.044-3.246,5.044,5.044,0,0,1,2.879,4.551Z"/>
            <path id="Path_3511" data-name="Path 3511" class="cls-4" d="M363.56,1507.878a5.059,5.059,0,0,1-5.054,5.047,4.834,4.834,0,0,1-1.423-.208,4.438,4.438,0,0,1-1.014-.421,5.039,5.039,0,0,1-1.326-7.775,3.829,3.829,0,0,1,.69-.649,5,5,0,0,1,4.647-.794A5.055,5.055,0,0,1,363.56,1507.878Z"/>
            <circle id="Ellipse_511" data-name="Ellipse 511" class="cls-4" cx="5.051" cy="5.051" r="5.051" transform="translate(416.024 1471.676)"/>
            <circle id="Ellipse_512" data-name="Ellipse 512" class="cls-4" cx="5.052" cy="5.052" r="5.052" transform="translate(423.441 1482.691)"/>
            <path id="Path_3512" data-name="Path 3512" class="cls-4" d="M377.667,1471.674a5.057,5.057,0,0,1-5.055,5.054,4.742,4.742,0,0,1-1.18-.145,5.052,5.052,0,0,1-3.75-3.805,4.826,4.826,0,0,1-.124-1.1,1.747,1.747,0,0,1,.014-.27,5.038,5.038,0,0,1,5.04-4.778,4.637,4.637,0,0,1,.878.082,4.848,4.848,0,0,1,1.65.594,5.018,5.018,0,0,1,2.465,3.611A4.545,4.545,0,0,1,377.667,1471.674Z"/>
            <path id="Path_3513" data-name="Path 3513" class="cls-4" d="M364.361,1514.741a4.492,4.492,0,0,1-4.509,4.5h-.061a4.414,4.414,0,0,1-.7-.069,4.5,4.5,0,0,1-3.75-4.433,4.422,4.422,0,0,1,.726-2.445,4.315,4.315,0,0,1,.662-.8,4.447,4.447,0,0,1,3.121-1.263,4.511,4.511,0,0,1,4.509,4.509Z"/>
            <path id="Path_3514" data-name="Path 3514" class="cls-4" d="M368.069,1480.374a4.492,4.492,0,0,1-2.065,3.784,4.433,4.433,0,0,1-2.444.725,4.5,4.5,0,0,1-4.51-4.509.911.911,0,0,1,.007-.138,4.5,4.5,0,0,1,3.432-4.233,4.165,4.165,0,0,1,1.071-.131,4.263,4.263,0,0,1,1.043.125,4.5,4.5,0,0,1,3.459,4.246A.823.823,0,0,1,368.069,1480.374Z"/>
            <circle id="Ellipse_513" data-name="Ellipse 513" class="cls-4" cx="4.507" cy="4.507" r="4.507" transform="translate(395.874 1460.036)"/>
            <path id="Path_3515" data-name="Path 3515" class="cls-4" d="M363.056,1496.346a4.506,4.506,0,0,1-7.678,3.2,3.954,3.954,0,0,1-.449-.524,4.493,4.493,0,0,1,.476-5.9,4.151,4.151,0,0,1,.925-.7,4.461,4.461,0,0,1,2.216-.587,4.582,4.582,0,0,1,3.563,1.74A4.46,4.46,0,0,1,363.056,1496.346Z"/>
            <circle id="Ellipse_514" data-name="Ellipse 514" class="cls-4" cx="4.506" cy="4.506" r="4.506" transform="translate(426.955 1495.657)"/>
            <circle id="Ellipse_515" data-name="Ellipse 515" class="cls-4" cx="4.506" cy="4.506" r="4.506" transform="translate(423.987 1507.875)"/>
            <path id="Path_3516" data-name="Path 3516" class="cls-4" d="M371.494,1475.872a4.046,4.046,0,0,1-.062.711,4.485,4.485,0,0,1-3.37,3.66,4.25,4.25,0,0,1-1.077.131,4.492,4.492,0,0,1-3.971-2.389,4.289,4.289,0,0,1-.525-1.982.833.833,0,0,1-.007-.132,4.5,4.5,0,0,1,4.5-4.508,4.2,4.2,0,0,1,.587.041,4.264,4.264,0,0,1,1.243.352A4.481,4.481,0,0,1,371.494,1475.872Z"/>
            <circle id="Ellipse_516" data-name="Ellipse 516" class="cls-4" cx="4.507" cy="4.507" r="4.507" transform="translate(413.316 1467.897)"/>
            <path id="Path_3517" data-name="Path 3517" class="cls-4" d="M393.363,1463.194a4.517,4.517,0,0,1-4.5,4.51,4.364,4.364,0,0,1-1.444-.242,4.492,4.492,0,0,1-3.051-3.9c-.008-.124-.014-.241-.014-.366a4.509,4.509,0,0,1,8.928-.877A4.584,4.584,0,0,1,393.363,1463.194Z"/>
            <path id="Path_3518" data-name="Path 3518" class="cls-5" d="M430.843,1589.116v.008H357.587v-.008a36.445,36.445,0,0,1,10.814-25.97c.248-.248.5-.49.753-.732a38.129,38.129,0,0,1,3.211-2.686c.345-.256.7-.511,1.049-.753.726-.5,1.471-.973,2.231-1.415.359-.214.725-.421,1.091-.622a.025.025,0,0,1,.021-.014c.3-.158.587-.331.877-.511a7.335,7.335,0,0,0,.642-.4,21.868,21.868,0,0,0,1.844-1.318v-.007a23.182,23.182,0,0,0,8.535-15.047,23.9,23.9,0,0,0,.2-3.08l5.365.028,5.462.027a24.1,24.1,0,0,0,.193,3.011,23.106,23.106,0,0,0,8.479,15.073c.249.194.5.387.753.574a.022.022,0,0,1,.014.007c.194.152.394.29.6.421a1.09,1.09,0,0,0,.179.125c.055.041.1.075.159.11l.062.042c.228.152.463.3.7.442.284.173.573.345.863.5a.367.367,0,0,1,.125.062c.325.18.65.366.967.56.421.241.835.5,1.243.759.724.47,1.422.953,2.113,1.478h.014a36.664,36.664,0,0,1,14.7,29.333Z"/>
            <path id="Path_3519" data-name="Path 3519" class="cls-6" d="M430.843,1589.116H357.587a36.445,36.445,0,0,1,10.814-25.97c.248-.248.5-.49.753-.732a38.129,38.129,0,0,1,3.211-2.686c.345-.256.7-.511,1.049-.753.726-.5,1.464-.973,2.223-1.422.36-.214.726-.421,1.092-.621a.025.025,0,0,1,.027-.008v-.006c.587-.325,1.167-.677,1.726-1.05.263-.173.518-.352.773-.545.028-.014.049-.035.076-.049q.279-.207.56-.434l.207-.166h.007l.014.013c.442.456.911.884,1.4,1.3,0,.008,0,.008.007.008a19.706,19.706,0,0,0,12.67,4.64h.056a19.728,19.728,0,0,0,14.107-5.932l.007-.006.007-.008c.256.214.518.415.788.615.179.138.366.269.559.4.055.041.117.082.179.124s.1.076.159.111l.062.041c.228.152.463.3.7.442.283.173.572.338.863.5a.756.756,0,0,1,.124.062c.325.18.657.366.974.56.421.248.835.5,1.236.766.725.463,1.423.954,2.113,1.471h.014a36.748,36.748,0,0,1,14.706,29.339Z"/>
            <g id="Group_3221" data-name="Group 3221">
              <path id="Path_3520" data-name="Path 3520" class="cls-7" d="M412.772,1557.539l-.006.007-.753.767a24.783,24.783,0,0,1-17.8,7.485H394.2a24.8,24.8,0,0,1-17.843-7.5l-.718-.739-.006-.007c.359-.214.725-.421,1.091-.621a.026.026,0,0,1,.028-.008v-.006c.3-.166.587-.332.877-.505.213-.131.428-.262.642-.4.069-.047.138-.1.207-.145.263-.172.525-.352.773-.545.028-.014.049-.035.076-.049.186-.145.38-.29.56-.434l.207-.166.014.013h.006v.008a17.936,17.936,0,0,0,1.395,1.291c0,.007,0,.007.007.007a19.426,19.426,0,0,0,4.019,2.624,19.642,19.642,0,0,0,8.652,2.016h.055a19.731,19.731,0,0,0,14.107-5.931l.007-.007.007-.008c.242.2.484.394.74.587a.022.022,0,0,1,.014.008.159.159,0,0,0,.035.02c.179.138.366.269.559.4.055.042.117.083.179.124s.1.076.159.111l.062.042c.228.151.463.3.7.442.283.172.572.337.863.5a.753.753,0,0,1,.124.061C412.124,1557.159,412.455,1557.345,412.772,1557.539Z"/>
            </g>
            <path id="Path_3521" data-name="Path 3521" class="cls-5" d="M422.329,1494.275v16.461a33.381,33.381,0,0,1-.317,4.571,36.272,36.272,0,0,1-3.149,10.537q-.672,1.44-1.45,2.811c-.117.207-.235.414-.352.614a41.738,41.738,0,0,1-3.467,4.979c-.317.4-.648.794-.987,1.174A34.716,34.716,0,0,1,401,1544.35a14.963,14.963,0,0,1-13.5.028,34.758,34.758,0,0,1-11.683-8.956c-.366-.422-.726-.85-1.078-1.292a41.384,41.384,0,0,1-4.329-6.58q-.456-.87-.87-1.761c-.165-.352-.324-.711-.476-1.071-.242-.545-.462-1.1-.677-1.664a36.557,36.557,0,0,1-1.588-5.5c-.152-.739-.283-1.485-.38-2.245a33.381,33.381,0,0,1-.317-4.571v-16.461h56.227Z"/>
            <path id="Path_3522" data-name="Path 3522" class="cls-4" d="M365.413,1515.448h0a3.735,3.735,0,0,0,3.736-3.735v-17.937h-3.736Z"/>
            <path id="Path_3523" data-name="Path 3523" class="cls-4" d="M419.284,1493.776h3.735v21.673h0a3.736,3.736,0,0,1-3.735-3.736Z"/>
            <circle id="Ellipse_517" data-name="Ellipse 517" class="cls-4" cx="4.507" cy="4.507" r="4.507" transform="translate(382.716 1490.423)"/>
            <circle id="Ellipse_518" data-name="Ellipse 518" class="cls-4" cx="4.507" cy="4.507" r="4.507" transform="translate(372.295 1489.403)"/>
            <circle id="Ellipse_519" data-name="Ellipse 519" class="cls-4" cx="4.507" cy="4.507" r="4.507" transform="translate(361.597 1491.15)"/>
            <circle id="Ellipse_520" data-name="Ellipse 520" class="cls-4" cx="4.507" cy="4.507" r="4.507" transform="translate(395.874 1489.935)"/>
            <circle id="Ellipse_521" data-name="Ellipse 521" class="cls-4" cx="4.507" cy="4.507" r="4.507" transform="translate(409.5 1489.935)"/>
            <circle id="Ellipse_522" data-name="Ellipse 522" class="cls-4" cx="4.506" cy="4.506" r="4.506" transform="translate(418.85 1494.206)"/>
            <circle id="Ellipse_523" data-name="Ellipse 523" class="cls-4" cx="3.428" cy="3.428" r="3.428" transform="translate(390.788 1491.841)"/>
            <circle id="Ellipse_524" data-name="Ellipse 524" class="cls-4" cx="3.428" cy="3.428" r="3.428" transform="translate(367.561 1491.502)"/>
            <circle id="Ellipse_525" data-name="Ellipse 525" class="cls-4" cx="3.428" cy="3.428" r="3.428" transform="translate(379.288 1491.502)"/>
            <circle id="Ellipse_526" data-name="Ellipse 526" class="cls-4" cx="3.428" cy="3.428" r="3.428" transform="translate(404.027 1492.58)"/>
            <circle id="Ellipse_527" data-name="Ellipse 527" class="cls-4" cx="3.428" cy="3.428" r="3.428" transform="translate(415.085 1492.58)"/>
            <path id="Path_3524" data-name="Path 3524" class="cls-8" d="M417.876,1502.793a.224.224,0,0,0-.194-.221,72.017,72.017,0,0,0-9.819-.732c-5.219,0-11.952,1.636-13.126,1.636h-1.043c-.546,0-2.3-.359-4.544-.732a54.63,54.63,0,0,0-8.576-.905,72.831,72.831,0,0,0-8.4.539c-.676.083-1.166.152-1.422.193a.223.223,0,0,0-.2.221l-.055,2.8a.248.248,0,0,0,.151.228l.318.111c.469.179.428,8.624,2.949,10.737,1.5,1.243,2.831,1.954,8.438,1.954,3.252,0,5.3-.877,7.236-3.493,1.4-1.878,2.638-6.326,2.638-6.326a2.2,2.2,0,0,1,1.961-1.988h.028a2.177,2.177,0,0,1,1.982,1.988s1.243,4.447,2.638,6.326c1.94,2.616,3.984,3.493,7.236,3.493,5.607,0,6.94-.711,8.437-1.954,2.521-2.113,2.479-10.558,2.95-10.737l.317-.111a.249.249,0,0,0,.152-.228Z"/>
          </g>
        </g>
      </g>
    </g>
  </g>
</svg>
