<svg xmlns="http://www.w3.org/2000/svg" xmlns:xlink="http://www.w3.org/1999/xlink" width="34.169" height="34.169" viewBox="0 0 34.169 34.169">
  <defs>
    <style>
      .cls-1 {
        fill: none;
      }

      .cls-2 {
        fill: #846c3f;
      }

      .cls-3 {
        clip-path: url(#clip-path);
      }

      .cls-4 {
        fill: #141720;
      }

      .cls-5 {
        fill: #d3b9ad;
      }

      .cls-6 {
        fill: #ecc49e;
      }

      .cls-7 {
        fill: #543e36;
      }

      .cls-8 {
        fill: #1a1a1a;
      }
    </style>
    <clipPath id="clip-path">
      <circle id="Ellipse_390" data-name="Ellipse 390" class="cls-1" cx="14.664" cy="14.664" r="14.664" transform="translate(10119.381 591.795)"/>
    </clipPath>
  </defs>
  <g id="Group_929" data-name="Group 929" transform="translate(-10116.961 -586.954)">
    <g id="Group_918" data-name="Group 918">
      <circle id="SVGID" class="cls-2" cx="17.085" cy="17.085" r="17.085" transform="translate(10116.961 586.954)"/>
    </g>
    <g id="Group_922" data-name="Group 922">
      <g id="Group_921" data-name="Group 921" class="cls-3">
        <g id="Group_920" data-name="Group 920">
          <path id="Path_1539" data-name="Path 1539" class="cls-4" d="M10143.068,602.189c0,.253-.013.5-.031.752a9,9,0,0,1-.189,1.235,8.856,8.856,0,0,1-.526,1.611,8.93,8.93,0,0,1-1.524,2.386c-.069.077-.138.153-.209.226a8.29,8.29,0,0,1-.731.69c-.066.056-.132.11-.2.163a8.8,8.8,0,0,1-1.009.7c-.109.066-.223.129-.334.189a8.892,8.892,0,0,1-2.955.976,8.757,8.757,0,0,1-1.313.1,9.046,9.046,0,0,1-4.271-1.073c-.149-.081-.3-.165-.439-.253a8.885,8.885,0,0,1-1.224-.9c-.042-.035-.085-.072-.125-.111a8.857,8.857,0,0,1-.806-.828c-.046-.055-.093-.109-.138-.165a9.171,9.171,0,0,1-.989-1.5l-.078-.154a9.248,9.248,0,0,1-.55-1.361c-.028-.094-.056-.189-.082-.284a8.806,8.806,0,0,1-.277-1.508c-.009-.086-.018-.173-.023-.261-.013-.207-.021-.417-.021-.627,0-.126,0-.251.008-.376,0-.063,0-.124.01-.186a8.891,8.891,0,0,1,.155-1.2c.018-.088.037-.176.057-.263a8.977,8.977,0,0,1,.264-.918c.037-.109.077-.218.119-.324a8.75,8.75,0,0,1,.438-.955c.13-.245.271-.484.423-.715.1-.15.2-.3.308-.44s.24-.313.369-.462a8.645,8.645,0,0,1,.714-.747c.087-.082.173-.16.264-.237a8.775,8.775,0,0,1,1.076-.8c.129-.081.259-.16.392-.234q.289-.164.592-.306c.125-.059.251-.115.379-.168a9.009,9.009,0,0,1,1.17-.394c.2-.053.407-.1.616-.137a9.124,9.124,0,0,1,.958-.128q.246-.02.5-.024c.073,0,.145,0,.218,0,.173,0,.345,0,.515.015.109.006.219.014.325.024a8.728,8.728,0,0,1,1.326.224c.1.024.2.05.294.077a9.017,9.017,0,0,1,1.4.527c.128.061.253.124.378.191.234.123.46.258.681.4l.117.077a8.792,8.792,0,0,1,.883.682,7.086,7.086,0,0,1,.532.5,8.67,8.67,0,0,1,.742.861c.047.059.092.118.133.179a8.977,8.977,0,0,1,.611.973c.033.061.065.123.1.184a8.954,8.954,0,0,1,.7,1.854,9.133,9.133,0,0,1,.282,2.248Z"/>
          <path id="Path_1540" data-name="Path 1540" class="cls-4" d="M10128.522,608.287a.067.067,0,0,1,0,.024.791.791,0,0,1-.407.672.492.492,0,0,1-.1.045.765.765,0,0,1-.292.056.8.8,0,0,1-.795-.8.818.818,0,0,1,.031-.219.777.777,0,0,1,.083-.189.791.791,0,0,1,.681-.386.779.779,0,0,1,.207.027.737.737,0,0,1,.276.134.824.824,0,0,1,.178.188A.789.789,0,0,1,10128.522,608.287Z"/>
          <path id="Path_1541" data-name="Path 1541" class="cls-4" d="M10126.341,599.708a.8.8,0,0,1-.8.795.794.794,0,0,1-.348-.08.766.766,0,0,1-.158-.1.8.8,0,0,1,.262-1.372.762.762,0,0,1,.244-.038.547.547,0,0,1,.091.006.789.789,0,0,1,.694.664A.672.672,0,0,1,10126.341,599.708Z"/>
          <path id="Path_1542" data-name="Path 1542" class="cls-4" d="M10130.8,594.392a.792.792,0,0,1-.608.774.762.762,0,0,1-.187.023.8.8,0,0,1-.777-.627.755.755,0,0,1-.019-.17.725.725,0,0,1,.027-.2.8.8,0,0,1,.769-.593.808.808,0,0,1,.242.037.8.8,0,0,1,.553.758Z"/>
          <circle id="Ellipse_367" data-name="Ellipse 367" class="cls-4" cx="0.796" cy="0.796" r="0.796" transform="translate(10137.495 593.938)"/>
          <path id="Path_1543" data-name="Path 1543" class="cls-4" d="M10126.177,602.345a.752.752,0,0,1-.055.286.794.794,0,0,1-.742.51.775.775,0,0,1-.313-.064.921.921,0,0,1-.183-.11.8.8,0,0,1,.043-1.276.673.673,0,0,1,.114-.064.769.769,0,0,1,.34-.077.794.794,0,0,1,.74.5A.765.765,0,0,1,10126.177,602.345Z"/>
          <circle id="Ellipse_368" data-name="Ellipse 368" class="cls-4" cx="0.796" cy="0.796" r="0.796" transform="translate(10139.342 607.823)"/>
          <circle id="Ellipse_369" data-name="Ellipse 369" class="cls-4" cx="0.796" cy="0.796" r="0.796" transform="translate(10140.16 606.898)"/>
          <circle id="Ellipse_370" data-name="Ellipse 370" class="cls-4" cx="0.796" cy="0.796" r="0.796" transform="translate(10138.29 608.489)"/>
          <path id="Path_1544" data-name="Path 1544" class="cls-4" d="M10134.9,593.374a.791.791,0,0,1-.4.691.78.78,0,0,1-.394.106.424.424,0,0,1-.062,0,.784.784,0,0,1-.415-.157.792.792,0,0,1-.319-.637.724.724,0,0,1,.021-.179.785.785,0,0,1,.3-.455.768.768,0,0,1,.415-.157.424.424,0,0,1,.062,0,.792.792,0,0,1,.655.344.783.783,0,0,1,.123.282A.8.8,0,0,1,10134.9,593.374Z"/>
          <circle id="Ellipse_371" data-name="Ellipse 371" class="cls-4" cx="0.796" cy="0.796" r="0.796" transform="translate(10140.955 596.567)"/>
          <path id="Path_1545" data-name="Path 1545" class="cls-4" d="M10128.112,606.9a1.134,1.134,0,0,1-.062.37,1.042,1.042,0,0,1-.119.252,1.167,1.167,0,0,1-.75.524,1,1,0,0,1-.221.024h-.021a1.172,1.172,0,0,1-1.047-1.7,1.091,1.091,0,0,1,.083-.138,1.173,1.173,0,0,1,.964-.5c.033,0,.066,0,.1,0a1.177,1.177,0,0,1,1.071,1.169Z"/>
          <path id="Path_1546" data-name="Path 1546" class="cls-4" d="M10130.322,608.73a1.171,1.171,0,0,1-.8,1.109.994.994,0,0,1-.189.046.966.966,0,0,1-.187.016,1.168,1.168,0,0,1-1.132-.873.834.834,0,0,1-.029-.155,1,1,0,0,1-.011-.143,1.169,1.169,0,0,1,.342-.827c.022-.022.045-.043.067-.061a1.149,1.149,0,0,1,.763-.285A1.174,1.174,0,0,1,10130.322,608.73Z"/>
          <path id="Path_1547" data-name="Path 1547" class="cls-4" d="M10127.512,598.408a1.172,1.172,0,0,1-1.171,1.174h-.012a1.172,1.172,0,0,1-.812-.34,1.128,1.128,0,0,1-.216-.292,1.167,1.167,0,0,1,.584-1.62,1.138,1.138,0,0,1,.456-.093,1.006,1.006,0,0,1,.155.011,1.165,1.165,0,0,1,1,.992A1.063,1.063,0,0,1,10127.512,598.408Z"/>
          <circle id="Ellipse_372" data-name="Ellipse 372" class="cls-4" cx="1.172" cy="1.172" r="1.172" transform="translate(10135.946 592.998)"/>
          <path id="Path_1548" data-name="Path 1548" class="cls-4" d="M10132.549,593.937a1.137,1.137,0,0,1-.081.428,1.171,1.171,0,0,1-1.092.745,1.172,1.172,0,0,1-1.167-1.088.8.8,0,0,1,0-.085,1.112,1.112,0,0,1,.041-.3,1.168,1.168,0,0,1,1.13-.869,1.172,1.172,0,0,1,1.173,1.172Z"/>
          <path id="Path_1549" data-name="Path 1549" class="cls-4" d="M10126.93,603.745a1.156,1.156,0,0,1-.261.736,1.169,1.169,0,0,1-.912.436,1.128,1.128,0,0,1-.33-.048,1.015,1.015,0,0,1-.234-.1,1.17,1.17,0,0,1-.309-1.8.887.887,0,0,1,.16-.15,1.157,1.157,0,0,1,.713-.244,1.174,1.174,0,0,1,1.173,1.173Z"/>
          <circle id="Ellipse_373" data-name="Ellipse 373" class="cls-4" cx="1.172" cy="1.172" r="1.172" transform="translate(10139.107 595.343)"/>
          <circle id="Ellipse_374" data-name="Ellipse 374" class="cls-4" cx="1.173" cy="1.173" r="1.173" transform="translate(10140.829 597.9)"/>
          <path id="Path_1550" data-name="Path 1550" class="cls-4" d="M10130.205,595.342a1.175,1.175,0,0,1-1.174,1.174,1.127,1.127,0,0,1-.274-.034,1.176,1.176,0,0,1-.87-.883,1.163,1.163,0,0,1-.028-.257.336.336,0,0,1,0-.062,1.168,1.168,0,0,1,1.169-1.109,1.07,1.07,0,0,1,.2.019,1.113,1.113,0,0,1,.383.138,1.167,1.167,0,0,1,.572.838A1.052,1.052,0,0,1,10130.205,595.342Z"/>
          <path id="Path_1551" data-name="Path 1551" class="cls-4" d="M10127.116,605.338a1.058,1.058,0,0,1-.075.391,1.047,1.047,0,0,1-.971.654h-.016a.954.954,0,0,1-.161-.016,1.045,1.045,0,0,1-.87-1.029,1.059,1.059,0,0,1,.321-.753,1.046,1.046,0,0,1,1.771.753Z"/>
          <path id="Path_1552" data-name="Path 1552" class="cls-4" d="M10127.977,597.362a1.042,1.042,0,0,1-.479.878,1.028,1.028,0,0,1-.568.168,1.045,1.045,0,0,1-1.046-1.046c0-.011,0-.021,0-.032a1.046,1.046,0,0,1,.8-.983,1.034,1.034,0,0,1,.49,0,1.043,1.043,0,0,1,.8.985A.165.165,0,0,1,10127.977,597.362Z"/>
          <circle id="Ellipse_375" data-name="Ellipse 375" class="cls-4" cx="1.046" cy="1.046" r="1.046" transform="translate(10134.431 592.641)"/>
          <path id="Path_1553" data-name="Path 1553" class="cls-4" d="M10126.813,601.069a1.023,1.023,0,0,1-.117.482,1.034,1.034,0,0,1-.575.5,1.039,1.039,0,0,1-1.09-.24,1.1,1.1,0,0,1-.1-.122,1.042,1.042,0,0,1,.111-1.369.972.972,0,0,1,.214-.162,1.042,1.042,0,0,1,.515-.136,1.045,1.045,0,0,1,1.047,1.045Z"/>
          <circle id="Ellipse_376" data-name="Ellipse 376" class="cls-4" cx="1.046" cy="1.046" r="1.046" transform="translate(10141.645 600.909)"/>
          <circle id="Ellipse_377" data-name="Ellipse 377" class="cls-4" cx="1.046" cy="1.046" r="1.046" transform="translate(10140.955 603.745)"/>
          <path id="Path_1554" data-name="Path 1554" class="cls-4" d="M10128.772,596.317a.917.917,0,0,1-.016.165,1.038,1.038,0,0,1-.782.849.98.98,0,0,1-.25.031,1.041,1.041,0,0,1-.921-.555.98.98,0,0,1-.122-.46.155.155,0,0,1,0-.03,1.046,1.046,0,0,1,1.045-1.047,1.019,1.019,0,0,1,.138.01.993.993,0,0,1,.288.082A1.04,1.04,0,0,1,10128.772,596.317Z"/>
          <circle id="Ellipse_378" data-name="Ellipse 378" class="cls-4" cx="1.046" cy="1.046" r="1.046" transform="translate(10138.479 594.466)"/>
          <path id="Path_1555" data-name="Path 1555" class="cls-4" d="M10133.848,593.374a1.048,1.048,0,0,1-1.045,1.047,1,1,0,0,1-.335-.056,1.044,1.044,0,0,1-.709-.906c0-.028,0-.056,0-.085a1.03,1.03,0,0,1,.125-.493,1.047,1.047,0,0,1,1.947.29A1.067,1.067,0,0,1,10133.848,593.374Z"/>
          <path id="Path_1556" data-name="Path 1556" class="cls-5" d="M10142.547,622.6v0h-17v0a8.458,8.458,0,0,1,2.51-6.028l.175-.17a8.952,8.952,0,0,1,.745-.623c.08-.059.162-.119.244-.175.168-.115.341-.226.518-.328.084-.05.169-.1.254-.145l0,0c.068-.037.137-.077.2-.118.051-.029.1-.06.148-.093.147-.1.292-.2.429-.306v0a5.386,5.386,0,0,0,1.713-2.393,5.3,5.3,0,0,0,.268-1.1,5.559,5.559,0,0,0,.046-.714l1.246.006,1.268.006a5.4,5.4,0,0,0,.306,1.8,5.42,5.42,0,0,0,1.707,2.4c.058.045.116.09.175.133l0,0c.045.035.092.067.138.1a.284.284,0,0,0,.042.029l.037.026.015.01c.053.035.106.068.162.1s.133.08.2.117a.069.069,0,0,1,.029.015c.075.041.151.085.224.129.1.056.194.116.289.177.168.109.33.221.49.343h0a8.593,8.593,0,0,1,.915.791A8.464,8.464,0,0,1,10142.547,622.6Z"/>
          <path id="Path_1557" data-name="Path 1557" class="cls-6" d="M10142.547,622.6h-17a8.458,8.458,0,0,1,2.51-6.028l.175-.17a8.952,8.952,0,0,1,.745-.623c.08-.059.162-.119.244-.175.168-.115.339-.226.517-.33.083-.049.168-.1.253-.144l.006,0h0c.136-.076.271-.157.4-.244.062-.04.12-.082.18-.127l.018-.011c.043-.032.086-.066.13-.1l.048-.038h0l0,0c.1.106.211.205.322.3l0,0a4.581,4.581,0,0,0,2.941,1.077h.013a4.578,4.578,0,0,0,3.274-1.377h0v0c.06.05.12.1.183.143.042.032.085.062.13.093l.042.028.036.026.016.01c.053.035.106.069.162.1s.133.079.2.116a.133.133,0,0,1,.029.014c.075.042.152.085.226.13.1.058.194.117.287.178.168.107.33.221.49.341h0a8.536,8.536,0,0,1,3.413,6.81Z"/>
          <g id="Group_919" data-name="Group 919">
            <path id="Path_1558" data-name="Path 1558" class="cls-7" d="M10138.353,615.272l0,0-.175.177a5.748,5.748,0,0,1-4.13,1.738h0a5.75,5.75,0,0,1-4.141-1.741l-.167-.171,0,0c.084-.049.169-.1.254-.144l.006,0h0l.2-.117.148-.093.048-.034c.062-.04.122-.082.18-.127l.018-.011c.043-.034.088-.067.13-.1l.048-.038,0,0h0v0a4.2,4.2,0,0,0,.322.3l0,0a4.581,4.581,0,0,0,2.941,1.077h.013a4.578,4.578,0,0,0,3.274-1.377h0v0c.056.046.112.091.172.136l0,0,.008,0c.042.033.085.063.13.093.014.01.027.02.042.029l.036.026.016.01c.053.035.106.069.162.1s.133.079.2.116a.133.133,0,0,1,.029.014C10138.2,615.184,10138.279,615.227,10138.353,615.272Z"/>
          </g>
          <path id="Path_1559" data-name="Path 1559" class="cls-5" d="M10140.571,600.588v3.821a7.782,7.782,0,0,1-.074,1.061,8.392,8.392,0,0,1-.731,2.445q-.155.335-.336.653c-.027.048-.055.1-.082.142a9.671,9.671,0,0,1-.8,1.156c-.073.093-.15.184-.229.272a8.062,8.062,0,0,1-2.694,2.073,3.971,3.971,0,0,1-1.574.376,3.92,3.92,0,0,1-1.559-.37,8.056,8.056,0,0,1-2.712-2.079c-.085-.1-.168-.2-.25-.3a9.628,9.628,0,0,1-1.006-1.528c-.069-.134-.138-.27-.2-.408-.038-.082-.075-.165-.11-.249-.056-.126-.108-.256-.157-.386a8.664,8.664,0,0,1-.369-1.277c-.034-.172-.065-.345-.088-.521a7.782,7.782,0,0,1-.074-1.061v-3.821Z"/>
          <path id="Path_1560" data-name="Path 1560" class="cls-4" d="M10127.361,605.5h0a.868.868,0,0,0,.866-.867v-4.163h-.866Z"/>
          <path id="Path_1561" data-name="Path 1561" class="cls-4" d="M10139.864,600.473h.867v5.03h0a.867.867,0,0,1-.867-.867Z"/>
          <circle id="Ellipse_379" data-name="Ellipse 379" class="cls-4" cx="1.046" cy="1.046" r="1.046" transform="translate(10131.376 599.694)"/>
          <circle id="Ellipse_380" data-name="Ellipse 380" class="cls-4" cx="1.046" cy="1.046" r="1.046" transform="translate(10128.958 599.457)"/>
          <circle id="Ellipse_381" data-name="Ellipse 381" class="cls-4" cx="1.046" cy="1.046" r="1.046" transform="translate(10126.475 599.863)"/>
          <circle id="Ellipse_382" data-name="Ellipse 382" class="cls-4" cx="1.046" cy="1.046" r="1.046" transform="translate(10134.431 599.581)"/>
          <circle id="Ellipse_383" data-name="Ellipse 383" class="cls-4" cx="1.046" cy="1.046" r="1.046" transform="translate(10137.593 599.581)"/>
          <circle id="Ellipse_384" data-name="Ellipse 384" class="cls-4" cx="1.046" cy="1.046" r="1.046" transform="translate(10139.763 600.572)"/>
          <circle id="Ellipse_385" data-name="Ellipse 385" class="cls-4" cx="0.796" cy="0.796" r="0.796" transform="translate(10133.25 600.023)"/>
          <circle id="Ellipse_386" data-name="Ellipse 386" class="cls-4" cx="0.796" cy="0.796" r="0.796" transform="translate(10127.858 599.945)"/>
          <circle id="Ellipse_387" data-name="Ellipse 387" class="cls-4" cx="0.796" cy="0.796" r="0.796" transform="translate(10130.581 599.945)"/>
          <circle id="Ellipse_388" data-name="Ellipse 388" class="cls-4" cx="0.796" cy="0.796" r="0.796" transform="translate(10136.322 600.195)"/>
          <circle id="Ellipse_389" data-name="Ellipse 389" class="cls-4" cx="0.796" cy="0.796" r="0.796" transform="translate(10138.89 600.195)"/>
          <path id="Path_1562" data-name="Path 1562" class="cls-8" d="M10139.537,602.565a.052.052,0,0,0-.045-.051,16.641,16.641,0,0,0-2.279-.17,25.711,25.711,0,0,0-3.047.38h-.242c-.126,0-.533-.084-1.054-.17a12.675,12.675,0,0,0-1.991-.21,17.025,17.025,0,0,0-1.949.125c-.156.019-.27.035-.33.045a.052.052,0,0,0-.046.051l-.013.651a.057.057,0,0,0,.035.053l.074.025c.108.042.1,2,.684,2.492.348.289.657.454,1.959.454a1.832,1.832,0,0,0,1.679-.811,5.984,5.984,0,0,0,.613-1.468.512.512,0,0,1,.455-.462h.006a.506.506,0,0,1,.46.462,6.067,6.067,0,0,0,.613,1.468,1.833,1.833,0,0,0,1.679.811c1.3,0,1.611-.165,1.958-.454.585-.49.576-2.45.686-2.492l.073-.025a.057.057,0,0,0,.035-.053Z"/>
        </g>
      </g>
    </g>
    <g id="Group_924" data-name="Group 924">
      <g id="Group_923" data-name="Group 923" class="cls-3">
        <circle id="Ellipse_391" data-name="Ellipse 391" class="cls-4" cx="1.172" cy="1.172" r="1.172" transform="translate(10140.692 605.106)"/>
      </g>
    </g>
    <g id="Group_926" data-name="Group 926">
      <g id="Group_925" data-name="Group 925" class="cls-3">
        <circle id="Ellipse_393" data-name="Ellipse 393" class="cls-4" cx="0.796" cy="0.796" r="0.796" transform="translate(10142.241 599.691)"/>
      </g>
    </g>
    <g id="Group_928" data-name="Group 928">
      <g id="Group_927" data-name="Group 927" class="cls-3">
        <circle id="Ellipse_395" data-name="Ellipse 395" class="cls-4" cx="0.796" cy="0.796" r="0.796" transform="translate(10142.056 602.687)"/>
      </g>
    </g>
  </g>
</svg>
