<svg xmlns="http://www.w3.org/2000/svg" xmlns:xlink="http://www.w3.org/1999/xlink" width="35.169" height="35.169" viewBox="0 0 35.169 35.169">
  <defs>
    <style>
      .cls-1, .cls-2 {
        fill: none;
      }

      .cls-2 {
        stroke: #bdbdbd;
        stroke-miterlimit: 10;
      }

      .cls-3 {
        clip-path: url(#clip-path);
      }

      .cls-4 {
        fill: #141720;
      }

      .cls-5 {
        fill: #d3b9ad;
      }

      .cls-6 {
        fill: #ecc49e;
      }

      .cls-7 {
        fill: #543e36;
      }

      .cls-8 {
        fill: #1a1a1a;
      }
    </style>
    <clipPath id="clip-path">
      <circle id="Ellipse_354" data-name="Ellipse 354" class="cls-1" cx="14.664" cy="14.664" r="14.664" transform="translate(10120.901 298.597)"/>
    </clipPath>
  </defs>
  <g id="Group_900" data-name="Group 900" transform="translate(-10117.981 -293.257)">
    <g id="Group_889" data-name="Group 889">
      <circle id="SVGID" class="cls-2" cx="17.085" cy="17.085" r="17.085" transform="translate(10118.481 293.757)"/>
    </g>
    <g id="Group_893" data-name="Group 893">
      <g id="Group_892" data-name="Group 892" class="cls-3">
        <g id="Group_891" data-name="Group 891">
          <path id="Path_1496" data-name="Path 1496" class="cls-4" d="M10144.588,308.992c0,.253-.011.5-.031.752a9,9,0,0,1-.188,1.235,9.032,9.032,0,0,1-1.285,3,9.143,9.143,0,0,1-.766.993c-.069.077-.139.152-.208.226a8.593,8.593,0,0,1-.733.689c-.066.056-.131.111-.2.164a8.638,8.638,0,0,1-1.009.7c-.109.066-.221.128-.334.189a9.035,9.035,0,0,1-4.268,1.072,9.061,9.061,0,0,1-4.271-1.072c-.148-.081-.3-.165-.438-.253a8.838,8.838,0,0,1-1.225-.9c-.042-.036-.085-.073-.125-.111a8.839,8.839,0,0,1-.8-.828c-.046-.055-.093-.109-.138-.165a9.156,9.156,0,0,1-.988-1.5c-.028-.051-.053-.1-.079-.154a9.089,9.089,0,0,1-.55-1.36c-.029-.1-.057-.189-.081-.284a8.714,8.714,0,0,1-.279-1.508c-.008-.086-.016-.173-.022-.261-.014-.207-.021-.417-.021-.627,0-.127,0-.252.008-.377,0-.062,0-.123.01-.185a8.738,8.738,0,0,1,.156-1.2c.018-.088.036-.176.057-.263a8.438,8.438,0,0,1,.264-.918c.037-.109.077-.218.119-.324a8.576,8.576,0,0,1,.437-.955c.13-.245.271-.484.423-.715.1-.151.2-.3.309-.441s.241-.312.369-.461a8.243,8.243,0,0,1,.715-.747c.086-.082.173-.16.262-.237a8.687,8.687,0,0,1,1.077-.8c.129-.082.258-.16.391-.234.193-.109.391-.212.593-.306.125-.059.251-.115.38-.168a9.016,9.016,0,0,1,1.17-.4c.2-.053.406-.1.614-.136a9.159,9.159,0,0,1,.958-.128c.164-.013.329-.021.5-.024.072,0,.145,0,.218,0,.174,0,.345.005.515.014q.164.011.325.024a8.753,8.753,0,0,1,1.326.225c.1.024.2.049.295.077a9.025,9.025,0,0,1,1.4.527c.128.061.253.123.378.191.234.123.46.258.682.4l.117.077a8.792,8.792,0,0,1,.883.681,7.3,7.3,0,0,1,.531.5,8.313,8.313,0,0,1,.743.86c.046.06.091.119.132.18a8.594,8.594,0,0,1,.611.973c.034.06.066.123.1.184a8.9,8.9,0,0,1,.7,1.854,8.655,8.655,0,0,1,.2,1.01A9.085,9.085,0,0,1,10144.588,308.992Z"/>
          <path id="Path_1497" data-name="Path 1497" class="cls-4" d="M10130.042,315.09a.1.1,0,0,1,0,.024.787.787,0,0,1-.408.672.635.635,0,0,1-.095.045.768.768,0,0,1-.292.056.8.8,0,0,1-.795-.8.818.818,0,0,1,.031-.219.728.728,0,0,1,.083-.189.792.792,0,0,1,.681-.387.779.779,0,0,1,.207.028.726.726,0,0,1,.275.134.808.808,0,0,1,.179.188A.788.788,0,0,1,10130.042,315.09Z"/>
          <path id="Path_1498" data-name="Path 1498" class="cls-4" d="M10127.861,306.511a.784.784,0,0,1-.122.42.793.793,0,0,1-.675.375.8.8,0,0,1-.349-.08.875.875,0,0,1-.158-.1.8.8,0,0,1,.264-1.372.752.752,0,0,1,.243-.039.576.576,0,0,1,.092.007.79.79,0,0,1,.693.663A.69.69,0,0,1,10127.861,306.511Z"/>
          <path id="Path_1499" data-name="Path 1499" class="cls-4" d="M10132.319,301.2a.8.8,0,0,1-.795.8.794.794,0,0,1-.777-.626.762.762,0,0,1-.02-.17.8.8,0,1,1,1.592,0Z"/>
          <circle id="Ellipse_331" data-name="Ellipse 331" class="cls-4" cx="0.796" cy="0.796" r="0.796" transform="translate(10139.016 300.741)"/>
          <path id="Path_1500" data-name="Path 1500" class="cls-4" d="M10127.7,309.147a.776.776,0,0,1-.055.287.8.8,0,0,1-.741.51.777.777,0,0,1-.314-.064.855.855,0,0,1-.183-.111.8.8,0,0,1,.043-1.275.706.706,0,0,1,.113-.064.78.78,0,0,1,.341-.077.792.792,0,0,1,.739.5A.76.76,0,0,1,10127.7,309.147Z"/>
          <circle id="Ellipse_332" data-name="Ellipse 332" class="cls-4" cx="0.796" cy="0.796" r="0.796" transform="translate(10140.861 314.626)"/>
          <circle id="Ellipse_333" data-name="Ellipse 333" class="cls-4" cx="0.796" cy="0.796" r="0.796" transform="translate(10141.68 313.701)"/>
          <circle id="Ellipse_334" data-name="Ellipse 334" class="cls-4" cx="0.796" cy="0.796" r="0.796" transform="translate(10139.811 315.292)"/>
          <path id="Path_1501" data-name="Path 1501" class="cls-4" d="M10136.424,300.177a.8.8,0,0,1-.8.8.308.308,0,0,1-.061,0,.764.764,0,0,1-.415-.157.79.79,0,0,1-.319-.636.767.767,0,0,1,.021-.179.782.782,0,0,1,.3-.455.765.765,0,0,1,.415-.157.308.308,0,0,1,.061,0,.8.8,0,0,1,.656.345.81.81,0,0,1,.123.282A.859.859,0,0,1,10136.424,300.177Z"/>
          <circle id="Ellipse_335" data-name="Ellipse 335" class="cls-4" cx="0.796" cy="0.796" r="0.796" transform="translate(10142.476 303.37)"/>
          <path id="Path_1502" data-name="Path 1502" class="cls-4" d="M10129.632,313.7a1.138,1.138,0,0,1-.061.37,1.091,1.091,0,0,1-.119.251,1.163,1.163,0,0,1-.75.524,1.01,1.01,0,0,1-.221.024.081.081,0,0,1-.021,0,1.172,1.172,0,0,1-1.046-1.7.934.934,0,0,1,.083-.138,1.172,1.172,0,0,1,.963-.505c.034,0,.068,0,.1.005a1.175,1.175,0,0,1,1.071,1.169Z"/>
          <path id="Path_1503" data-name="Path 1503" class="cls-4" d="M10131.842,315.533a1.17,1.17,0,0,1-.8,1.109,1.241,1.241,0,0,1-.376.062,1.167,1.167,0,0,1-1.132-.873.83.83,0,0,1-.03-.156.972.972,0,0,1-.01-.142,1.169,1.169,0,0,1,.341-.827.627.627,0,0,1,.068-.061,1.147,1.147,0,0,1,.763-.285A1.172,1.172,0,0,1,10131.842,315.533Z"/>
          <path id="Path_1504" data-name="Path 1504" class="cls-4" d="M10129.032,305.211a1.172,1.172,0,0,1-1.171,1.173h-.012a1.167,1.167,0,0,1-.812-.339,1.107,1.107,0,0,1-.216-.292,1.169,1.169,0,0,1,.585-1.62,1.127,1.127,0,0,1,.455-.093.984.984,0,0,1,.154.011,1.161,1.161,0,0,1,1,.992A.867.867,0,0,1,10129.032,305.211Z"/>
          <circle id="Ellipse_336" data-name="Ellipse 336" class="cls-4" cx="1.172" cy="1.172" r="1.172" transform="translate(10137.466 299.801)"/>
          <path id="Path_1505" data-name="Path 1505" class="cls-4" d="M10134.07,300.74a1.161,1.161,0,0,1-.082.428,1.172,1.172,0,0,1-1.818.492,1.154,1.154,0,0,1-.439-.835.491.491,0,0,1-.006-.085,1.15,1.15,0,0,1,.041-.3,1.169,1.169,0,0,1,1.636-.754,1.177,1.177,0,0,1,.669,1.057Z"/>
          <path id="Path_1506" data-name="Path 1506" class="cls-4" d="M10128.451,310.548a1.175,1.175,0,0,1-1.174,1.172,1.1,1.1,0,0,1-.33-.049,1.011,1.011,0,0,1-.235-.1,1.17,1.17,0,0,1-.605-1.026,1.156,1.156,0,0,1,.3-.779.894.894,0,0,1,.16-.151,1.165,1.165,0,0,1,1.078-.184A1.174,1.174,0,0,1,10128.451,310.548Z"/>
          <circle id="Ellipse_337" data-name="Ellipse 337" class="cls-4" cx="1.172" cy="1.172" r="1.172" transform="translate(10140.627 302.146)"/>
          <circle id="Ellipse_338" data-name="Ellipse 338" class="cls-4" cx="1.173" cy="1.173" r="1.173" transform="translate(10142.349 304.702)"/>
          <path id="Path_1507" data-name="Path 1507" class="cls-4" d="M10131.725,302.145a1.173,1.173,0,0,1-1.173,1.173,1.12,1.12,0,0,1-.273-.033,1.173,1.173,0,0,1-.871-.883,1.114,1.114,0,0,1-.029-.257.331.331,0,0,1,0-.062,1.169,1.169,0,0,1,1.17-1.109,1.052,1.052,0,0,1,.2.019,1.087,1.087,0,0,1,.383.138,1.16,1.16,0,0,1,.572.838A1.044,1.044,0,0,1,10131.725,302.145Z"/>
          <path id="Path_1508" data-name="Path 1508" class="cls-4" d="M10128.636,312.141a1.043,1.043,0,0,1-1.046,1.045h-.014a.951.951,0,0,1-.162-.016,1.045,1.045,0,0,1-.871-1.029,1.016,1.016,0,0,1,.169-.567.923.923,0,0,1,.154-.186,1.027,1.027,0,0,1,.724-.293,1.046,1.046,0,0,1,1.046,1.046Z"/>
          <path id="Path_1509" data-name="Path 1509" class="cls-4" d="M10129.5,304.165a1.045,1.045,0,0,1-.479.878,1.033,1.033,0,0,1-.567.168,1.043,1.043,0,0,1-1.046-1.046c0-.012,0-.021,0-.032a1.043,1.043,0,0,1,.8-.983,1.037,1.037,0,0,1,.491,0,1.043,1.043,0,0,1,.8.985A.165.165,0,0,1,10129.5,304.165Z"/>
          <circle id="Ellipse_339" data-name="Ellipse 339" class="cls-4" cx="1.046" cy="1.046" r="1.046" transform="translate(10135.95 299.444)"/>
          <path id="Path_1510" data-name="Path 1510" class="cls-4" d="M10128.334,307.872a1.047,1.047,0,0,1-1.783.743.921.921,0,0,1-.1-.121,1.044,1.044,0,0,1,.11-1.369.97.97,0,0,1,.215-.162,1.039,1.039,0,0,1,.515-.136,1.045,1.045,0,0,1,1.047,1.045Z"/>
          <circle id="Ellipse_340" data-name="Ellipse 340" class="cls-4" cx="1.046" cy="1.046" r="1.046" transform="translate(10143.164 307.712)"/>
          <circle id="Ellipse_341" data-name="Ellipse 341" class="cls-4" cx="1.046" cy="1.046" r="1.046" transform="translate(10142.476 310.548)"/>
          <path id="Path_1511" data-name="Path 1511" class="cls-4" d="M10130.292,303.12a1.016,1.016,0,0,1-.014.165,1.043,1.043,0,0,1-.783.849.98.98,0,0,1-.25.03,1.04,1.04,0,0,1-.921-.554.991.991,0,0,1-.122-.46.165.165,0,0,1,0-.031,1.045,1.045,0,0,1,1.045-1.046.878.878,0,0,1,.137.01,1,1,0,0,1,.288.081A1.041,1.041,0,0,1,10130.292,303.12Z"/>
          <circle id="Ellipse_342" data-name="Ellipse 342" class="cls-4" cx="1.046" cy="1.046" r="1.046" transform="translate(10139.999 301.269)"/>
          <path id="Path_1512" data-name="Path 1512" class="cls-4" d="M10135.368,300.177a1.046,1.046,0,0,1-2.088.085c0-.029,0-.056,0-.085a1.047,1.047,0,0,1,2.072-.2A1.059,1.059,0,0,1,10135.368,300.177Z"/>
          <path id="Path_1513" data-name="Path 1513" class="cls-5" d="M10144.067,329.4h-17a8.462,8.462,0,0,1,2.51-6.028c.058-.058.115-.114.175-.17a8.958,8.958,0,0,1,.745-.623c.08-.06.162-.119.244-.175.168-.115.341-.226.517-.328.084-.05.169-.1.254-.145l0,0c.068-.037.137-.077.2-.119.051-.029.1-.059.149-.093a4.848,4.848,0,0,0,.428-.306h0a5.389,5.389,0,0,0,1.981-3.493,5.745,5.745,0,0,0,.046-.715l1.246.007,1.267.006a5.5,5.5,0,0,0,.045.7,5.371,5.371,0,0,0,1.968,3.5c.059.044.116.089.176.133h0c.045.036.092.068.138.1a.244.244,0,0,0,.042.029.31.31,0,0,0,.037.026l.014.009c.053.036.108.069.162.1s.133.08.2.117a.089.089,0,0,1,.029.014c.075.042.15.085.225.13.1.056.194.116.288.176.168.109.33.222.491.343h0a8.606,8.606,0,0,1,.915.792A8.464,8.464,0,0,1,10144.067,329.4Z"/>
          <path id="Path_1514" data-name="Path 1514" class="cls-6" d="M10144.067,329.4h-17a8.462,8.462,0,0,1,2.51-6.028c.058-.058.115-.114.175-.17a8.958,8.958,0,0,1,.745-.623c.08-.06.162-.119.244-.175.168-.115.34-.226.516-.33.083-.05.168-.1.253-.144l.006,0v0c.138-.075.271-.157.4-.243.061-.04.12-.082.179-.127l.019-.011c.043-.032.087-.066.13-.1l.048-.038h0l0,0c.1.106.211.205.324.3v0a4.573,4.573,0,0,0,2.94,1.077h.014a4.576,4.576,0,0,0,3.273-1.377l0,0h0c.061.049.121.1.184.142.042.032.085.063.13.093a.454.454,0,0,0,.042.029.31.31,0,0,0,.037.026l.014.01c.053.035.107.069.162.1s.133.079.2.116a.157.157,0,0,1,.029.014c.074.042.151.085.226.13.1.057.194.117.287.178.168.107.33.221.49.341h0a8.713,8.713,0,0,1,.915.793A8.464,8.464,0,0,1,10144.067,329.4Z"/>
          <g id="Group_890" data-name="Group 890">
            <path id="Path_1515" data-name="Path 1515" class="cls-7" d="M10139.873,322.075h0l-.175.178a5.754,5.754,0,0,1-4.13,1.738h0a5.756,5.756,0,0,1-4.142-1.741l-.167-.171v0c.083-.05.168-.1.253-.144l.006,0v0c.069-.038.137-.077.2-.117.049-.03.1-.061.149-.093l.048-.033c.061-.04.122-.082.179-.127l.019-.011.13-.1.048-.039,0,0h0a4.223,4.223,0,0,0,.323.3l0,0a4.573,4.573,0,0,0,2.94,1.077h.014a4.576,4.576,0,0,0,3.273-1.377l0,0h0c.057.046.113.091.173.136l0,0,.008,0c.042.032.085.063.13.093.013.01.027.019.042.029a.31.31,0,0,0,.037.026l.014.009c.053.036.107.069.162.1s.133.078.2.115a.269.269,0,0,1,.029.015C10139.722,321.987,10139.8,322.03,10139.873,322.075Z"/>
          </g>
          <path id="Path_1516" data-name="Path 1516" class="cls-5" d="M10142.091,307.391v3.821a7.631,7.631,0,0,1-.074,1.061,8.4,8.4,0,0,1-.73,2.445c-.1.223-.216.441-.336.653l-.082.142a9.938,9.938,0,0,1-.8,1.156c-.074.093-.151.184-.23.272a8.045,8.045,0,0,1-2.694,2.072,3.471,3.471,0,0,1-3.133.007,8.065,8.065,0,0,1-2.712-2.079c-.085-.1-.168-.2-.25-.3a9.639,9.639,0,0,1-1-1.527c-.07-.135-.137-.271-.2-.409-.039-.081-.076-.165-.111-.248-.056-.127-.106-.256-.156-.386a8.477,8.477,0,0,1-.369-1.278c-.035-.171-.065-.344-.088-.521a7.772,7.772,0,0,1-.074-1.061v-3.82Z"/>
          <path id="Path_1517" data-name="Path 1517" class="cls-4" d="M10128.881,312.3h0a.867.867,0,0,0,.867-.867v-4.163h-.867Z"/>
          <path id="Path_1518" data-name="Path 1518" class="cls-4" d="M10141.384,307.275h.867v5.03h0a.867.867,0,0,1-.867-.867Z"/>
          <circle id="Ellipse_343" data-name="Ellipse 343" class="cls-4" cx="1.046" cy="1.046" r="1.046" transform="translate(10132.896 306.497)"/>
          <circle id="Ellipse_344" data-name="Ellipse 344" class="cls-4" cx="1.046" cy="1.046" r="1.046" transform="translate(10130.478 306.26)"/>
          <circle id="Ellipse_345" data-name="Ellipse 345" class="cls-4" cx="1.046" cy="1.046" r="1.046" transform="translate(10127.995 306.666)"/>
          <circle id="Ellipse_346" data-name="Ellipse 346" class="cls-4" cx="1.046" cy="1.046" r="1.046" transform="translate(10135.95 306.384)"/>
          <circle id="Ellipse_347" data-name="Ellipse 347" class="cls-4" cx="1.046" cy="1.046" r="1.046" transform="translate(10139.113 306.384)"/>
          <circle id="Ellipse_348" data-name="Ellipse 348" class="cls-4" cx="1.046" cy="1.046" r="1.046" transform="translate(10141.283 307.375)"/>
          <circle id="Ellipse_349" data-name="Ellipse 349" class="cls-4" cx="0.796" cy="0.796" r="0.796" transform="translate(10134.771 306.826)"/>
          <circle id="Ellipse_350" data-name="Ellipse 350" class="cls-4" cx="0.796" cy="0.796" r="0.796" transform="translate(10129.379 306.747)"/>
          <circle id="Ellipse_351" data-name="Ellipse 351" class="cls-4" cx="0.796" cy="0.796" r="0.796" transform="translate(10132.101 306.747)"/>
          <circle id="Ellipse_352" data-name="Ellipse 352" class="cls-4" cx="0.796" cy="0.796" r="0.796" transform="translate(10137.843 306.997)"/>
          <circle id="Ellipse_353" data-name="Ellipse 353" class="cls-4" cx="0.796" cy="0.796" r="0.796" transform="translate(10140.409 306.997)"/>
          <path id="Path_1519" data-name="Path 1519" class="cls-8" d="M10141.057,309.368a.051.051,0,0,0-.045-.051,16.637,16.637,0,0,0-2.278-.17,25.681,25.681,0,0,0-3.047.38h-.241c-.127,0-.534-.084-1.056-.17a12.678,12.678,0,0,0-1.99-.21,16.737,16.737,0,0,0-1.948.125c-.157.019-.271.035-.331.045a.051.051,0,0,0-.046.051l-.014.65a.06.06,0,0,0,.035.053l.074.026c.109.042.1,2,.686,2.492.347.289.656.454,1.958.454a1.836,1.836,0,0,0,1.68-.811,6.008,6.008,0,0,0,.612-1.468.51.51,0,0,1,.454-.462h.007a.507.507,0,0,1,.46.462,6.092,6.092,0,0,0,.612,1.468,1.835,1.835,0,0,0,1.68.811c1.3,0,1.61-.165,1.959-.454.585-.49.574-2.45.684-2.492l.074-.026a.058.058,0,0,0,.035-.053Z"/>
        </g>
      </g>
    </g>
    <g id="Group_895" data-name="Group 895">
      <g id="Group_894" data-name="Group 894" class="cls-3">
        <circle id="Ellipse_355" data-name="Ellipse 355" class="cls-4" cx="1.172" cy="1.172" r="1.172" transform="translate(10142.212 311.908)"/>
      </g>
    </g>
    <g id="Group_897" data-name="Group 897">
      <g id="Group_896" data-name="Group 896" class="cls-3">
        <circle id="Ellipse_357" data-name="Ellipse 357" class="cls-4" cx="0.796" cy="0.796" r="0.796" transform="translate(10143.762 306.494)"/>
      </g>
    </g>
    <g id="Group_899" data-name="Group 899">
      <g id="Group_898" data-name="Group 898" class="cls-3">
        <circle id="Ellipse_359" data-name="Ellipse 359" class="cls-4" cx="0.796" cy="0.796" r="0.796" transform="translate(10143.575 309.49)"/>
      </g>
    </g>
  </g>
</svg>
