<svg xmlns="http://www.w3.org/2000/svg" xmlns:xlink="http://www.w3.org/1999/xlink" width="318.644" height="318.689" viewBox="0 0 318.644 318.689">
  <defs>
    <style>
      .cls-1 {
        fill: none;
      }

      .cls-2 {
        fill: #846c3f;
      }

      .cls-3 {
        clip-path: url(#clip-path);
      }

      .cls-4 {
        fill: #141720;
      }

      .cls-5 {
        fill: #d6bcb0;
      }

      .cls-6 {
        fill: #efc7a1;
      }

      .cls-7 {
        fill: #543e36;
      }

      .cls-8 {
        fill: #1a1a1a;
      }

      .cls-9 {
        fill: rgba(33,33,33,0.58);
      }

      .cls-10 {
        fill: #fff;
        font-size: 20px;
        font-family: Nunito-Light, Nunito;
        font-weight: 300;
      }
    </style>
    <clipPath id="clip-path">
      <circle id="Ellipse_433" data-name="Ellipse 433" class="cls-1" cx="136.752" cy="136.752" r="136.752" transform="translate(11234.888 866.188)"/>
    </clipPath>
  </defs>
  <g id="Group_1074" data-name="Group 1074" transform="translate(-11212.317 -821.049)">
    <g id="Group_1073" data-name="Group 1073">
      <g id="Group_1062" data-name="Group 1062">
        <circle id="SVGID" class="cls-2" cx="159.322" cy="159.322" r="159.322" transform="translate(11212.317 821.049)"/>
      </g>
      <g id="Group_1066" data-name="Group 1066">
        <g id="Group_1065" data-name="Group 1065" class="cls-3">
          <g id="Group_1064" data-name="Group 1064">
            <path id="Path_1837" data-name="Path 1837" class="cls-4" d="M11455.774,963.12c0,2.362-.105,4.694-.284,7.009a85.887,85.887,0,0,1-1.764,11.524,84.174,84.174,0,0,1-11.986,28.008,84.241,84.241,0,0,1-7.144,9.265c-.643.718-1.287,1.42-1.943,2.108a79.282,79.282,0,0,1-6.829,6.427c-.614.523-1.227,1.032-1.854,1.525a81.658,81.658,0,0,1-9.415,6.5c-1.016.614-2.062,1.2-3.108,1.765a84.287,84.287,0,0,1-39.8,10,84.422,84.422,0,0,1-39.831-10c-1.391-.762-2.766-1.541-4.1-2.362a83.082,83.082,0,0,1-11.418-8.414c-.39-.33-.793-.673-1.166-1.031a83.175,83.175,0,0,1-7.5-7.726c-.433-.509-.866-1.016-1.285-1.539a84.573,84.573,0,0,1-9.22-13.944c-.255-.478-.493-.956-.733-1.435a84.768,84.768,0,0,1-5.127-12.689q-.4-1.322-.762-2.645a82.113,82.113,0,0,1-2.6-14.063c-.074-.807-.15-1.614-.21-2.436-.119-1.93-.194-3.886-.194-5.846,0-1.18.03-2.346.075-3.512.015-.583.045-1.15.09-1.733a81.416,81.416,0,0,1,1.45-11.223c.164-.823.343-1.644.522-2.453a81.394,81.394,0,0,1,2.468-8.563c.343-1.016.716-2.032,1.105-3.019a81.179,81.179,0,0,1,4.08-8.909q1.816-3.429,3.946-6.665c.911-1.4,1.868-2.764,2.869-4.109,1.09-1.48,2.241-2.915,3.438-4.3a79.489,79.489,0,0,1,6.665-6.966c.807-.762,1.614-1.495,2.451-2.211a81.577,81.577,0,0,1,10.043-7.458c1.2-.761,2.406-1.494,3.646-2.182,1.794-1.016,3.633-1.974,5.517-2.855q1.748-.828,3.542-1.57a84.247,84.247,0,0,1,10.91-3.676c1.882-.493,3.795-.911,5.738-1.269a83.7,83.7,0,0,1,8.938-1.2q2.285-.18,4.618-.224c.673-.015,1.345-.029,2.033-.029q2.418,0,4.8.135c1.016.059,2.031.134,3.033.224a81.723,81.723,0,0,1,12.36,2.093c.928.224,1.839.464,2.75.718a83.74,83.74,0,0,1,13.078,4.916c1.2.569,2.362,1.152,3.528,1.78,2.182,1.15,4.288,2.4,6.351,3.752.359.239.732.478,1.091.718a82.3,82.3,0,0,1,8.235,6.352c1.732,1.48,3.377,3.049,4.962,4.694a80.193,80.193,0,0,1,6.921,8.026c.433.552.853,1.106,1.238,1.673a82.33,82.33,0,0,1,5.7,9.072c.314.569.612,1.152.9,1.719a83.325,83.325,0,0,1,6.562,17.292,81.982,81.982,0,0,1,1.84,9.416A84.178,84.178,0,0,1,11455.774,963.12Z"/>
            <path id="Path_1838" data-name="Path 1838" class="cls-4" d="M11320.128,1019.989a1.152,1.152,0,0,1-.015.224,7.354,7.354,0,0,1-3.812,6.262,4.848,4.848,0,0,1-.883.419,7.159,7.159,0,0,1-2.72.523,7.424,7.424,0,0,1-7.413-7.428,7.763,7.763,0,0,1,.283-2.047,7.184,7.184,0,0,1,.777-1.763,7.41,7.41,0,0,1,8.28-3.348,6.9,6.9,0,0,1,2.572,1.254,7.727,7.727,0,0,1,1.658,1.749A7.343,7.343,0,0,1,11320.128,1019.989Z"/>
            <path id="Path_1839" data-name="Path 1839" class="cls-4" d="M11299.786,939.985a7.425,7.425,0,0,1-10.671,6.666,7.557,7.557,0,0,1-1.48-.942,7.433,7.433,0,0,1,2.451-12.793,7.142,7.142,0,0,1,2.272-.359,5.308,5.308,0,0,1,.852.061,7.361,7.361,0,0,1,6.472,6.186A6.233,6.233,0,0,1,11299.786,939.985Z"/>
            <path id="Path_1840" data-name="Path 1840" class="cls-4" d="M11341.366,890.41a7.413,7.413,0,0,1-5.681,7.218,7.326,7.326,0,0,1-1.733.209,7.406,7.406,0,0,1-7.248-5.844,6.979,6.979,0,0,1-.18-1.584,7.09,7.09,0,0,1,.254-1.883,7.415,7.415,0,0,1,14.588,1.884Z"/>
            <circle id="Ellipse_410" data-name="Ellipse 410" class="cls-4" cx="7.42" cy="7.42" r="7.42" transform="translate(11403.808 886.173)"/>
            <path id="Path_1841" data-name="Path 1841" class="cls-4" d="M11298.262,964.571a7.222,7.222,0,0,1-.509,2.674,7.425,7.425,0,0,1-6.92,4.754,7.318,7.318,0,0,1-2.929-.6,8.272,8.272,0,0,1-1.7-1.03,7.435,7.435,0,0,1,.405-11.9,6.657,6.657,0,0,1,1.061-.6,7.251,7.251,0,0,1,3.169-.718,7.408,7.408,0,0,1,6.905,4.694A7.167,7.167,0,0,1,11298.262,964.571Z"/>
            <circle id="Ellipse_411" data-name="Ellipse 411" class="cls-4" cx="7.42" cy="7.42" r="7.42" transform="translate(11421.025 1015.663)"/>
            <circle id="Ellipse_412" data-name="Ellipse 412" class="cls-4" cx="7.42" cy="7.42" r="7.42" transform="translate(11428.657 1007.031)"/>
            <circle id="Ellipse_413" data-name="Ellipse 413" class="cls-4" cx="7.42" cy="7.42" r="7.42" transform="translate(11411.221 1021.87)"/>
            <path id="Path_1842" data-name="Path 1842" class="cls-4" d="M11379.641,880.919a7.458,7.458,0,0,1-7.428,7.429,3.506,3.506,0,0,1-.569-.031,7.186,7.186,0,0,1-3.87-1.464,7.386,7.386,0,0,1-2.975-5.934,6.778,6.778,0,0,1,.2-1.673,7.269,7.269,0,0,1,2.779-4.245,7.161,7.161,0,0,1,3.87-1.463,3.506,3.506,0,0,1,.569-.031,7.466,7.466,0,0,1,7.264,5.844A7.751,7.751,0,0,1,11379.641,880.919Z"/>
            <circle id="Ellipse_414" data-name="Ellipse 414" class="cls-4" cx="7.42" cy="7.42" r="7.42" transform="translate(11436.076 910.692)"/>
            <path id="Path_1843" data-name="Path 1843" class="cls-4" d="M11316.3,1007.031a10.571,10.571,0,0,1-.568,3.452,10.217,10.217,0,0,1-1.106,2.347,10.884,10.884,0,0,1-7,4.887,9.467,9.467,0,0,1-2.062.224.9.9,0,0,1-.193.014,10.929,10.929,0,0,1-9.759-15.872,8.607,8.607,0,0,1,.777-1.286,10.925,10.925,0,0,1,8.982-4.706c.314,0,.628.014.941.045a10.941,10.941,0,0,1,9.983,10.9Z"/>
            <path id="Path_1844" data-name="Path 1844" class="cls-4" d="M11336.912,1024.114a10.9,10.9,0,0,1-7.429,10.343,9.758,9.758,0,0,1-1.764.433,9.6,9.6,0,0,1-1.749.15,10.88,10.88,0,0,1-10.552-8.145,7.661,7.661,0,0,1-.283-1.449,9.823,9.823,0,0,1-.09-1.33,10.916,10.916,0,0,1,3.183-7.712,7.315,7.315,0,0,1,.629-.568,10.729,10.729,0,0,1,7.113-2.661A10.944,10.944,0,0,1,11336.912,1024.114Z"/>
            <path id="Path_1845" data-name="Path 1845" class="cls-4" d="M11310.712,927.864a10.932,10.932,0,0,1-10.926,10.94h-.1a10.872,10.872,0,0,1-7.576-3.169,10.358,10.358,0,0,1-2.018-2.719,10.9,10.9,0,0,1,5.454-15.11,10.562,10.562,0,0,1,4.244-.866,9.422,9.422,0,0,1,1.45.1,10.846,10.846,0,0,1,9.341,9.252A8.973,8.973,0,0,1,11310.712,927.864Z"/>
            <circle id="Ellipse_415" data-name="Ellipse 415" class="cls-4" cx="10.933" cy="10.933" r="10.933" transform="translate(11389.36 877.41)"/>
            <path id="Path_1846" data-name="Path 1846" class="cls-4" d="M11357.686,886.166a10.771,10.771,0,0,1-.762,3.99,10.914,10.914,0,0,1-16.949,4.588,10.76,10.76,0,0,1-4.109-7.786,6.768,6.768,0,0,1-.045-.792,10.408,10.408,0,0,1,.388-2.825,10.888,10.888,0,0,1,15.245-7.025,10.92,10.92,0,0,1,6.232,9.85Z"/>
            <path id="Path_1847" data-name="Path 1847" class="cls-4" d="M11305.287,977.633a10.952,10.952,0,0,1-10.94,10.925,10.478,10.478,0,0,1-3.079-.45,9.671,9.671,0,0,1-2.2-.911,10.907,10.907,0,0,1-2.869-16.829,8.254,8.254,0,0,1,1.494-1.4,10.844,10.844,0,0,1,10.058-1.72A10.945,10.945,0,0,1,11305.287,977.633Z"/>
            <circle id="Ellipse_416" data-name="Ellipse 416" class="cls-4" cx="10.933" cy="10.933" r="10.933" transform="translate(11418.841 899.278)"/>
            <circle id="Ellipse_417" data-name="Ellipse 417" class="cls-4" cx="10.934" cy="10.934" r="10.934" transform="translate(11434.895 923.119)"/>
            <path id="Path_1848" data-name="Path 1848" class="cls-4" d="M11335.82,899.272a10.945,10.945,0,0,1-10.94,10.94,10.27,10.27,0,0,1-2.556-.314,10.937,10.937,0,0,1-8.116-8.235,10.456,10.456,0,0,1-.269-2.391,3.775,3.775,0,0,1,.03-.583,10.906,10.906,0,0,1,10.91-10.343,10.019,10.019,0,0,1,1.9.179,10.425,10.425,0,0,1,3.571,1.285,10.86,10.86,0,0,1,5.336,7.816A9.831,9.831,0,0,1,11335.82,899.272Z"/>
            <path id="Path_1849" data-name="Path 1849" class="cls-4" d="M11307.02,992.488a9.724,9.724,0,0,1-9.759,9.746h-.133a9.922,9.922,0,0,1-1.511-.15,9.749,9.749,0,0,1-8.115-9.6,9.576,9.576,0,0,1,1.569-5.291,9.448,9.448,0,0,1,1.435-1.734,9.622,9.622,0,0,1,6.755-2.735,9.768,9.768,0,0,1,9.759,9.76Z"/>
            <path id="Path_1850" data-name="Path 1850" class="cls-4" d="M11315.046,918.1a9.729,9.729,0,0,1-4.469,8.19,9.607,9.607,0,0,1-5.291,1.569,9.745,9.745,0,0,1-9.76-9.759,2.182,2.182,0,0,1,.014-.3,9.726,9.726,0,0,1,7.429-9.161,9,9,0,0,1,2.317-.285,9.3,9.3,0,0,1,2.257.27,9.74,9.74,0,0,1,7.488,9.192A1.82,1.82,0,0,1,11315.046,918.1Z"/>
            <circle id="Ellipse_418" data-name="Ellipse 418" class="cls-4" cx="9.754" cy="9.754" r="9.754" transform="translate(11375.228 874.084)"/>
            <path id="Path_1851" data-name="Path 1851" class="cls-4" d="M11304.2,952.674a9.753,9.753,0,0,1-16.618,6.935,8.564,8.564,0,0,1-.972-1.135,9.727,9.727,0,0,1,1.029-12.763,9.024,9.024,0,0,1,2-1.511,9.671,9.671,0,0,1,4.8-1.27,9.914,9.914,0,0,1,7.713,3.766A9.657,9.657,0,0,1,11304.2,952.674Z"/>
            <circle id="Ellipse_419" data-name="Ellipse 419" class="cls-4" cx="9.753" cy="9.753" r="9.753" transform="translate(11442.5 951.182)"/>
            <circle id="Ellipse_420" data-name="Ellipse 420" class="cls-4" cx="9.753" cy="9.753" r="9.753" transform="translate(11436.076 977.628)"/>
            <path id="Path_1852" data-name="Path 1852" class="cls-4" d="M11322.459,908.359a8.652,8.652,0,0,1-.135,1.539,9.706,9.706,0,0,1-7.293,7.921,9.2,9.2,0,0,1-2.332.284,9.721,9.721,0,0,1-8.594-5.171,9.272,9.272,0,0,1-1.137-4.29,1.859,1.859,0,0,1-.015-.285,9.749,9.749,0,0,1,9.745-9.758,8.893,8.893,0,0,1,1.271.09,9.209,9.209,0,0,1,2.691.762A9.7,9.7,0,0,1,11322.459,908.359Z"/>
            <circle id="Ellipse_421" data-name="Ellipse 421" class="cls-4" cx="9.754" cy="9.754" r="9.754" transform="translate(11411.543 908.917) rotate(-80.783)"/>
            <path id="Path_1853" data-name="Path 1853" class="cls-4" d="M11369.792,880.919a9.771,9.771,0,0,1-9.744,9.76,9.416,9.416,0,0,1-3.124-.523,9.719,9.719,0,0,1-6.6-8.444c-.017-.269-.031-.524-.031-.793a9.616,9.616,0,0,1,1.166-4.6,9.737,9.737,0,0,1,18.338,4.6Z"/>
            <path id="Path_1854" data-name="Path 1854" class="cls-5" d="M11450.917,1153.469v.016h-158.559v-.016a78.879,78.879,0,0,1,23.405-56.21c.538-.538,1.075-1.062,1.629-1.585a82.566,82.566,0,0,1,6.95-5.813c.747-.554,1.509-1.108,2.272-1.63,1.569-1.075,3.184-2.106,4.828-3.063.777-.463,1.569-.912,2.361-1.346a.054.054,0,0,1,.045-.03c.644-.343,1.271-.717,1.9-1.106.478-.269.94-.553,1.389-.868a47.577,47.577,0,0,0,3.991-2.854v-.016a50.131,50.131,0,0,0,18.473-32.568,51.767,51.767,0,0,0,.434-6.665l11.614.06,11.82.059a52.116,52.116,0,0,0,.418,6.516,50.011,50.011,0,0,0,18.354,32.626c.538.418,1.076.837,1.63,1.241a.049.049,0,0,1,.03.016c.419.329.852.628,1.287.912a2.287,2.287,0,0,0,.388.269c.119.09.224.164.343.239l.135.091c.493.328,1,.642,1.51.956.612.374,1.239.747,1.867,1.09a.779.779,0,0,1,.271.136c.7.389,1.406.792,2.092,1.21.912.522,1.808,1.076,2.691,1.645,1.567,1.016,3.079,2.062,4.572,3.2h.031a79.35,79.35,0,0,1,31.829,63.49Z"/>
            <path id="Path_1855" data-name="Path 1855" class="cls-6" d="M11450.917,1153.469h-158.559a78.879,78.879,0,0,1,23.405-56.21c.538-.538,1.075-1.062,1.629-1.585a82.566,82.566,0,0,1,6.95-5.813c.747-.554,1.509-1.108,2.272-1.63,1.569-1.075,3.169-2.106,4.812-3.079.778-.462,1.57-.911,2.362-1.344a.052.052,0,0,1,.06-.016v-.015c1.271-.7,2.525-1.465,3.736-2.272.568-.373,1.121-.762,1.673-1.18.061-.029.105-.076.164-.1q.6-.448,1.211-.94l.449-.359h.015a.2.2,0,0,0,.03.029c.957.987,1.973,1.913,3.021,2.81,0,.016,0,.016.014.016a42.659,42.659,0,0,0,27.425,10.043h.121a42.705,42.705,0,0,0,30.533-12.839l.016-.014.014-.016c.555.462,1.121.9,1.705,1.33.389.3.792.583,1.211.868.119.09.254.178.389.268.119.091.224.165.343.24.045.031.09.06.136.09.492.329,1,.643,1.508.957.614.374,1.24.731,1.868,1.076a1.64,1.64,0,0,1,.271.133c.7.39,1.42.793,2.105,1.211.913.538,1.81,1.092,2.677,1.66,1.568,1,3.078,2.063,4.573,3.182h.03a79.554,79.554,0,0,1,31.831,63.5Z"/>
            <g id="Group_1063" data-name="Group 1063">
              <path id="Path_1856" data-name="Path 1856" class="cls-7" d="M11411.8,1085.122l-.014.016-1.63,1.658a53.639,53.639,0,0,1-38.516,16.2h-.029a53.665,53.665,0,0,1-38.62-16.232l-1.554-1.6-.015-.016c.777-.462,1.57-.911,2.362-1.344a.05.05,0,0,1,.059-.016v-.015c.644-.359,1.271-.718,1.9-1.092.462-.283.926-.568,1.39-.867.149-.1.3-.21.449-.314.568-.374,1.135-.762,1.673-1.181.061-.029.105-.075.164-.1.4-.314.821-.628,1.211-.941l.449-.359a.252.252,0,0,0,.029.029h.015v.016a38.335,38.335,0,0,0,3.019,2.794c0,.016,0,.016.016.016a42.094,42.094,0,0,0,8.7,5.68,42.526,42.526,0,0,0,18.727,4.363h.12a42.7,42.7,0,0,0,30.533-12.838l.016-.015.015-.016c.523.433,1.047.852,1.6,1.271a.05.05,0,0,1,.031.016.35.35,0,0,0,.074.043c.389.3.792.583,1.211.868.119.09.254.179.389.269.119.09.224.164.343.24l.136.09c.492.328,1,.642,1.508.956.614.374,1.24.732,1.868,1.076a1.643,1.643,0,0,1,.271.134C11410.4,1084.3,11411.117,1084.7,11411.8,1085.122Z"/>
            </g>
            <path id="Path_1857" data-name="Path 1857" class="cls-5" d="M11432.489,948.191V983.82a71.924,71.924,0,0,1-.688,9.894,78.486,78.486,0,0,1-6.813,22.806q-1.459,3.117-3.14,6.084c-.254.449-.509.9-.763,1.33a90.254,90.254,0,0,1-7.5,10.776c-.688.868-1.405,1.72-2.137,2.541-7.667,8.8-16.575,15.514-25.124,19.324a32.387,32.387,0,0,1-29.22.061c-8.594-3.8-17.562-10.538-25.287-19.385-.792-.913-1.57-1.839-2.332-2.795a89.545,89.545,0,0,1-9.37-14.243q-.987-1.884-1.882-3.812c-.359-.762-.7-1.539-1.031-2.317-.523-1.18-1-2.391-1.465-3.6a78.98,78.98,0,0,1-3.438-11.912c-.329-1.6-.612-3.214-.822-4.858a72.229,72.229,0,0,1-.687-9.893v-35.63h121.7Z"/>
            <path id="Path_1858" data-name="Path 1858" class="cls-4" d="M11309.3,994.019h0a8.085,8.085,0,0,0,8.085-8.085V947.112h-8.085Z"/>
            <path id="Path_1859" data-name="Path 1859" class="cls-4" d="M11425.9,947.112h8.084V994.02h0a8.084,8.084,0,0,1-8.084-8.085Z"/>
            <circle id="Ellipse_422" data-name="Ellipse 422" class="cls-4" cx="9.754" cy="9.754" r="9.754" transform="translate(11346.747 939.854)"/>
            <circle id="Ellipse_423" data-name="Ellipse 423" class="cls-4" cx="9.754" cy="9.754" r="9.754" transform="translate(11324.193 937.646)"/>
            <circle id="Ellipse_424" data-name="Ellipse 424" class="cls-4" cx="9.754" cy="9.754" r="9.754" transform="translate(11301.038 941.428)"/>
            <circle id="Ellipse_425" data-name="Ellipse 425" class="cls-4" cx="9.754" cy="9.754" r="9.754" transform="translate(11375.228 938.799)"/>
            <circle id="Ellipse_426" data-name="Ellipse 426" class="cls-4" cx="9.754" cy="9.754" r="9.754" transform="translate(11403.283 956.618) rotate(-80.783)"/>
            <circle id="Ellipse_427" data-name="Ellipse 427" class="cls-4" cx="9.753" cy="9.753" r="9.753" transform="translate(11424.957 948.041)"/>
            <circle id="Ellipse_428" data-name="Ellipse 428" class="cls-4" cx="7.42" cy="7.42" r="7.42" transform="translate(11364.221 942.923)"/>
            <circle id="Ellipse_429" data-name="Ellipse 429" class="cls-4" cx="7.42" cy="7.42" r="7.42" transform="translate(11313.945 942.189)"/>
            <circle id="Ellipse_430" data-name="Ellipse 430" class="cls-4" cx="7.42" cy="7.42" r="7.42" transform="translate(11339.328 942.189)"/>
            <circle id="Ellipse_431" data-name="Ellipse 431" class="cls-4" cx="7.42" cy="7.42" r="7.42" transform="translate(11392.874 944.522)"/>
            <circle id="Ellipse_432" data-name="Ellipse 432" class="cls-4" cx="7.42" cy="7.42" r="7.42" transform="translate(11416.809 944.522)"/>
            <path id="Path_1860" data-name="Path 1860" class="cls-8" d="M11422.85,966.628a.486.486,0,0,0-.419-.479,155.89,155.89,0,0,0-21.253-1.584c-11.3,0-25.871,3.541-28.412,3.541h-2.257c-1.181,0-4.976-.778-9.834-1.585a118.468,118.468,0,0,0-18.563-1.958,157.741,157.741,0,0,0-18.173,1.166c-1.465.18-2.525.329-3.079.419a.483.483,0,0,0-.434.478l-.12,6.068a.539.539,0,0,0,.329.493l.688.239c1.016.389.927,18.667,6.383,23.24,3.243,2.691,6.127,4.23,18.262,4.23,7.04,0,11.464-1.9,15.663-7.562,3.034-4.064,5.71-13.69,5.71-13.69.822-3.962,3.768-4.276,4.244-4.3h.062c.09,0,3.422.06,4.288,4.3,0,0,2.691,9.624,5.71,13.69,4.2,5.664,8.624,7.562,15.662,7.562,12.138,0,15.021-1.539,18.264-4.23,5.455-4.573,5.364-22.851,6.383-23.24l.687-.239a.54.54,0,0,0,.329-.493Z"/>
          </g>
        </g>
      </g>
      <g id="Group_1068" data-name="Group 1068">
        <g id="Group_1067" data-name="Group 1067" class="cls-3">
          <circle id="Ellipse_434" data-name="Ellipse 434" class="cls-4" cx="10.933" cy="10.933" r="10.933" transform="translate(11433.621 990.318)"/>
        </g>
      </g>
      <g id="Group_1070" data-name="Group 1070">
        <g id="Group_1069" data-name="Group 1069" class="cls-3">
          <circle id="Ellipse_436" data-name="Ellipse 436" class="cls-4" cx="7.42" cy="7.42" r="7.42" transform="translate(11448.068 939.828)"/>
        </g>
      </g>
      <g id="Group_1072" data-name="Group 1072">
        <g id="Group_1071" data-name="Group 1071" class="cls-3">
          <circle id="Ellipse_438" data-name="Ellipse 438" class="cls-4" cx="7.42" cy="7.42" r="7.42" transform="translate(11446.332 967.763)"/>
        </g>
      </g>
    </g>
    <path id="Path_1861" data-name="Path 1861" class="cls-9" d="M11235.911,1063.837h272.48s-43.331,75.887-136.752,75.856C11371.64,1139.693,11286.389,1144.137,11235.911,1063.837Z"/>
    <text id="Change_Profile_Picture" data-name="Change Profile Picture" class="cls-10" transform="translate(11278.765 1089.725)"><tspan x="0" y="0">Change Profile Picture</tspan></text>
  </g>
</svg>
