<svg xmlns="http://www.w3.org/2000/svg" width="26.002" height="32.077" viewBox="0 0 26.002 32.077">
  <defs>
    <style>
      .cls-1 {
        fill: #ff4248;
      }

      .cls-2 {
        fill: #fff;
      }
    </style>
  </defs>
  <g id="Group_939" data-name="Group 939" transform="translate(-10120.815 -834.486)">
    <path id="Path_1590" data-name="Path 1590" class="cls-1" d="M10146.817,834.486h-26v32.077l13-8.179,13,8.179Z"/>
    <g id="Group_938" data-name="Group 938">
      <path id="Path_1591" data-name="Path 1591" class="cls-2" d="M10129.4,839.3h.679a1.506,1.506,0,0,0,.321.048,4.6,4.6,0,0,1,3.309,2.2,1.137,1.137,0,0,0,.12.192,4.919,4.919,0,0,1,.258-.42,4.59,4.59,0,0,1,3.163-1.968,1.853,1.853,0,0,0,.331-.048h.645c.017.024.041.016.063.018a4.406,4.406,0,0,1,2.3.843,4.531,4.531,0,0,1,1.923,4.161,4.4,4.4,0,0,1-.632,1.969,5.987,5.987,0,0,1-.994,1.192q-2.09,2.079-4.178,4.164-.9.892-1.791,1.788-.539.537-1.075,1.077h-.033c-.13-.133-.259-.266-.391-.4l-4.694-4.682q-1.1-1.094-2.193-2.188a4.623,4.623,0,0,1-1.364-2.688,1.27,1.27,0,0,0-.046-.3v-.679c.022-.012.017-.035.019-.054.017-.159.037-.316.065-.473a4.636,4.636,0,0,1,3.869-3.705A1.437,1.437,0,0,0,10129.4,839.3Z"/>
    </g>
  </g>
</svg>
