<svg xmlns="http://www.w3.org/2000/svg" width="127.523" height="127.523" viewBox="0 0 127.523 127.523">
  <defs>
    <style>
      .cls-1 {
        fill: #fff;
      }
    </style>
  </defs>
  <g id="Group_409" data-name="Group 409" transform="translate(-10813.765 -7704.448)">
    <path id="Path_717" data-name="Path 717" class="cls-1" d="M10941.288,7831.971h-127.523V7704.448h127.523Zm-89.6-70.8h-9.407v-4.677h-14.062v9.347h4.679v-4.681h9.394v14.071h-9.42v-4.641h-4.653v9.351h18.775v-9.4h14.067v-4.69h-9.384v-4.7h9.379v-4.667h-9.368Zm18.8,23.5-.012-.012.013,4.709h-4.678v4.689h4.678q0,4.706,0,9.409h-4.677v14.073h14.043v-4.7h-4.687v-4.691h-4.691v-4.7h9.424v-4.672h23.451v4.7H10894v4.69h4.685v4.7H10894v4.666h4.668v-4.678h9.423v4.685h4.69v-9.4h14.067v-4.69h-9.385v-4.695h4.68v-4.667h-4.668v4.678h-4.678v-9.423h4.666v-9.386h4.68v-4.666h-4.668v4.677h-4.711v-9.411h4.679v-4.689h-4.679v-4.724h-4.708v-4.689h-23.488v-4.7h4.68v-4.666h-4.669v4.677h-4.721v-9.385h-4.687v9.35h-4.7c0-.185,0-.343,0-.5l-.006-13.573h4.726v-4.672h4.691v4.684h4.691v4.663h4.677v-9.376h-4.649v-4.706h4.643V7718.9h-23.45v9.377h4.684v9.4h-4.719v37.6H10851.7v4.687h14.089v4.7Zm-42.272-65.782v32.847h32.848v-32.847Zm65.783,32.851h32.847v-32.848h-32.847Zm-65.782,32.941v32.847h32.846v-32.847Zm89.271-23.507h4.707v9.371h4.657v-14.048h-9.364Zm4.708,28.161h4.649v-4.651h-4.649Zm-32.947,23.517v-4.664h-4.636v4.664Zm37.61.036h-4.649v4.651h4.649Z"/>
    <path id="Path_718" data-name="Path 718" d="M10917.465,7779.954v9.386h-4.666v9.423h4.678l-.012-.011v4.695h9.385v4.69h-14.067v9.4h-4.69v-4.685h-9.423l.011.012v-4.7H10894v-4.69h9.353v-4.7H10879.9v4.672h-9.424l.012.011q0-4.7,0-9.409l-.012.011h4.678v-4.71h-4.678l.012.01q-.007-2.353-.013-4.709h9.42v-4.676h4.688v4.653h4.7v-9.376l-.011.011c.2,0,.4-.006.6-.006l13.511-.007v4.68h4.666v-4.668h-4.678v-4.724h-9.406v-9.353h-14.1v4.687h-9.354v9.4h4.651v4.691h-4.673v4.7h-4.7v-4.7H10851.7v-4.687h14.065v-37.6h4.719l-.012-.011.006,13.573c0,.158,0,.316,0,.5h4.7v-9.35h4.688v9.385h4.721l-.011-.011v4.7h23.488v4.689h4.708v4.724l.013-.011h-4.678v4.711h4.678l-.013-.011v9.411h4.711Zm-18.795,9.41v-4.68H10894v4.668h4.677v4.678h9.362v-4.666Zm-9.412.022h-4.649v4.649h4.649Zm9.435-23.554h4.649v-4.651h-4.649Z"/>
    <path id="Path_719" data-name="Path 719" d="M10828.21,7718.883h32.848v32.847h-32.848Zm4.7,4.7v23.447h23.446v-23.447Z"/>
    <path id="Path_720" data-name="Path 720" d="M10893.993,7751.734v-32.848h32.847v32.848Zm28.15-4.69V7723.6H10898.7v23.448Z"/>
    <path id="Path_721" data-name="Path 721" d="M10828.211,7784.675h32.846v32.847h-32.846Zm4.7,4.69v23.461h23.44v-23.461Z"/>
    <path id="Path_722" data-name="Path 722" d="M10870.482,7737.67v-9.4h-4.684V7718.9h23.45v9.356h-4.643v4.706h4.649v9.376h-4.677v-4.663h-4.691v-4.684h-4.691v4.672h-4.726Zm9.365-9.424v-4.65h-4.649v4.65Z"/>
    <path id="Path_723" data-name="Path 723" d="M10842.276,7761.167h9.407l-.011-.011v4.7h9.384v4.69h-14.067v9.4h-18.775v-9.351h4.653v4.641h9.42v-14.071Z"/>
    <path id="Path_724" data-name="Path 724" d="M10870.473,7803.449v4.7h4.691v4.691h4.687v4.7h-14.043V7803.46h4.677Z"/>
    <path id="Path_725" data-name="Path 725" d="M10842.287,7761.156h-9.394v4.681h-4.679v-9.347h14.062v4.677Z"/>
    <path id="Path_726" data-name="Path 726" d="M10917.481,7761.168v-4.677h9.364v14.048h-4.657v-9.371Z"/>
    <path id="Path_727" data-name="Path 727" d="M10851.684,7761.167v-4.678h9.368v4.667h-9.379Z"/>
    <path id="Path_728" data-name="Path 728" d="M10917.477,7779.965v-4.677h4.668v4.666h-4.68Z"/>
    <path id="Path_729" data-name="Path 729" d="M10922.189,7789.329v-4.651h4.649v4.651Z"/>
    <path id="Path_730" data-name="Path 730" d="M10912.766,7765.865h4.679v4.689h-4.679l.013.011v-4.711Z"/>
    <path id="Path_731" data-name="Path 731" d="M10870.483,7794.051h-4.678v-4.689h4.678l-.012-.01v4.71Z"/>
    <path id="Path_732" data-name="Path 732" d="M10917.477,7798.763v-4.678h4.668v4.667h-4.68Z"/>
    <path id="Path_733" data-name="Path 733" d="M10884.58,7751.768v-4.677h4.669v4.666h-4.68Z"/>
    <path id="Path_734" data-name="Path 734" d="M10889.242,7812.846h-4.636v-4.664h4.636Z"/>
    <path id="Path_735" data-name="Path 735" d="M10898.669,7812.847v4.678H10894v-4.666h4.679Z"/>
    <path id="Path_736" data-name="Path 736" d="M10926.853,7812.882v4.651h-4.649v-4.651Z"/>
    <path id="Path_737" data-name="Path 737" class="cls-1" d="M10870.482,7784.665v-4.7h4.673v-4.691h-4.651v-9.4h9.354v-4.687h14.1v9.353h9.406v4.724l.012-.012-13.511.007c-.2,0-.4,0-.6.006v-4.679h-4.666v4.668h4.677v9.376h-4.7v-4.653h-4.688v4.676h-9.42Z"/>
    <path id="Path_738" data-name="Path 738" class="cls-1" d="M10898.67,7789.364h9.373v4.666h-9.362v-4.678Z"/>
    <path id="Path_739" data-name="Path 739" class="cls-1" d="M10903.366,7775.264h4.678v4.668h-4.666v-4.68Z"/>
    <path id="Path_740" data-name="Path 740" class="cls-1" d="M10898.681,7789.352H10894v-4.668h4.666v4.68Z"/>
    <path id="Path_741" data-name="Path 741" class="cls-1" d="M10870.472,7794.062v-4.71h4.678v4.71Z"/>
    <path id="Path_742" data-name="Path 742" class="cls-1" d="M10889.258,7789.386v4.649h-4.649v-4.649Z"/>
    <path id="Path_743" data-name="Path 743" class="cls-1" d="M10912.778,7765.854v4.711h-4.678v-4.711Z"/>
    <path id="Path_744" data-name="Path 744" class="cls-1" d="M10898.692,7765.832v-4.651h4.649v4.651Z"/>
    <path id="Path_745" data-name="Path 745" class="cls-1" d="M10832.911,7723.582h23.446v23.447h-23.446Zm4.688,18.752h14.05v-14.049h-14.05Z"/>
    <path id="Path_746" data-name="Path 746" class="cls-1" d="M10922.144,7747.044H10898.7V7723.6h23.448Zm-18.736-18.771v14.063h14.035v-14.063Z"/>
    <path id="Path_747" data-name="Path 747" class="cls-1" d="M10832.906,7789.365h23.44v23.461h-23.44Zm4.692,18.769h14.057v-14.049H10837.6Z"/>
    <path id="Path_748" data-name="Path 748" class="cls-1" d="M10879.848,7728.246h-4.649v-4.65h4.649Z"/>
    <path id="Path_749" data-name="Path 749" d="M10889.282,7775.254h-4.677v-4.668h4.666v4.679Z"/>
    <path id="Path_750" data-name="Path 750" d="M10837.6,7742.334v-14.049h14.05v14.049Z"/>
    <path id="Path_751" data-name="Path 751" d="M10903.407,7728.273h14.035v14.063h-14.035Z"/>
    <path id="Path_752" data-name="Path 752" d="M10837.6,7808.134v-14.049h14.057v14.049Z"/>
  </g>
</svg>
